<svg width="25" height="24" viewBox="0 0 25 24" fill="none" xmlns="http://www.w3.org/2000/svg">
<path d="M15.7998 2V12C15.7998 13.1 14.8998 14 13.7998 14H2.7998V6C2.7998 3.79 4.5898 2 6.7998 2H15.7998Z" stroke="#2922b3" stroke-linecap="round" stroke-linejoin="round"/>
<path d="M22.7998 14V17C22.7998 18.66 21.4598 20 19.7998 20H18.7998C18.7998 18.9 17.8998 18 16.7998 18C15.6998 18 14.7998 18.9 14.7998 20H10.7998C10.7998 18.9 9.8998 18 8.7998 18C7.6998 18 6.7998 18.9 6.7998 20H5.7998C4.1398 20 2.7998 18.66 2.7998 17V14H13.7998C14.8998 14 15.7998 13.1 15.7998 12V5H17.6398C18.3598 5 19.0198 5.39001 19.3798 6.01001L21.0898 9H19.7998C19.2498 9 18.7998 9.45 18.7998 10V13C18.7998 13.55 19.2498 14 19.7998 14H22.7998Z" stroke="#2922b3" stroke-linecap="round" stroke-linejoin="round"/>
<path d="M8.7998 22C9.90437 22 10.7998 21.1046 10.7998 20C10.7998 18.8954 9.90437 18 8.7998 18C7.69524 18 6.7998 18.8954 6.7998 20C6.7998 21.1046 7.69524 22 8.7998 22Z" stroke="#2922b3" stroke-linecap="round" stroke-linejoin="round"/>
<path d="M16.7998 22C17.9044 22 18.7998 21.1046 18.7998 20C18.7998 18.8954 17.9044 18 16.7998 18C15.6952 18 14.7998 18.8954 14.7998 20C14.7998 21.1046 15.6952 22 16.7998 22Z" stroke="#2922b3" stroke-linecap="round" stroke-linejoin="round"/>
<path d="M22.7998 12V14H19.7998C19.2498 14 18.7998 13.55 18.7998 13V10C18.7998 9.45 19.2498 9 19.7998 9H21.0898L22.7998 12Z" stroke="#2922b3" stroke-linecap="round" stroke-linejoin="round"/>
</svg>
