<svg width="60" height="60" viewBox="0 0 60 60" fill="none" xmlns="http://www.w3.org/2000/svg">
<rect width="60" height="60" rx="30" fill="#FEF2F2"/>
<path d="M44.6668 23.1251V41.0001C44.6668 46.5001 41.3852 48.3334 37.3335 48.3334H22.6668C18.6152 48.3334 15.3335 46.5001 15.3335 41.0001V23.1251C15.3335 17.1667 18.6152 15.7917 22.6668 15.7917C22.6668 16.9284 23.1251 17.9551 23.8768 18.7067C24.6284 19.4584 25.6552 19.9167 26.7918 19.9167H33.2085C35.4818 19.9167 37.3335 18.0651 37.3335 15.7917C41.3852 15.7917 44.6668 17.1667 44.6668 23.1251Z" stroke="#B91C1C" stroke-width="2.75" stroke-linecap="round" stroke-linejoin="round"/>
<path d="M37.3332 15.7917C37.3332 18.0651 35.4815 19.9167 33.2082 19.9167H26.7915C25.6548 19.9167 24.6281 19.4584 23.8765 18.7067C23.1248 17.9551 22.6665 16.9284 22.6665 15.7917C22.6665 13.5184 24.5182 11.6667 26.7915 11.6667H33.2082C34.3448 11.6667 35.3716 12.1251 36.1232 12.8768C36.8749 13.6284 37.3332 14.6551 37.3332 15.7917Z" stroke="#B91C1C" stroke-width="2.75" stroke-linecap="round" stroke-linejoin="round"/>
<path d="M22.6665 31.8333H29.9998" stroke="#B91C1C" stroke-width="2.75" stroke-linecap="round" stroke-linejoin="round"/>
<path d="M22.6665 39.1667H37.3332" stroke="#B91C1C" stroke-width="2.75" stroke-linecap="round" stroke-linejoin="round"/>
</svg>
