<svg width="36" height="36" viewBox="0 0 36 36" fill="none" xmlns="http://www.w3.org/2000/svg">
<rect x="0.5" y="0.5" width="35" height="35" rx="7.5" fill="white"/>
<path fill-rule="evenodd" clip-rule="evenodd" d="M18.186 25.4994C17.1697 25.4994 16.179 25.4881 15.1987 25.4679C13.9447 25.4431 13.077 24.6301 12.9352 23.3461C12.699 21.2161 12.2947 16.1956 12.291 16.1454C12.2655 15.8356 12.4965 15.5641 12.8062 15.5394C13.1115 15.5311 13.3875 15.7456 13.4122 16.0546C13.416 16.1056 13.8195 21.1089 14.0535 23.2224C14.1337 23.9521 14.5275 24.3286 15.222 24.3429C17.097 24.3826 19.0102 24.3849 21.0727 24.3474C21.8107 24.3331 22.2097 23.9641 22.2922 23.2171C22.5247 21.1216 22.9297 16.1056 22.9342 16.0546C22.959 15.7456 23.2327 15.5296 23.5395 15.5394C23.8492 15.5649 24.0802 15.8356 24.0555 16.1454C24.051 16.1964 23.6445 21.2296 23.4105 23.3409C23.265 24.6511 22.3995 25.4484 21.093 25.4724C20.0932 25.4896 19.1287 25.4994 18.186 25.4994" fill="#9DA1A8"/>
<path fill-rule="evenodd" clip-rule="evenodd" d="M24.531 14.2422H11.8125C11.502 14.2422 11.25 13.9902 11.25 13.6797C11.25 13.3692 11.502 13.1172 11.8125 13.1172H24.531C24.8415 13.1172 25.0935 13.3692 25.0935 13.6797C25.0935 13.9902 24.8415 14.2422 24.531 14.2422" fill="#9DA1A8"/>
<path fill-rule="evenodd" clip-rule="evenodd" d="M22.079 14.2417C21.2255 14.2417 20.4845 13.6335 20.3165 12.7965L20.1342 11.8845C20.096 11.7457 19.9377 11.625 19.7577 11.625H16.583C16.403 11.625 16.2447 11.7457 16.199 11.919L16.0242 12.7965C15.857 13.6335 15.1152 14.2417 14.2617 14.2417C13.9512 14.2417 13.6992 13.9897 13.6992 13.6792C13.6992 13.3687 13.9512 13.1168 14.2617 13.1168C14.5812 13.1168 14.8587 12.8887 14.9217 12.5752L15.104 11.6632C15.2892 10.9643 15.8945 10.5 16.583 10.5H19.7577C20.4462 10.5 21.0515 10.9643 21.2292 11.6295L21.4197 12.5752C21.482 12.8887 21.7595 13.1168 22.079 13.1168C22.3895 13.1168 22.6415 13.3687 22.6415 13.6792C22.6415 13.9897 22.3895 14.2417 22.079 14.2417" fill="#9DA1A8"/>
<rect x="0.5" y="0.5" width="35" height="35" rx="7.5" stroke="#9DA1A8"/>
</svg>
