<svg width="80" height="80" viewBox="0 0 80 80" fill="none" xmlns="http://www.w3.org/2000/svg">
<g clip-path="url(#clip0_7296_238182)">
<path d="M40 80C62.0914 80 80 62.0914 80 40C80 17.9086 62.0914 0 40 0C17.9086 0 0 17.9086 0 40C0 62.0914 17.9086 80 40 80Z" fill="#EFFFED"/>
<path d="M61 17V69H19V17H32V21C32.0016 21.5299 32.2128 22.0377 32.5875 22.4125C32.9623 22.7872 33.4701 22.9984 34 23H46C46.5299 22.9984 47.0377 22.7872 47.4125 22.4125C47.7872 22.0377 47.9984 21.5299 48 21V17H61Z" fill="#FCB64D"/>
<path d="M46 15H34C32.8954 15 32 15.8954 32 17V21C32 22.1046 32.8954 23 34 23H46C47.1046 23 48 22.1046 48 21V17C48 15.8954 47.1046 15 46 15Z" fill="#FECC81"/>
<path d="M44 13V15H36V13C36 12.4696 36.2107 11.9609 36.5858 11.5858C36.9609 11.2107 37.4696 11 38 11H42C42.5304 11 43.0391 11.2107 43.4142 11.5858C43.7893 11.9609 44 12.4696 44 13Z" fill="#FCB64D"/>
<path d="M57 21V65H23V21H32C32.0016 21.5299 32.2128 22.0377 32.5875 22.4125C32.9623 22.7872 33.4701 22.9984 34 23H46C46.5299 22.9984 47.0377 22.7872 47.4125 22.4125C47.7872 22.0377 47.9984 21.5299 48 21H57Z" fill="#F5F5F5"/>
<path d="M61 16H48.816C48.6105 15.4167 48.2296 14.9113 47.7253 14.5532C47.2211 14.1951 46.6184 14.0018 46 14H45V13C44.9992 12.2046 44.6829 11.442 44.1204 10.8796C43.558 10.3171 42.7954 10.0008 42 10H38C37.2046 10.0008 36.442 10.3171 35.8796 10.8796C35.3171 11.442 35.0008 12.2046 35 13V14H34C33.3816 14.0018 32.7789 14.1951 32.2747 14.5532C31.7704 14.9113 31.3895 15.4167 31.184 16H19C18.7348 16 18.4804 16.1054 18.2929 16.2929C18.1054 16.4804 18 16.7348 18 17V69C18 69.2652 18.1054 69.5196 18.2929 69.7071C18.4804 69.8946 18.7348 70 19 70H61C61.2652 70 61.5196 69.8946 61.7071 69.7071C61.8946 69.5196 62 69.2652 62 69V17C62 16.7348 61.8946 16.4804 61.7071 16.2929C61.5196 16.1054 61.2652 16 61 16ZM31.184 22C31.3895 22.5833 31.7704 23.0887 32.2747 23.4468C32.7789 23.8049 33.3816 23.9982 34 24H46C46.6184 23.9982 47.2211 23.8049 47.7253 23.4468C48.2296 23.0887 48.6105 22.5833 48.816 22H56V64H24V22H31.184ZM37 13C37 12.7348 37.1054 12.4804 37.2929 12.2929C37.4804 12.1054 37.7348 12 38 12H42C42.2652 12 42.5196 12.1054 42.7071 12.2929C42.8946 12.4804 43 12.7348 43 13V14H37V13ZM33 17C33 16.7348 33.1054 16.4804 33.2929 16.2929C33.4804 16.1054 33.7348 16 34 16H46C46.2652 16 46.5196 16.1054 46.7071 16.2929C46.8946 16.4804 47 16.7348 47 17V21C47 21.2652 46.8946 21.5196 46.7071 21.7071C46.5196 21.8946 46.2652 22 46 22H34C33.7348 22 33.4804 21.8946 33.2929 21.7071C33.1054 21.5196 33 21.2652 33 21V17ZM60 68H20V18H31V20H23C22.7348 20 22.4804 20.1054 22.2929 20.2929C22.1054 20.4804 22 20.7348 22 21V65C22 65.2652 22.1054 65.5196 22.2929 65.7071C22.4804 65.8946 22.7348 66 23 66H57C57.2652 66 57.5196 65.8946 57.7071 65.7071C57.8946 65.5196 58 65.2652 58 65V21C58 20.7348 57.8946 20.4804 57.7071 20.2929C57.5196 20.1054 57.2652 20 57 20H49V18H60V68ZM26 41C26 40.7348 26.1054 40.4804 26.2929 40.2929C26.4804 40.1054 26.7348 40 27 40H53C53.2652 40 53.5196 40.1054 53.7071 40.2929C53.8946 40.4804 54 40.7348 54 41C54 41.2652 53.8946 41.5196 53.7071 41.7071C53.5196 41.8946 53.2652 42 53 42H27C26.7348 42 26.4804 41.8946 26.2929 41.7071C26.1054 41.5196 26 41.2652 26 41ZM26 47C26 46.7348 26.1054 46.4804 26.2929 46.2929C26.4804 46.1054 26.7348 46 27 46H53C53.2652 46 53.5196 46.1054 53.7071 46.2929C53.8946 46.4804 54 46.7348 54 47C54 47.2652 53.8946 47.5196 53.7071 47.7071C53.5196 47.8946 53.2652 48 53 48H27C26.7348 48 26.4804 47.8946 26.2929 47.7071C26.1054 47.5196 26 47.2652 26 47ZM26 53C26 52.7348 26.1054 52.4804 26.2929 52.2929C26.4804 52.1054 26.7348 52 27 52H53C53.2652 52 53.5196 52.1054 53.7071 52.2929C53.8946 52.4804 54 52.7348 54 53C54 53.2652 53.8946 53.5196 53.7071 53.7071C53.5196 53.8946 53.2652 54 53 54H27C26.7348 54 26.4804 53.8946 26.2929 53.7071C26.1054 53.5196 26 53.2652 26 53ZM26 59C26 58.7348 26.1054 58.4804 26.2929 58.2929C26.4804 58.1054 26.7348 58 27 58H53C53.2652 58 53.5196 58.1054 53.7071 58.2929C53.8946 58.4804 54 58.7348 54 59C54 59.2652 53.8946 59.5196 53.7071 59.7071C53.5196 59.8946 53.2652 60 53 60H27C26.7348 60 26.4804 59.8946 26.2929 59.7071C26.1054 59.5196 26 59.2652 26 59Z" fill="#383838"/>
<path d="M35.9014 36.0986C35.9119 36.1091 35.9258 36.1129 35.9369 36.1223C37.112 37.2819 38.7244 38 40.5024 38C44.085 38 47 35.0851 47 31.5024C47 29.7245 46.2817 28.112 45.1222 26.9369C45.1128 26.9259 45.1091 26.912 45.0986 26.9015C45.088 26.8909 45.074 26.8871 45.0628 26.8776C43.8888 25.718 42.2783 25 40.5025 25C36.9171 25 34 27.917 34 31.5024C34 33.2782 34.718 34.8887 35.8776 36.0627C35.887 36.0741 35.8908 36.0881 35.9014 36.0986ZM40.5024 36.9396C39.1923 36.9396 37.9891 36.4743 37.0489 35.701L44.7008 28.0491C45.4742 28.9893 45.9395 30.1925 45.9395 31.5025C45.9395 34.5004 43.5003 36.9396 40.5024 36.9396ZM40.5024 26.0607C41.8104 26.0607 43.012 26.5259 43.9512 27.2993L36.2991 34.9513C35.5258 34.0121 35.0605 32.8107 35.0605 31.5025C35.0605 28.502 37.5017 26.0607 40.5024 26.0607Z" fill="#383838"/>
</g>
<defs>
<clipPath id="clip0_7296_238182">
<rect width="80" height="80" fill="white"/>
</clipPath>
</defs>
</svg>
