<svg width="19" height="22" viewBox="0 0 19 22" fill="none" xmlns="http://www.w3.org/2000/svg">
<path fill-rule="evenodd" clip-rule="evenodd" d="M12.7161 16.1902H5.49609C5.08209 16.1902 4.74609 15.8396 4.74609 15.4076C4.74609 14.9756 5.08209 14.625 5.49609 14.625H12.7161C13.1301 14.625 13.4661 14.9756 13.4661 15.4076C13.4661 15.8396 13.1301 16.1902 12.7161 16.1902Z" fill="#868A91"/>
<path fill-rule="evenodd" clip-rule="evenodd" d="M12.7161 11.823H5.49609C5.08209 11.823 4.74609 11.4724 4.74609 11.0404C4.74609 10.6084 5.08209 10.2578 5.49609 10.2578H12.7161C13.1301 10.2578 13.4661 10.6084 13.4661 11.0404C13.4661 11.4724 13.1301 11.823 12.7161 11.823Z" fill="#868A91"/>
<path fill-rule="evenodd" clip-rule="evenodd" d="M8.25109 7.46366H5.49609C5.08209 7.46366 4.74609 7.11305 4.74609 6.68105C4.74609 6.24905 5.08209 5.89844 5.49609 5.89844H8.25109C8.66509 5.89844 9.00109 6.24905 9.00109 6.68105C9.00109 7.11305 8.66509 7.46366 8.25109 7.46366Z" fill="#868A91"/>
<mask id="mask0_4994_36588" style="mask-type:luminance" maskUnits="userSpaceOnUse" x="0" y="0" width="19" height="22">
<path fill-rule="evenodd" clip-rule="evenodd" d="M0 0.566406H18.1647V21.3419H0V0.566406Z" fill="white"/>
</mask>
<g mask="url(#mask0_4994_36588)">
<path fill-rule="evenodd" clip-rule="evenodd" d="M12.909 2.13162L5.22 2.1358C2.892 2.15041 1.5 3.65302 1.5 6.15632V15.7521C1.5 18.2721 2.905 19.7768 5.256 19.7768L12.945 19.7737C15.273 19.7591 16.665 18.2544 16.665 15.7521V6.15632C16.665 3.63632 15.261 2.13162 12.909 2.13162ZM5.257 21.3421C2.113 21.3421 0 19.0955 0 15.7521V6.15632C0 2.78275 2.047 0.590406 5.215 0.57058L12.908 0.566406H12.909C16.053 0.566406 18.165 2.81302 18.165 6.15632V15.7521C18.165 19.1247 16.118 21.3181 12.95 21.3389L5.257 21.3421Z" fill="#868A91"/>
</g>
</svg>
