<svg width="25" height="19" viewBox="0 0 25 19" fill="none" xmlns="http://www.w3.org/2000/svg">
<path fill-rule="evenodd" clip-rule="evenodd" d="M0.246094 1.40757C0.501764 1.58093 0.647074 1.8097 0.955281 1.98915C1.70608 1.6091 16.5052 1.06993 18.4583 1.64818C19.7365 1.85235 19.9105 2.52027 20.4913 2.7987C20.1916 2.09193 19.4269 1.08821 18.8444 0.706776C16.9485 -0.53456 2.25053 0.230958 1.88427 0.259238C1.03886 0.32465 0.268856 0.667345 0.246094 1.40746V1.40757Z" fill="#D2AE6D"/>
<path fill-rule="evenodd" clip-rule="evenodd" d="M0.245961 1.35547C0.191585 5.56231 0.415987 9.86629 0.0330556 14.0369C0.0330556 14.0369 -0.339529 16.98 1.41706 17.6755C3.89973 18.6586 16.629 18.1595 20.5798 17.7291C23.5974 17.4003 24.1246 11.5017 24.0377 8.96811C23.7105 -0.547002 12.2975 2.63003 2.58666 2.3063C1.08229 2.25618 1.02079 2.13639 0.246076 1.35558L0.245961 1.35547Z" fill="#2922b3"/>
<path fill-rule="evenodd" clip-rule="evenodd" d="M5.09777 9.89992C5.72442 10.1291 5.56175 9.69115 5.91203 10.4675C7.98648 15.0644 15.1181 15.362 17.7619 11.1794C17.9259 10.9198 18.0929 10.6086 18.2102 10.2718C18.5043 9.4272 18.3429 9.87313 18.9532 9.68897C18.7796 9.35443 18.0334 9.02622 17.609 9.24833C17.7253 9.62022 17.6969 9.28891 18.0068 9.60355C17.7691 10.584 16.6194 11.8642 15.9472 12.3575C12.9003 14.5934 7.67276 13.6378 6.06228 9.86784C6.20782 9.58815 6.1992 9.76208 6.32451 9.46859C5.93192 9.30673 5.38931 9.58826 5.09766 9.89992H5.09777Z" fill="white"/>
</svg>
