<svg width="64" height="64" viewBox="0 0 64 64" fill="none" xmlns="http://www.w3.org/2000/svg">
<rect width="64" height="64" fill="white"/>
<path d="M12.7051 46.0824L13.2721 49.9888L16.6115 53.8005L54.4146 47.815L53.69 43.1843L15.8333 48.9575L12.7051 46.0824Z" fill="#FFE55D"/>
<path d="M53.69 43.1843L15.8555 48.9492L12.7051 46.0824L50.5396 40.3806L53.69 43.1843Z" fill="white"/>
<path d="M54.5228 47.798C53.7864 43.0987 53.8089 43.1434 53.7628 43.1019C50.5605 40.2285 50.6011 40.2585 50.5228 40.2714L12.6989 45.9718C12.6827 45.9727 12.6669 45.977 12.6526 45.9845C12.6383 45.992 12.6258 46.0026 12.616 46.0156C12.6063 46.0286 12.5995 46.0433 12.5961 46.0591C12.5928 46.0749 12.593 46.0913 12.5967 46.1072C13.1706 50.0629 13.1548 50.024 13.1885 50.0617C16.582 53.9327 16.5342 53.9108 16.6108 53.9108L54.431 47.9239C54.4598 47.9193 54.4857 47.9034 54.503 47.8798C54.5202 47.8565 54.5274 47.8268 54.5228 47.798ZM53.4405 43.1105L15.8899 48.8325L12.95 46.157L50.5052 40.4972L53.4405 43.1105ZM16.6537 53.6822L13.376 49.9408L12.8576 46.371C15.8343 49.0799 15.7883 49.0595 15.8548 49.0595L53.5972 43.3098L54.2884 47.7234L16.6537 53.6822Z" fill="#673737"/>
<path d="M16.1381 40.16L17.2091 41.6723C17.2474 41.729 17.2987 41.776 17.3589 41.8088C17.419 41.8419 17.4862 41.8598 17.5547 41.8612H19.4141C19.5221 41.8632 19.6251 41.907 19.7015 41.9833C19.7779 42.0596 19.8217 42.1627 19.8236 42.2707C19.8236 42.4064 19.8893 42.282 18.595 43.972C18.5539 44.0247 18.5267 44.0869 18.5157 44.1528C18.5047 44.2188 18.5103 44.2864 18.5319 44.3498L19.099 46.1141C19.1225 46.1844 19.1261 46.2598 19.1091 46.3318C19.0922 46.4038 19.0555 46.4698 19.0031 46.5222C18.9507 46.5746 18.8848 46.6112 18.8127 46.6282C18.7406 46.6452 18.6652 46.6417 18.595 46.6181L16.831 46.0196C16.7675 45.9989 16.7001 45.994 16.6343 46.0049C16.5684 46.0159 16.5062 46.0424 16.4528 46.0824L14.9408 47.1852C14.8815 47.2258 14.8124 47.2497 14.7408 47.2546C14.6691 47.2592 14.5974 47.2448 14.5332 47.2128C14.4689 47.1806 14.4144 47.1319 14.3753 47.0717C14.3362 47.0115 14.3139 46.9418 14.3107 46.8701L14.3421 45.0113C14.3366 44.88 14.28 44.7562 14.1846 44.6657L12.6726 43.5633C12.6107 43.5184 12.5626 43.4567 12.5339 43.3859C12.5051 43.3147 12.4968 43.2373 12.51 43.1618C12.5231 43.0864 12.557 43.0161 12.608 42.9591C12.659 42.902 12.7249 42.8603 12.7984 42.8387L14.5627 42.303C14.6238 42.2883 14.6798 42.2569 14.7242 42.2126C14.7687 42.1679 14.8 42.112 14.8147 42.051L15.3818 40.287C15.5062 39.8518 16.0643 40.0125 16.1381 40.16Z" fill="#FFB43B"/>
<path d="M14.2013 46.8701L14.2327 45.0096C14.2266 44.908 14.1819 44.8126 14.1077 44.7429L12.6083 43.6514C12.5295 43.5947 12.4683 43.5172 12.4314 43.4274C12.3946 43.3375 12.3836 43.2393 12.3999 43.1437C12.4162 43.0481 12.459 42.9588 12.5234 42.8862C12.5878 42.8136 12.6714 42.7606 12.7644 42.7333L14.5316 42.1967C14.5742 42.1872 14.6134 42.1659 14.6446 42.1354C14.6759 42.1049 14.6981 42.0663 14.7087 42.0239L15.2775 40.2527C15.3024 40.1557 15.3574 40.069 15.4347 40.0053C15.5118 39.9414 15.6073 39.904 15.7072 39.8976C15.8049 39.8855 15.9041 39.8979 15.9958 39.9336C16.0875 39.9693 16.1689 40.0272 16.2325 40.1024L17.2999 41.6089C17.3278 41.6518 17.3656 41.6873 17.4103 41.7123C17.4549 41.7377 17.505 41.7515 17.5562 41.7529H19.4141C19.5099 41.7506 19.6043 41.776 19.686 41.8261C19.7678 41.8762 19.8333 41.9488 19.8748 42.0352C19.9163 42.1216 19.932 42.218 19.92 42.3131C19.908 42.4081 19.8689 42.4977 19.8072 42.5711L18.684 44.0399C18.6541 44.0803 18.6345 44.1272 18.627 44.1767C18.6194 44.2263 18.624 44.277 18.6405 44.3242L19.2056 46.081C19.2384 46.1778 19.2411 46.2826 19.213 46.3808C19.185 46.4793 19.1276 46.5668 19.0486 46.6319C18.9815 46.6918 18.8989 46.7316 18.8102 46.7468C18.7216 46.7621 18.6305 46.7523 18.5472 46.7183L16.797 46.1256C16.7506 46.1104 16.7012 46.1066 16.653 46.1147C16.6048 46.1227 16.5593 46.1426 16.5205 46.1723L15.0071 47.2759C14.9313 47.3289 14.8425 47.3606 14.7503 47.3672C14.658 47.3738 14.5656 47.3554 14.483 47.3136C14.4004 47.2722 14.3305 47.2088 14.2809 47.1307C14.2313 47.0527 14.2038 46.9626 14.2013 46.8701ZM15.7651 40.1148C15.7024 40.109 15.6397 40.1263 15.5889 40.1635C15.538 40.2006 15.5023 40.255 15.4886 40.3164L14.9213 42.0838C14.9004 42.1628 14.8587 42.2345 14.8006 42.2918C14.7425 42.3491 14.6701 42.3897 14.5909 42.4093C12.5865 42.9637 12.8085 42.9225 12.6576 43.0731C12.6177 43.1368 12.6035 43.2134 12.6178 43.2871C12.6322 43.3608 12.6741 43.4265 12.7351 43.4706L14.2511 44.5759C14.3119 44.6315 14.3611 44.6986 14.3957 44.7735C14.4303 44.8481 14.4497 44.929 14.4527 45.0114L14.4213 46.8718C14.4248 46.9234 14.4418 46.9732 14.4708 47.0161C14.4998 47.059 14.5396 47.0933 14.5861 47.1158C14.6327 47.1385 14.6844 47.148 14.736 47.1443C14.7876 47.1403 14.8372 47.1227 14.8798 47.0933L16.3881 45.9934C16.4544 45.9439 16.5316 45.9108 16.6132 45.8967C16.6948 45.8826 16.7786 45.888 16.8578 45.9125L18.6307 46.515C18.6819 46.532 18.7369 46.5346 18.7894 46.5219C18.8419 46.5092 18.8898 46.4822 18.9276 46.4436C18.9655 46.405 18.9916 46.3566 19.0033 46.3039C19.0149 46.2509 19.0114 46.1962 18.9933 46.1452L18.4274 44.3838C18.3985 44.3014 18.3915 44.213 18.4073 44.1272C18.4231 44.0411 18.4609 43.961 18.5172 43.8942C19.8069 42.2088 19.7136 42.3557 19.7136 42.271C19.7117 42.1921 19.6795 42.1172 19.6238 42.0617C19.5681 42.0058 19.4931 41.9738 19.4144 41.9718H17.5556C17.4687 41.9707 17.3835 41.9482 17.3072 41.9067C17.2309 41.8652 17.1658 41.8059 17.1176 41.7336L16.0482 40.2239C16.0108 40.1874 15.9664 40.1588 15.9176 40.1401C15.8688 40.1214 15.8167 40.1128 15.7645 40.1148H15.7651Z" fill="#673737"/>
<path d="M24.2665 38.9315L25.3375 40.4437C25.3758 40.5005 25.4271 40.5474 25.4873 40.5803C25.5474 40.6134 25.6146 40.6312 25.6831 40.6327H27.5416C27.6496 40.6347 27.7527 40.6785 27.829 40.7548C27.9054 40.8311 27.9492 40.9342 27.9511 41.0422C27.9511 41.1779 28.0168 41.0534 26.7225 42.7434C26.6537 42.8566 26.6312 42.992 26.6594 43.1213L27.2265 44.8856C27.2501 44.9558 27.2536 45.0313 27.2366 45.1033C27.2197 45.1753 27.183 45.2412 27.1306 45.2937C27.0783 45.3461 27.0123 45.3827 26.9402 45.3996C26.8681 45.4166 26.7927 45.4132 26.7225 45.3896L24.9911 44.7583C24.9276 44.7378 24.8601 44.7329 24.7943 44.7439C24.7285 44.7548 24.6663 44.7813 24.6129 44.8213L23.1009 45.9555C23.0416 45.9961 22.9725 46.02 22.9008 46.0249C22.8292 46.0295 22.7575 46.0151 22.6932 45.9831C22.629 45.9509 22.5745 45.9022 22.5354 45.842C22.4963 45.7818 22.474 45.7121 22.4708 45.6404L22.5025 43.7817C22.4968 43.6503 22.4403 43.5265 22.3449 43.4361L20.8326 42.365C20.7707 42.3198 20.7227 42.2584 20.694 42.1873C20.6653 42.1164 20.657 42.039 20.6701 41.9635C20.6833 41.8881 20.7173 41.8178 20.7683 41.7608C20.8193 41.7035 20.8853 41.662 20.9588 41.6404L22.7228 41.105C22.7839 41.0903 22.8398 41.0589 22.8842 41.0146C22.9287 40.9699 22.96 40.914 22.9748 40.853L23.5418 39.0887C23.5643 39.0167 23.6054 38.9519 23.661 38.9012C23.7166 38.8502 23.7847 38.8151 23.8584 38.799C23.932 38.7831 24.0086 38.7869 24.0803 38.8102C24.152 38.8335 24.2162 38.8753 24.2665 38.9315Z" fill="#FFB43B"/>
<path d="M22.3601 45.6415L22.3915 43.7811C22.3853 43.6794 22.3405 43.5841 22.2662 43.5144L20.7677 42.4542C20.6887 42.3978 20.6271 42.32 20.59 42.2305C20.5529 42.1406 20.5418 42.0421 20.558 41.9462C20.5741 41.8506 20.6169 41.761 20.6814 41.6885C20.7459 41.6159 20.8295 41.5626 20.9227 41.5352L22.6895 40.999C22.7322 40.9895 22.7713 40.9682 22.8026 40.9376C22.8338 40.9071 22.856 40.8685 22.8667 40.8262L23.4358 39.055C23.4646 38.9631 23.5178 38.8807 23.5895 38.8165C23.6613 38.752 23.7491 38.7085 23.8436 38.6898C23.9381 38.6711 24.0359 38.6783 24.1267 38.7108C24.2174 38.7431 24.2978 38.7992 24.3594 38.8732L25.425 40.3795C25.453 40.4224 25.4909 40.4578 25.5355 40.4829C25.5801 40.5079 25.6301 40.5218 25.6813 40.5235H27.54C27.6359 40.5212 27.7304 40.5465 27.8122 40.5966C27.894 40.6468 27.9596 40.7193 28.0011 40.8057C28.0426 40.8921 28.0583 40.9886 28.0462 41.0839C28.0342 41.179 27.9949 41.2685 27.9332 41.342L26.8085 42.8108C26.76 42.8972 26.7445 42.9983 26.765 43.0953L27.3301 44.8521C27.3604 44.9429 27.3644 45.0405 27.3416 45.1335C27.3188 45.2265 27.2702 45.3112 27.2014 45.3777C27.1325 45.4443 27.0462 45.4898 26.9525 45.5093C26.8588 45.5289 26.7615 45.5217 26.6717 45.4883L24.9506 44.8634C24.9045 44.8484 24.8554 44.8452 24.8077 44.8533C24.7599 44.8616 24.7149 44.8815 24.6765 44.9109L23.1645 46.045C23.0888 46.0974 23.0004 46.1288 22.9085 46.1352C22.8167 46.1418 22.7247 46.1234 22.6424 46.0822C22.5601 46.041 22.4904 45.9782 22.4407 45.9007C22.391 45.823 22.3632 45.7337 22.3601 45.6415ZM23.6477 39.1192L23.0795 40.8869C23.0587 40.9659 23.0171 41.0376 22.959 41.0946C22.9009 41.1519 22.8286 41.1925 22.7494 41.2121C20.7453 41.7674 20.9667 41.7253 20.8158 41.8762C20.7761 41.9399 20.762 42.0165 20.7764 42.0902C20.7908 42.1639 20.8327 42.2296 20.8936 42.2737L22.4082 43.3465C22.4695 43.402 22.5193 43.4692 22.5543 43.544C22.5894 43.6189 22.6091 43.7001 22.6124 43.7828L22.5807 45.6433C22.5842 45.6948 22.6013 45.7446 22.6303 45.7876C22.6593 45.8305 22.6991 45.8647 22.7457 45.8872C22.7923 45.9097 22.8441 45.9195 22.8956 45.9157C22.9472 45.9117 22.9968 45.8941 23.0395 45.8647L24.5466 44.7343C24.613 44.6845 24.6903 44.6511 24.7722 44.6367C24.854 44.6226 24.9381 44.6281 25.0174 44.6525L26.761 45.2861C26.8121 45.3026 26.8668 45.3046 26.919 45.2916C26.9712 45.2789 27.0187 45.2516 27.0561 45.213C27.0936 45.1747 27.1196 45.1263 27.1311 45.0739C27.1426 45.0215 27.1392 44.9668 27.1213 44.9161L26.5565 43.1552C26.5186 42.9937 26.546 42.8235 26.6328 42.6821C27.9346 40.9829 27.8424 41.1269 27.8424 41.0422C27.8405 40.9633 27.8084 40.8884 27.7527 40.8328C27.697 40.7769 27.622 40.745 27.5432 40.7429H25.6833C25.5965 40.7418 25.5112 40.7193 25.4349 40.6779C25.3586 40.6364 25.2935 40.5771 25.2453 40.5048L24.1661 38.9807C24.1263 38.9455 24.0784 38.9211 24.0267 38.909C23.975 38.8969 23.9211 38.8977 23.8699 38.9113C23.8186 38.9251 23.7715 38.951 23.7327 38.9873C23.694 39.0236 23.6648 39.0688 23.6477 39.1192Z" fill="#673737"/>
<path d="M32.3607 37.9234L33.4318 39.4354C33.4701 39.4924 33.5214 39.5394 33.5815 39.5722C33.6417 39.605 33.7088 39.6232 33.7774 39.6246H35.6361C35.7441 39.6266 35.8472 39.6704 35.9236 39.7467C35.9999 39.8231 36.0437 39.9262 36.0457 40.0342C36.0457 40.1698 36.1113 40.0454 34.8171 41.7351C34.7759 41.7878 34.7488 41.8503 34.7376 41.9162C34.7266 41.9822 34.7324 42.0499 34.754 42.1132L35.3211 43.8772C35.3404 43.9472 35.3407 44.0207 35.3222 44.0909C35.3038 44.1609 35.2669 44.2248 35.2157 44.2758C35.1644 44.3271 35.1007 44.3639 35.0308 44.3824C34.9605 44.4011 34.8871 44.4008 34.8171 44.3815L33.0528 43.7828C32.9894 43.7623 32.922 43.7574 32.8561 43.7684C32.7904 43.7793 32.7282 43.8058 32.6749 43.8458L31.1632 44.9486C31.1039 44.9889 31.0349 45.0128 30.9632 45.0177C30.8916 45.0226 30.82 45.0082 30.7558 44.9759C30.6916 44.944 30.6371 44.8953 30.598 44.8351C30.5589 44.7749 30.5366 44.7052 30.5334 44.6335L30.5648 42.7748C30.5591 42.6434 30.5026 42.5196 30.4072 42.4292L28.8952 41.3581C28.8333 41.3132 28.7853 41.2515 28.7565 41.1807C28.7278 41.1096 28.7195 41.0321 28.7326 40.9566C28.7457 40.8812 28.7797 40.8109 28.8306 40.7539C28.8816 40.6968 28.9476 40.6551 29.0211 40.6335L30.8168 40.0978C30.8779 40.0831 30.9338 40.0517 30.9783 40.0074C31.0228 39.9627 31.0541 39.9069 31.0688 39.8458L31.6358 38.0818C31.6638 38.0144 31.7075 37.9551 31.7634 37.9081C31.8194 37.8615 31.8857 37.8289 31.9569 37.8134C32.0281 37.7978 32.1021 37.7996 32.1724 37.8189C32.2426 37.8382 32.3072 37.8739 32.3607 37.9234Z" fill="#FFB43B"/>
<path d="M30.4236 44.6335L30.455 42.773C30.449 42.6714 30.4042 42.5757 30.3297 42.5063L28.8307 41.4462C28.7521 41.3895 28.6909 41.3117 28.6541 41.2221C28.6173 41.1323 28.6064 41.0341 28.6225 40.9385C28.6386 40.8428 28.6811 40.7536 28.7453 40.6807C28.8095 40.6081 28.8927 40.5548 28.9856 40.5269L30.7848 39.9907C30.8273 39.9809 30.8663 39.9598 30.8975 39.9293C30.9286 39.8988 30.9507 39.8602 30.9613 39.8179L31.5315 38.0478C31.5567 37.9654 31.6033 37.8911 31.6665 37.833C31.7298 37.7745 31.8074 37.7339 31.8915 37.7155C31.9891 37.6872 32.0926 37.6855 32.1908 37.7108C32.2893 37.7362 32.3792 37.7875 32.4509 37.8595L33.5219 39.3715C33.5499 39.4144 33.5879 39.4498 33.6325 39.4748C33.6772 39.4999 33.7273 39.5137 33.7785 39.5155H35.6373C35.7329 39.5132 35.8274 39.5385 35.9089 39.5886C35.9904 39.6384 36.0561 39.7107 36.0975 39.7971C36.139 39.8832 36.1548 39.9797 36.143 40.0747C36.1312 40.1695 36.0921 40.2591 36.0307 40.3325L34.9075 41.8013C34.8776 41.8416 34.858 41.8886 34.8502 41.9381C34.8427 41.9876 34.8473 42.0383 34.8637 42.0856L35.4291 43.8424C35.455 43.9328 35.4561 44.0287 35.4317 44.1197C35.4075 44.2104 35.3588 44.2931 35.2911 44.3585C35.2234 44.4238 35.1393 44.4696 35.0478 44.4909C34.9559 44.512 34.8603 44.5079 34.7707 44.4788L33.0202 43.8861C32.9739 43.8709 32.9243 43.8668 32.8762 43.8752C32.8281 43.8833 32.7826 43.9031 32.744 43.9328L31.2306 45.0364C31.1549 45.0894 31.0663 45.1211 30.9742 45.128C30.8821 45.1346 30.7898 45.1165 30.7071 45.0753C30.6245 45.0341 30.5545 44.971 30.5046 44.8933C30.4547 44.8155 30.4267 44.726 30.4236 44.6335ZM31.7424 38.1112L31.1744 39.8789C31.1536 39.9578 31.112 40.0295 31.0538 40.0868C30.9957 40.1439 30.9233 40.1845 30.8441 40.2041C28.805 40.7628 29.0297 40.7161 28.8791 40.8679C28.8393 40.9318 28.8252 41.0082 28.8396 41.0822C28.8541 41.1559 28.8959 41.2216 28.9568 41.2656L30.4723 42.339C30.5337 42.3946 30.5834 42.4617 30.6185 42.5366C30.6536 42.6117 30.6733 42.693 30.6765 42.7756L30.6448 44.6361C30.6484 44.6876 30.6656 44.7375 30.6946 44.7801C30.7236 44.823 30.7634 44.8573 30.81 44.8797C30.8565 44.9022 30.9082 44.912 30.9598 44.9083C31.0113 44.9042 31.0609 44.8869 31.1036 44.8576L32.6119 43.7574C32.6784 43.7079 32.7553 43.6748 32.8371 43.6609C32.9186 43.6468 33.0024 43.6523 33.0816 43.6768L34.8545 44.2778C34.9052 44.2905 34.9585 44.2896 35.0089 44.2755C35.0593 44.2614 35.1051 44.2343 35.1417 44.1969C35.1782 44.1595 35.2044 44.1134 35.2177 44.0627C35.2309 44.012 35.2306 43.9587 35.2171 43.9083L34.6512 42.1478C34.6224 42.0654 34.6152 41.977 34.631 41.8912C34.6469 41.8051 34.6846 41.725 34.741 41.6582C36.0307 39.9728 35.9374 40.12 35.9374 40.0353C35.9354 39.9567 35.9031 39.8815 35.8475 39.8259C35.792 39.7703 35.7168 39.7381 35.6382 39.7361H33.7785C33.6916 39.7349 33.6063 39.7124 33.53 39.671C33.4537 39.6295 33.3886 39.5702 33.3402 39.4979L32.2769 37.9968C32.2366 37.9623 32.1891 37.9378 32.1378 37.9245C32.0865 37.9116 32.033 37.9104 31.9813 37.9217C31.9296 37.9326 31.8811 37.9556 31.8396 37.9885C31.7982 38.0213 31.7649 38.0634 31.7424 38.1112Z" fill="#673737"/>
<path d="M40.5523 36.7579L41.6234 38.2699C41.7101 38.375 41.8336 38.4427 41.969 38.4588H43.8277C44.1109 38.4588 44.3173 38.7367 44.1428 39.089L43.0087 40.5696C42.9675 40.6223 42.9404 40.6848 42.9292 40.7507C42.9182 40.8167 42.924 40.8843 42.9456 40.9477L43.5441 42.7117C43.5662 42.7817 43.5691 42.8569 43.5516 42.9283C43.5343 42.9997 43.4974 43.0651 43.4456 43.1172C43.3934 43.1691 43.3281 43.2059 43.2566 43.2232C43.1849 43.2408 43.1101 43.2379 43.0401 43.2157L41.2761 42.6172C41.2124 42.5968 41.145 42.5919 41.0794 42.6028C41.0134 42.6138 40.9512 42.6403 40.8979 42.6803L39.4173 43.7828C39.358 43.8234 39.2889 43.8473 39.2172 43.8522C39.1454 43.8568 39.074 43.8424 39.0095 43.8104C38.9453 43.7782 38.8909 43.7295 38.8517 43.6693C38.8125 43.6091 38.7903 43.5394 38.7872 43.4677L38.8189 41.6092C38.8131 41.4779 38.7566 41.3541 38.6613 41.2636L37.149 40.1926C37.0871 40.1474 37.039 40.086 37.0105 40.0149C36.9817 39.944 36.9733 39.8666 36.9866 39.7911C36.9996 39.7156 37.0335 39.6454 37.0845 39.5883C37.1358 39.531 37.2017 39.4896 37.2752 39.468L39.0709 38.9323C39.1319 38.9176 39.1878 38.8862 39.2321 38.8419C39.2768 38.7972 39.3082 38.7413 39.3229 38.6803L39.8899 36.9163C39.9118 36.8521 39.9498 36.7945 40.0002 36.7487C40.0503 36.7029 40.1114 36.6706 40.1776 36.6548C40.2436 36.6392 40.3127 36.6404 40.3781 36.6582C40.4437 36.6764 40.5037 36.7107 40.5523 36.7579Z" fill="#FFB43B"/>
<path d="M38.6772 43.4677L38.7089 41.6075C38.7026 41.5058 38.6579 41.4102 38.5836 41.3405L37.086 40.2816C37.0068 40.2251 36.9455 40.1473 36.9083 40.0578C36.8712 39.9679 36.8602 39.8694 36.8764 39.7735C36.8925 39.6779 36.9351 39.5883 36.9996 39.5158C37.0641 39.4432 37.1477 39.3899 37.241 39.3625L39.0398 38.8257C39.0824 38.8162 39.1216 38.7949 39.1527 38.7644C39.1838 38.7338 39.206 38.6952 39.2164 38.6529L39.7855 36.8817C39.8137 36.7979 39.8629 36.7227 39.9289 36.6637C39.9948 36.6049 40.0749 36.564 40.1613 36.545C40.2477 36.5263 40.3376 36.5304 40.4219 36.5566C40.5063 36.5831 40.5824 36.6309 40.6428 36.6954L41.713 38.2065C41.7842 38.2877 41.8835 38.3393 41.9913 38.3505H43.8284C43.92 38.3505 44.0098 38.3759 44.0882 38.4234C44.1668 38.4709 44.2307 38.5389 44.2731 38.6201C44.3157 38.701 44.3353 38.7923 44.3298 38.8839C44.3243 38.9752 44.2938 39.0636 44.242 39.1391L43.0969 40.6367C43.0669 40.677 43.0473 40.7239 43.0396 40.7735C43.0321 40.823 43.0367 40.8737 43.0531 40.9209L43.6493 42.6763C43.6781 42.7658 43.6818 42.8617 43.6596 42.953C43.6375 43.0446 43.5908 43.1281 43.5243 43.195C43.4577 43.2615 43.3742 43.3084 43.2826 43.3306C43.1913 43.3528 43.0954 43.3493 43.0059 43.3205L41.2413 42.7215C41.1949 42.7062 41.1454 42.7025 41.0973 42.7108C41.0489 42.7189 41.0037 42.7388 40.9648 42.7684L39.4839 43.8712C39.4082 43.9242 39.3195 43.9556 39.2273 43.9625C39.1354 43.9691 39.043 43.951 38.9603 43.9098C38.8777 43.8683 38.808 43.8055 38.7579 43.7278C38.7081 43.6497 38.6801 43.5601 38.6772 43.4677ZM39.9963 36.9456L39.4292 38.7131C39.4085 38.792 39.3667 38.864 39.3088 38.921C39.2506 38.9784 39.1781 39.019 39.0989 39.0385C37.0601 39.5973 37.2845 39.5509 37.1341 39.7024C37.0929 39.7657 37.0783 39.8426 37.0927 39.9169C37.1071 39.991 37.15 40.0566 37.2119 40.0998L38.7265 41.1726C38.7878 41.2282 38.8374 41.2953 38.8725 41.3705C38.9073 41.4454 38.9272 41.5266 38.9304 41.6092L38.899 43.4697C38.9025 43.5213 38.9197 43.5711 38.9485 43.6137C38.9776 43.6566 39.0174 43.6909 39.064 43.7136C39.1104 43.7361 39.1622 43.7459 39.2138 43.7419C39.2653 43.7378 39.3149 43.7206 39.3575 43.6912L40.8335 42.5919C40.9 42.5421 40.9772 42.5087 41.059 42.4945C41.1408 42.4804 41.2246 42.4856 41.3041 42.5101L43.077 43.1114C43.128 43.1273 43.1824 43.1284 43.2343 43.1155C43.2861 43.1022 43.3333 43.0752 43.3708 43.0368C43.4082 42.9988 43.4344 42.951 43.4465 42.8992C43.4586 42.8471 43.4563 42.7926 43.4396 42.7419L42.8426 40.9831C42.8135 40.9005 42.8063 40.8118 42.8221 40.7256C42.8377 40.6392 42.8757 40.5589 42.9321 40.4918L44.0568 39.023C44.178 38.7494 44.0196 38.5703 43.8293 38.5703H41.9694C41.8841 38.5619 41.8015 38.5363 41.7263 38.4954C41.6508 38.4548 41.5846 38.3992 41.531 38.3324L40.46 36.8201C40.4234 36.7907 40.3805 36.7703 40.3347 36.7608C40.2889 36.7512 40.2414 36.7524 40.1961 36.7648C40.1509 36.7769 40.1092 36.7996 40.0746 36.8313C40.0398 36.8627 40.013 36.9019 39.9963 36.9456Z" fill="#673737"/>
<path d="M48.6169 35.5921L49.688 37.1043C49.7747 37.2095 49.8982 37.2771 50.0336 37.2933H51.8923C52.1755 37.2933 52.3834 37.5712 52.2074 37.9234L51.0733 39.404C51.0321 39.4567 51.005 39.5189 50.9941 39.5849C50.9828 39.6508 50.9886 39.7185 51.0102 39.7819L51.609 41.5462C51.634 41.6164 51.6389 41.6925 51.6225 41.7653C51.6061 41.8382 51.5692 41.905 51.5165 41.958C51.4635 42.0107 51.3967 42.0473 51.3238 42.0637C51.251 42.0801 51.1749 42.0755 51.1047 42.0502L49.3407 41.4517C49.2773 41.431 49.2096 41.4261 49.144 41.437C49.078 41.448 49.0158 41.4747 48.9625 41.5148L47.4505 42.6172C47.3912 42.6578 47.3221 42.6817 47.2504 42.6866C47.1787 42.6913 47.1069 42.6769 47.0427 42.6449C46.9785 42.6126 46.9241 42.564 46.8849 42.5038C46.8457 42.4436 46.8236 42.3739 46.8204 42.3022L46.8521 40.4437C46.8463 40.3124 46.7899 40.1885 46.6945 40.0981L45.1822 39.027C45.1203 38.9818 45.0722 38.9205 45.0434 38.8493C45.0149 38.7785 45.0066 38.701 45.0198 38.6256C45.0328 38.5501 45.0668 38.4798 45.1177 38.4228C45.169 38.3655 45.2349 38.324 45.3084 38.3024L47.0724 37.767C47.1375 37.7532 47.1977 37.7227 47.2475 37.6783C47.297 37.6343 47.3345 37.5781 47.3561 37.515L47.9231 35.7507C47.9514 35.6877 47.9937 35.6321 48.047 35.5883C48.1003 35.5445 48.163 35.5137 48.2304 35.4982C48.2978 35.4829 48.3675 35.4832 48.4346 35.4996C48.5017 35.5157 48.5642 35.5474 48.6169 35.5921Z" fill="#FFB43B"/>
<path d="M46.7107 42.3022L46.7424 40.4417C46.7361 40.34 46.6914 40.2447 46.6171 40.175L45.1195 39.116C45.0403 39.0596 44.9787 38.9818 44.9415 38.892C44.9044 38.8024 44.8934 38.7039 44.9096 38.608C44.9257 38.5121 44.9683 38.4225 45.0328 38.3499C45.0973 38.2774 45.1812 38.2241 45.2745 38.1967L47.0413 37.6605C47.0877 37.6513 47.1312 37.6308 47.1675 37.6006C47.2038 37.5703 47.2323 37.5314 47.2499 37.4877L47.8189 35.7165C48.0044 35.2813 48.5859 35.3153 48.7117 35.5345L49.7773 37.0413C49.8488 37.1225 49.9481 37.1737 50.0556 37.1853H51.8927C51.9843 37.1853 52.0741 37.2106 52.1525 37.2581C52.2311 37.3057 52.2948 37.3736 52.3374 37.4548C52.38 37.5358 52.3996 37.6271 52.3941 37.7186C52.3886 37.8102 52.3581 37.8984 52.3063 37.9738L51.1612 39.4714C51.1312 39.5117 51.1117 39.5587 51.1039 39.6082C51.0964 39.6577 51.101 39.7084 51.1177 39.7557L51.7136 41.511C51.7453 41.6009 51.751 41.6977 51.73 41.7904C51.709 41.8834 51.662 41.9684 51.5946 42.0358C51.5275 42.1032 51.4426 42.1501 51.3495 42.1711C51.2568 42.1921 51.16 42.1867 51.0702 42.155L49.3056 41.5565C49.2592 41.541 49.2097 41.5372 49.1616 41.5453C49.1132 41.5534 49.0677 41.5732 49.0291 41.6032L47.5157 42.7065C47.4399 42.7592 47.3515 42.7906 47.2594 42.7972C47.1675 42.8039 47.0753 42.7854 46.9927 42.744C46.9103 42.7025 46.8406 42.6397 46.7911 42.5619C46.7413 42.4842 46.7136 42.3943 46.7107 42.3022ZM48.3414 35.5969C48.2749 35.5929 48.2086 35.6096 48.1519 35.6448C48.0951 35.6799 48.0508 35.7317 48.0246 35.7931L47.4613 37.5476C47.4333 37.6279 47.3855 37.6999 47.3224 37.7569C47.2591 37.814 47.1825 37.8537 47.0995 37.873C45.0916 38.4286 45.3171 38.3862 45.1662 38.5354C45.1264 38.5991 45.112 38.6757 45.1264 38.7494C45.1408 38.8231 45.1829 38.8888 45.2437 38.9329L46.7585 40.0057C46.8199 40.0612 46.8697 40.1283 46.9045 40.2032C46.9397 40.2784 46.9593 40.3596 46.9624 40.4423L46.931 42.3025C46.9345 42.354 46.9515 42.4038 46.9806 42.4467C47.0097 42.4897 47.0494 42.5239 47.0958 42.5464C47.1424 42.5689 47.194 42.5789 47.2458 42.5749C47.2974 42.5709 47.3469 42.5536 47.3895 42.5242L48.8981 41.4241C48.9643 41.3745 49.0415 41.3414 49.1233 41.3273C49.2048 41.3132 49.2886 41.3186 49.3678 41.3431L51.1405 41.9442C51.1917 41.9629 51.2473 41.9664 51.3006 41.9543C51.3536 41.9422 51.4022 41.9151 51.4405 41.8762C51.4789 41.8373 51.5051 41.7881 51.516 41.7348C51.5272 41.6812 51.5226 41.6259 51.503 41.575L50.9063 39.8161C50.8769 39.7335 50.8697 39.6448 50.8856 39.5584C50.9011 39.4723 50.9391 39.3916 50.9956 39.3245L52.1202 37.8557C52.2334 37.6009 52.1012 37.403 51.8927 37.403H50.034C49.9487 37.3944 49.8661 37.369 49.7909 37.3281C49.7157 37.2872 49.6495 37.2316 49.5959 37.1648L48.5194 35.6439C48.4664 35.6096 48.4042 35.5932 48.3414 35.5969Z" fill="#673737"/>
<path d="M51.2635 32.568L44.6164 31.1188C44.6164 31.1188 43.4509 33.1665 41.4032 33.9225C42.5374 31.8748 42.3167 30.6148 42.3167 30.6148L27.7626 27.4644C26.9559 27.2824 26.2529 26.7908 25.8051 26.0955C25.3573 25.4003 25.2005 24.5569 25.3685 23.7471L27.7626 12.6591C27.9445 11.852 28.4362 11.1486 29.1318 10.7006C29.8274 10.2526 30.6712 10.0958 31.4813 10.2641L55.0452 15.3675C55.8519 15.5495 56.5549 16.0411 57.0027 16.7364C57.4506 17.4316 57.6075 18.2749 57.4396 19.0847L55.0452 30.1727C54.841 30.98 54.335 31.6783 53.6317 32.1239C52.9281 32.5695 52.0805 32.7284 51.2635 32.568Z" fill="white"/>
<path d="M41.306 33.8689C42.2544 32.1571 42.2386 30.9979 42.2152 30.7058L27.7386 27.5724C26.9018 27.3873 26.1719 26.8793 25.7077 26.1589C25.2434 25.4384 25.0825 24.5638 25.2598 23.7253L27.6545 12.635C27.8394 11.798 28.3473 11.0679 29.0678 10.6037C29.7884 10.1394 30.6631 9.97844 31.5016 10.1559L55.0678 15.2598C55.9042 15.4453 56.6337 15.9535 57.0976 16.6739C57.5613 17.3943 57.722 18.2687 57.5446 19.1069L55.151 30.1969C54.9385 31.0311 54.4149 31.7524 53.688 32.2132C52.9608 32.674 52.085 32.8393 51.24 32.6757L44.671 31.2435C44.4423 31.6179 43.3134 33.335 41.4419 34.0259C41.4206 34.034 41.3976 34.0351 41.3757 34.0296C41.3538 34.0242 41.334 34.0121 41.3193 33.9948C41.3043 33.9778 41.2951 33.9565 41.2928 33.934C41.2905 33.9116 41.2951 33.8888 41.306 33.8689ZM30.8294 10.3082C30.1392 10.3071 29.4694 10.5419 28.931 10.9737C28.3926 11.4056 28.018 12.0085 27.8694 12.6825L25.4755 23.7705C25.3103 24.5522 25.4603 25.3675 25.893 26.0392C26.3257 26.7108 27.0061 27.1845 27.7861 27.3573L42.3382 30.5071C42.3598 30.5115 42.3797 30.5223 42.3952 30.5381C42.4105 30.5539 42.4209 30.574 42.4246 30.5958C42.4335 30.6462 42.621 31.8071 41.6436 33.7062C43.458 32.8998 44.5091 31.084 44.5201 31.065C44.5316 31.0445 44.5495 31.0282 44.5708 31.0186C44.5924 31.009 44.6163 31.0066 44.6393 31.0117L51.2855 32.4606C52.0743 32.613 52.8917 32.4583 53.5702 32.028C54.249 31.5979 54.7375 30.9247 54.9365 30.1462L57.3295 19.0623C57.4962 18.2805 57.3468 17.4645 56.9136 16.7925C56.4807 16.1204 55.7996 15.647 55.0188 15.4755C30.8692 10.1259 31.3473 10.3082 30.8294 10.3082Z" fill="#673737"/>
<path d="M51.0729 20.0766L32.9986 16.1682C32.971 16.161 32.9473 16.1434 32.9324 16.1192C32.9174 16.095 32.9125 16.0659 32.9185 16.0381C32.9246 16.0102 32.9413 15.9859 32.9649 15.97C32.9882 15.954 33.0173 15.9479 33.0453 15.9527L51.0962 19.8592C51.1222 19.8655 51.1449 19.8811 51.1605 19.9029C51.1757 19.9248 51.1826 19.9515 51.1798 19.9781C51.1769 20.0047 51.1645 20.0293 51.1449 20.0475C51.1253 20.0656 51.0997 20.0759 51.0729 20.0766Z" fill="#673737"/>
<path d="M45.9077 22.0926L36.0558 19.9795C36.0273 19.9734 36.0023 19.9561 35.9864 19.9316C35.9706 19.907 35.9651 19.8771 35.9712 19.8485C35.9772 19.8199 35.9945 19.7949 36.0192 19.779C36.0437 19.7631 36.0737 19.7577 36.1022 19.7638L45.9308 21.8746C45.9573 21.8804 45.9806 21.8958 45.9964 21.9178C46.0123 21.9398 46.0195 21.9669 46.0166 21.9939C46.0137 22.0209 46.001 22.0458 45.9812 22.0641C45.961 22.0823 45.9348 22.0924 45.9077 22.0926Z" fill="#673737"/>
<path d="M49.6884 26.2833L31.9609 22.4687C31.9335 22.4615 31.9099 22.4439 31.8951 22.4198C31.8803 22.3956 31.8754 22.3666 31.8814 22.3389C31.8873 22.3112 31.9038 22.2869 31.9272 22.2709C31.9506 22.255 31.9793 22.2487 32.0073 22.2533L49.7118 26.0653C49.7383 26.0711 49.7616 26.0865 49.7774 26.1086C49.7933 26.1306 49.8005 26.1577 49.7976 26.1847C49.7947 26.2117 49.782 26.2367 49.7619 26.2549C49.7417 26.2731 49.7155 26.2832 49.6884 26.2833Z" fill="#673737"/>
<path d="M32.6448 30.7724C32.5604 30.5335 32.4381 30.3098 32.2822 30.11C32.4784 29.649 32.5276 29.1387 32.4234 28.6487C32.3191 28.1587 32.0665 27.7127 31.6999 27.3714C30.5442 26.3418 28.7174 26.8282 27.6293 27.0592C27.8284 25.9579 27.6764 24.8219 27.195 23.8117C26.1887 21.7991 24.1108 22.0097 23.8557 23.3705C23.7623 23.9358 24.1079 24.4087 24.2338 24.9438C24.3118 25.3277 24.2982 25.7244 24.1942 26.1021C24.0903 26.4797 23.8988 26.8275 23.6353 27.1173C22.9212 27.9041 22.0063 28.4815 20.9889 28.7877C20.9739 29.2258 19.6249 32.492 22.0917 35.7815C22.9421 36.7895 24.5489 36.6951 25.7458 36.5689C26.8625 36.4269 27.9601 36.162 29.0183 35.7781C30.2467 36.7236 32.4856 35.0647 31.8338 33.4862C32.2563 33.1927 32.5668 32.7642 32.7142 32.2711C32.8614 31.7781 32.8369 31.2497 32.6448 30.7724Z" fill="white"/>
<path d="M32.4071 30.0909C32.5946 29.6137 32.6344 29.091 32.5209 28.5909C32.4077 28.0908 32.1468 27.6363 31.7718 27.2864C31.18 26.7591 30.2563 26.5488 29.1997 26.6617C28.7182 26.7224 28.2401 26.8072 27.7672 26.9157C27.9203 25.8404 27.7557 24.7437 27.2937 23.7607C26.2393 21.6502 24.0217 21.8827 23.747 23.3509C23.6465 23.9557 24.0036 24.4453 24.1257 24.966C24.1997 25.3332 24.1865 25.7127 24.0869 26.0738C23.9874 26.435 23.8043 26.7676 23.5526 27.045C22.8506 27.815 21.9535 28.3807 20.9562 28.6823C20.9283 28.6911 20.905 28.7106 20.8915 28.7365C20.8779 28.7624 20.8752 28.7927 20.884 28.8206C20.8927 28.8485 20.9122 28.8718 20.9381 28.8853C20.964 28.8989 20.9943 28.9016 21.0222 28.8929C22.0595 28.5826 22.9918 27.9937 23.7176 27.1902C23.9925 26.8869 24.1921 26.5232 24.3004 26.1284C24.4088 25.7337 24.4227 25.319 24.3411 24.9179C24.2144 24.3779 23.8763 23.9162 23.9644 23.3883C24.1974 22.1447 26.1359 21.9374 27.0961 23.8572C27.6433 25.0062 27.7559 26.3145 27.4129 27.5401C27.3629 27.7294 27.3598 27.928 27.404 28.1187C27.6441 29.1473 27.5792 30.2236 27.2173 31.2159C26.8553 32.208 26.2121 33.0735 25.3661 33.7059C25.3434 33.7238 25.3286 33.7497 25.3249 33.7782C25.3211 33.8067 25.3286 33.8358 25.3459 33.8588C25.3632 33.8819 25.3888 33.8971 25.4173 33.9018C25.4458 33.9061 25.4748 33.8992 25.4983 33.8825C26.3759 33.2281 27.044 32.3322 27.4211 31.3044C27.7981 30.2766 27.8678 29.1613 27.6217 28.0945C27.5871 27.9383 27.5857 27.7766 27.6177 27.6199C27.6607 27.4638 27.6969 27.3072 27.7263 27.1502C28.2204 27.0345 28.7203 26.9447 29.2239 26.8812C30.2195 26.7749 31.0829 26.9676 31.6255 27.4508C32.9503 28.6316 32.5183 30.9872 30.3517 31.5787C29.3373 31.8235 28.2464 31.7083 28.2205 30.6776C28.2193 30.4279 28.2804 30.1818 28.398 29.9616C28.5157 29.7413 28.6862 29.5538 28.8944 29.4159C29.3273 29.1301 29.8065 28.9217 30.3108 28.8001C30.3388 28.7927 30.3628 28.7745 30.3775 28.7496C30.3922 28.7246 30.3965 28.6948 30.3895 28.6667C30.3825 28.6386 30.3646 28.6144 30.3399 28.5993C30.3151 28.5842 30.2854 28.5795 30.2572 28.5861C29.7272 28.7143 29.2237 28.9339 28.7691 29.235C27.9284 29.8052 27.69 31.0747 28.4725 31.6361C27.783 32.2584 27.872 33.3082 28.7098 33.8825C28.4891 34.1921 28.3827 34.5688 28.4088 34.9481C28.4519 35.2433 28.5881 35.5169 28.7976 35.7294C27.0342 36.3535 25.0375 36.7573 23.0261 36.3688C22.9976 36.3639 22.9684 36.3702 22.9446 36.3866C22.9209 36.403 22.9045 36.4281 22.899 36.4566C22.8936 36.4848 22.8994 36.5142 22.9154 36.5384C22.9313 36.5626 22.9561 36.5793 22.9843 36.5853C25.0003 36.975 27.0414 36.5995 28.9894 35.8941C30.2693 36.8195 32.5606 35.2029 31.9662 33.5259C32.2222 33.3304 32.4371 33.0861 32.5978 32.8071C32.7588 32.5283 32.863 32.2201 32.9039 31.9005C32.9448 31.581 32.9221 31.2566 32.8368 30.9459C32.7516 30.6353 32.6056 30.3447 32.4071 30.0909ZM29.4073 35.8665C29.2054 35.7928 29.0268 35.6666 28.8901 35.5007C28.7533 35.3348 28.6634 35.1355 28.6297 34.9233C28.6075 34.5909 28.7035 34.2618 28.9007 33.9933C29.1487 34.1218 29.4238 34.1892 29.7031 34.1898C30.4363 34.2652 31.1726 34.0774 31.7799 33.6595C32.1632 34.9201 30.6408 36.2659 29.4073 35.8665ZM32.037 33.1792C31.7292 33.4689 31.3628 33.6895 30.9626 33.8257C30.5624 33.9622 30.1377 34.0112 29.7169 33.9697C28.4618 33.9697 27.6977 32.547 28.6781 31.7521C29.2364 31.9447 29.8408 31.9588 30.4075 31.7924C30.809 31.695 31.1854 31.5144 31.5125 31.2621C31.8396 31.0099 32.1102 30.6917 32.3063 30.3282C32.6041 30.7595 32.7403 31.282 32.6908 31.8038C32.6413 32.3255 32.4091 32.8131 32.0356 33.1806L32.037 33.1792Z" fill="#673737"/>
<path d="M23.2088 36.8365C23.2048 36.8077 23.172 36.8446 21.9759 31.5949C21.6438 30.1385 21.3573 28.8805 21.2847 28.6026C21.2777 28.5751 21.2603 28.5514 21.2362 28.5365C21.2121 28.5216 21.1831 28.5166 21.1554 28.5225C20.554 28.6489 19.9441 28.8105 19.3606 28.9632C19.3295 28.9695 16.2162 29.6077 16.2168 29.9637C16.4696 32.6424 17.0417 35.2813 17.9209 37.8243C17.9368 37.8981 17.9688 37.9672 18.0146 38.0271C18.0604 38.087 18.1188 38.1362 18.1857 38.1711C18.2526 38.2056 18.3264 38.2252 18.4017 38.2284C18.477 38.2313 18.5521 38.2177 18.6216 38.1884C20.1943 37.795 21.7118 37.382 23.1311 36.9583C23.1565 36.9508 23.1783 36.9341 23.1926 36.912C23.2069 36.8895 23.2127 36.8627 23.2088 36.8365Z" fill="#673737"/>
<path d="M54.3493 34.4628C55.2404 33.8292 56.1764 33.1204 57.2109 32.2927C57.234 32.2743 57.263 32.2659 57.2921 32.2691C57.3215 32.2725 57.348 32.2872 57.3664 32.31C57.3846 32.333 57.3929 32.3624 57.3898 32.3915C57.3866 32.4206 57.3719 32.4471 57.3489 32.4655C56.3121 33.2958 55.3715 34.008 54.4769 34.6431C54.453 34.6601 54.4234 34.6667 54.3946 34.6618C54.3658 34.6569 54.3398 34.6405 54.3231 34.6166C54.3061 34.5927 54.2992 34.5633 54.3044 34.5342C54.3093 34.5054 54.3254 34.4798 54.3493 34.4628Z" fill="#673737"/>
<path d="M55.012 37.498C54.9838 37.4974 54.9567 37.4856 54.9366 37.4657C54.9164 37.4456 54.9049 37.4185 54.9043 37.3903C54.9037 37.3618 54.9141 37.3344 54.9331 37.3134C54.9524 37.2924 54.9789 37.2797 55.0071 37.2777C56.4592 37.2094 57.9064 37.0625 59.3427 36.8376C59.3712 36.8339 59.4003 36.8414 59.4233 36.8586C59.4464 36.8759 59.4619 36.9018 59.4662 36.9304C59.4706 36.9589 59.4636 36.9879 59.4467 37.0113C59.4299 37.0349 59.4046 37.0507 59.3761 37.0556C57.9315 37.2892 56.4742 37.4369 55.012 37.498Z" fill="#673737"/>
<path d="M57.5011 41.4358C56.6037 41.2823 55.6974 41.1876 54.7879 41.1521C54.7594 41.1501 54.7329 41.1372 54.7139 41.1159C54.6949 41.0945 54.6845 41.0669 54.6856 41.0384C54.6865 41.0099 54.6986 40.9828 54.719 40.9629C54.7395 40.9431 54.7668 40.9318 54.7954 40.9318C55.7089 40.9641 56.619 41.0594 57.5196 41.2169C57.5466 41.2218 57.5708 41.2365 57.5875 41.2584C57.6042 41.28 57.6123 41.3074 57.61 41.3347C57.6077 41.3621 57.5953 41.3877 57.5751 41.4064C57.555 41.4252 57.5285 41.4355 57.5011 41.4358Z" fill="#673737"/>
<path d="M9.489 41.0689C8.51441 40.3777 7.5594 39.6445 6.6473 38.8902C6.62481 38.8715 6.61064 38.8447 6.60791 38.8156C6.60517 38.7865 6.61413 38.7577 6.63276 38.735C6.65139 38.7125 6.67821 38.6984 6.70729 38.6958C6.73638 38.6929 6.76536 38.7018 6.78785 38.7205C9.41729 40.897 9.78305 40.8451 9.64279 41.043C9.62577 41.0666 9.60005 41.0827 9.57125 41.0876C9.54242 41.0925 9.51285 41.0859 9.489 41.0689Z" fill="#673737"/>
<path d="M8.98808 43.9245C7.52548 43.8637 6.06774 43.716 4.6226 43.4824C4.59416 43.4775 4.56881 43.4616 4.55197 43.438C4.53514 43.4147 4.52815 43.3856 4.53252 43.3571C4.5369 43.3286 4.55227 43.3027 4.57535 43.2854C4.59844 43.2681 4.62739 43.2606 4.656 43.2644C8.62376 43.8692 9.10876 43.548 9.09666 43.8191C9.09562 43.8473 9.08376 43.8738 9.06354 43.8936C9.04332 43.9132 9.01628 43.9242 8.98808 43.9245Z" fill="#673737"/>
<path d="M6.65446 48.3666C6.63056 48.3663 6.60738 48.3585 6.58837 48.3441C6.56936 48.3294 6.55556 48.3092 6.54908 48.2862C6.54258 48.2632 6.54373 48.2387 6.55234 48.2165C6.56095 48.194 6.57659 48.1753 6.59686 48.1626C7.36643 47.6877 8.17214 47.2745 9.00656 46.926C9.03349 46.9145 9.06387 46.9142 9.091 46.9251C9.11813 46.9361 9.13982 46.9574 9.15128 46.9842C9.16274 47.0112 9.16303 47.0415 9.15209 47.0688C9.14114 47.0959 9.11989 47.1175 9.09296 47.129C8.25632 47.4928 7.44206 47.906 6.65446 48.3666Z" fill="#673737"/>
</svg>
