<svg width="24" height="26" viewBox="0 0 24 26" fill="none" xmlns="http://www.w3.org/2000/svg">
<mask id="mask0_4994_36572" style="mask-type:luminance" maskUnits="userSpaceOnUse" x="4" y="15" width="16" height="9">
<path fill-rule="evenodd" clip-rule="evenodd" d="M4 15.6055H19.8399V23.3001H4V15.6055Z" fill="white"/>
</mask>
<g mask="url(#mask0_4994_36572)">
<path fill-rule="evenodd" clip-rule="evenodd" d="M11.921 17.1707C7.66 17.1707 5.5 17.9345 5.5 19.4423C5.5 20.9637 7.66 21.7349 11.921 21.7349C16.181 21.7349 18.34 20.971 18.34 19.4632C18.34 17.9418 16.181 17.1707 11.921 17.1707M11.921 23.3001C9.962 23.3001 4 23.3001 4 19.4423C4 16.003 8.521 15.6055 11.921 15.6055C13.88 15.6055 19.84 15.6055 19.84 19.4632C19.84 22.9025 15.32 23.3001 11.921 23.3001" fill="#868A91"/>
</g>
<mask id="mask1_4994_36572" style="mask-type:luminance" maskUnits="userSpaceOnUse" x="6" y="2" width="12" height="12">
<path fill-rule="evenodd" clip-rule="evenodd" d="M6.60938 2.56641H17.2294V13.6467H6.60938V2.56641Z" fill="white"/>
</mask>
<g mask="url(#mask1_4994_36572)">
<path fill-rule="evenodd" clip-rule="evenodd" d="M11.9201 4.05673C9.77913 4.05673 8.03713 5.87342 8.03713 8.10751C8.03013 10.3343 9.75913 12.1499 11.8911 12.1583L11.9201 12.9033V12.1583C14.0601 12.1583 15.8011 10.3406 15.8011 8.10751C15.8011 5.87342 14.0601 4.05673 11.9201 4.05673M11.9204 13.6471H11.8884C8.96641 13.6377 6.59941 11.1511 6.60941 8.10415C6.60941 5.05197 8.99141 2.56641 11.9204 2.56641C14.8484 2.56641 17.2294 5.05197 17.2294 8.10728C17.2294 11.1626 14.8484 13.6471 11.9204 13.6471" fill="#868A91"/>
</g>
</svg>
