<svg width="20" height="23" viewBox="0 0 20 23" fill="none" xmlns="http://www.w3.org/2000/svg">
<mask id="mask0_4994_36633" style="mask-type:luminance" maskUnits="userSpaceOnUse" x="0" y="0" width="20" height="23">
<path fill-rule="evenodd" clip-rule="evenodd" d="M0 0.566406H19.2849V22.1883H0V0.566406Z" fill="white"/>
</mask>
<g mask="url(#mask0_4994_36633)">
<path fill-rule="evenodd" clip-rule="evenodd" d="M5.20164 16.6777C5.43064 16.6777 5.65964 16.708 5.88364 16.7706C6.55964 16.9605 7.14664 17.4321 7.49464 18.0655C7.72064 18.4631 7.84564 18.9275 7.84964 19.4012C7.84964 20.0795 8.37164 20.6231 9.01364 20.6231H10.2666C10.9056 20.6231 11.4276 20.0826 11.4306 19.4158C11.4266 18.6791 11.7026 17.9789 12.2076 17.452C12.7056 16.9323 13.4016 16.6203 14.0976 16.6412C14.5536 16.6527 14.9926 16.781 15.3796 17.0106C15.9366 17.3435 16.6476 17.1452 16.9696 16.5713L17.6336 15.4161C17.7816 15.1501 17.8246 14.8161 17.7456 14.5083C17.6676 14.2005 17.4716 13.9334 17.2076 13.7758C16.5896 13.4043 16.1486 12.8054 15.9656 12.0875C15.7846 11.3831 15.8836 10.6141 16.2366 9.98067C16.4666 9.56328 16.8036 9.21162 17.2076 8.96954C17.7496 8.63875 17.9396 7.89893 17.6246 7.32293C17.6116 7.29997 17.5996 7.27597 17.5896 7.25093L17.0036 6.19075C16.6846 5.61162 15.9746 5.41232 15.4176 5.7431C14.8156 6.11458 14.0996 6.22102 13.4116 6.03215C12.7246 5.84641 12.1486 5.39249 11.7896 4.7518C11.5596 4.3511 11.4346 3.88467 11.4306 3.40988C11.4396 3.05302 11.3196 2.73267 11.1016 2.49788C10.8846 2.26415 10.5796 2.13162 10.2666 2.13162H9.01364C8.70364 2.13162 8.41364 2.25788 8.19464 2.48536C7.97664 2.71388 7.85764 3.01754 7.85964 3.34102C7.83864 4.86658 6.64364 6.09475 5.19664 6.09475C4.73264 6.08954 4.28564 5.9591 3.89764 5.71702C3.35264 5.39354 2.64064 5.59284 2.32164 6.17197L1.64464 7.33336C1.33464 7.89475 1.52464 8.63667 2.07664 8.97162C2.89564 9.46623 3.40664 10.3887 3.40664 11.3779C3.40664 12.3671 2.89564 13.2885 2.07464 13.7841C1.52564 14.116 1.33564 14.8537 1.65364 15.4276L2.28464 16.5629C2.44064 16.8561 2.69564 17.068 2.99064 17.1546C3.28464 17.2401 3.60864 17.2036 3.87864 17.0471C4.27564 16.804 4.73764 16.6777 5.20164 16.6777ZM10.2673 22.1883H9.01432C7.54532 22.1883 6.35032 20.9424 6.35032 19.4095C6.34832 19.2207 6.29632 19.0245 6.19932 18.8544C6.04232 18.5685 5.78832 18.364 5.49532 18.2826C5.20432 18.2012 4.88532 18.2461 4.62332 18.4047C3.99532 18.7699 3.25632 18.8586 2.58032 18.6603C1.90532 18.461 1.32232 17.9768 0.98032 17.3351L0.35532 16.2113C-0.37568 14.8881 0.0593197 13.1925 1.32532 12.4287C1.68432 12.2127 1.90732 11.8099 1.90732 11.3779C1.90732 10.9459 1.68432 10.5421 1.32532 10.3261C0.0583198 9.55806 -0.37568 7.85823 0.35432 6.5351L1.03232 5.37371C1.75332 4.06519 3.38332 3.60397 4.65432 4.36571C4.82732 4.47319 5.01532 4.52745 5.20632 4.52954C5.82932 4.52954 6.35032 3.99319 6.36032 3.33371C6.35632 2.60641 6.63132 1.90832 7.13232 1.38136C7.63532 0.85545 8.30332 0.566406 9.01432 0.566406H10.2673C10.9833 0.566406 11.6793 0.873189 12.1783 1.40641C12.6763 1.94275 12.9513 2.67841 12.9303 3.42449C12.9323 3.59249 12.9853 3.78658 13.0813 3.95667C13.2403 4.23841 13.4913 4.43667 13.7893 4.51806C14.0873 4.59528 14.3993 4.55354 14.6643 4.38971C15.9443 3.62693 17.5733 4.08397 18.3043 5.40919L18.9273 6.5351C18.9433 6.56536 18.9573 6.59458 18.9693 6.62484C19.6313 7.93023 19.1893 9.57371 17.9593 10.324C17.7803 10.4315 17.6353 10.5817 17.5353 10.7633C17.3803 11.044 17.3373 11.3779 17.4153 11.6847C17.4953 11.9977 17.6863 12.2575 17.9553 12.4182C18.5623 12.7824 19.0153 13.396 19.1963 14.1045C19.3773 14.812 19.2783 15.58 18.9253 16.2134L18.2613 17.3675C17.5303 18.6781 15.9013 19.132 14.6343 18.3681C14.4653 18.2669 14.2703 18.2116 14.0763 18.2064H14.0703C13.7813 18.2064 13.4843 18.3348 13.2683 18.5591C13.0493 18.7876 12.9293 19.0923 12.9313 19.4158C12.9243 20.9487 11.7293 22.1883 10.2673 22.1883Z" fill="#868A91"/>
</g>
<path fill-rule="evenodd" clip-rule="evenodd" d="M9.64381 9.40897C8.60381 9.40897 7.75781 10.2928 7.75781 11.378C7.75781 12.4632 8.60381 13.345 9.64381 13.345C10.6838 13.345 11.5298 12.4632 11.5298 11.378C11.5298 10.2928 10.6838 9.40897 9.64381 9.40897ZM9.64381 14.9102C7.77681 14.9102 6.25781 13.3262 6.25781 11.378C6.25781 9.42984 7.77681 7.84375 9.64381 7.84375C11.5108 7.84375 13.0298 9.42984 13.0298 11.378C13.0298 13.3262 11.5108 14.9102 9.64381 14.9102Z" fill="#868A91"/>
</svg>
