<svg width="20" height="20" viewBox="0 0 20 20" fill="none" xmlns="http://www.w3.org/2000/svg">
<path d="M10 1.875C8.39303 1.875 6.82214 2.35152 5.486 3.24431C4.14985 4.1371 3.10844 5.40605 2.49348 6.8907C1.87852 8.37535 1.71762 10.009 2.03112 11.5851C2.34463 13.1612 3.11846 14.6089 4.25476 15.7452C5.39106 16.8815 6.8388 17.6554 8.4149 17.9689C9.99099 18.2824 11.6247 18.1215 13.1093 17.5065C14.594 16.8916 15.8629 15.8502 16.7557 14.514C17.6485 13.1779 18.125 11.607 18.125 10C18.125 7.84512 17.269 5.77849 15.7452 4.25476C14.2215 2.73102 12.1549 1.875 10 1.875ZM14.0625 8.20625L10 12.525C9.85395 12.6791 9.67804 12.8017 9.48301 12.8856C9.28798 12.9694 9.07791 13.0126 8.86563 13.0125H8.8125C8.59394 13.0071 8.37892 12.956 8.18137 12.8623C7.98381 12.7687 7.80811 12.6346 7.66563 12.4688L5.90313 10.4187C5.83867 10.3592 5.78749 10.2866 5.75292 10.2059C5.71835 10.1252 5.70117 10.0382 5.70249 9.95039C5.70382 9.86261 5.72363 9.7761 5.76062 9.69648C5.79761 9.61686 5.85096 9.54593 5.91719 9.48831C5.98343 9.43069 6.06106 9.38767 6.14502 9.36205C6.22899 9.33643 6.31742 9.32878 6.40454 9.33961C6.49166 9.35045 6.57552 9.37951 6.65065 9.42491C6.72579 9.47031 6.79052 9.53104 6.84063 9.60312L8.60313 11.6531C8.63178 11.6866 8.66719 11.7137 8.70705 11.7326C8.7469 11.7514 8.7903 11.7616 8.83438 11.7625C8.87805 11.7636 8.92147 11.7556 8.96183 11.7389C9.0022 11.7222 9.03863 11.6973 9.06875 11.6656L13.1625 7.34688C13.2782 7.23455 13.4329 7.17131 13.5942 7.17037C13.7554 7.16944 13.9108 7.23088 14.0279 7.34185C14.1449 7.45282 14.2145 7.60473 14.2221 7.76583C14.2297 7.92692 14.1748 8.08473 14.0688 8.20625H14.0625Z" fill="#D8DCE2"/>
</svg>
