<svg width="90" height="56" viewBox="0 0 90 56" fill="none" xmlns="http://www.w3.org/2000/svg">
<path d="M20.0439 55.3354C30.8051 51.1075 41.7123 47.649 53.0959 45.535C50.5575 29.1855 43.9126 13.7472 33.7834 0.664658C22.5898 4.07544 11.5403 7.77498 0.539062 11.6669C4.81471 14.02 18.8425 44.38 20.0439 55.3354Z" fill="white"/>
<path d="M20.0446 55.5184C19.9996 55.5184 19.9562 55.5016 19.9227 55.4716C19.8892 55.4417 19.868 55.4005 19.863 55.3556C18.6565 44.3515 4.55612 14.0859 0.451756 11.8259C0.420962 11.809 0.395737 11.7834 0.379109 11.7525C0.362481 11.7214 0.355161 11.6863 0.35803 11.6513C0.360894 11.6162 0.37383 11.5828 0.395274 11.5549C0.416717 11.527 0.445757 11.5059 0.4789 11.4941C12.4452 7.26154 23.322 3.66402 33.7308 0.490046C33.7661 0.479282 33.804 0.47947 33.8393 0.490655C33.8745 0.501887 33.9056 0.523509 33.9283 0.552759C44.0693 13.6639 50.7257 29.1293 53.2768 45.507C53.2843 45.5538 53.273 45.602 53.2454 45.6403C53.2178 45.6792 53.1766 45.7059 53.1298 45.7143C34.7697 49.1232 20.6052 55.5184 20.0446 55.5184ZM0.944092 11.7169C5.52254 15.2316 18.8133 43.744 20.1985 55.079C31.9552 50.4729 42.6523 47.3018 52.8888 45.3881C50.3335 29.1775 43.7404 13.8702 33.7167 0.876146C23.4493 4.00707 12.7241 7.55451 0.944092 11.7169Z" fill="#673737"/>
<path d="M9.95537 14.6349C9.91208 14.6347 9.87024 14.6192 9.83734 14.5911C9.80444 14.5629 9.78263 14.5241 9.77575 14.4813C9.76887 14.4386 9.77744 14.3948 9.7999 14.3578C9.82232 14.3208 9.85718 14.2929 9.89828 14.2792L29.8828 7.74545C29.9283 7.73239 29.977 7.73745 30.0188 7.75959C30.0606 7.78172 30.0921 7.81925 30.1068 7.86418C30.1215 7.90916 30.1182 7.95806 30.0975 8.0006C30.0768 8.04315 30.0405 8.076 29.9961 8.09224L9.95537 14.6349Z" fill="#673737"/>
<path d="M12.1652 18.9588C12.1213 18.9588 12.0788 18.9431 12.0456 18.9143C12.0124 18.8856 11.9906 18.846 11.9843 18.8025C11.978 18.759 11.9876 18.7148 12.0112 18.6778C12.0349 18.6409 12.0711 18.6136 12.1132 18.6012L23.1145 15.3346C23.1601 15.3231 23.2084 15.3297 23.2493 15.353C23.2902 15.3763 23.3205 15.4145 23.3339 15.4596C23.3473 15.5047 23.3428 15.5532 23.3212 15.5951C23.2997 15.6369 23.2629 15.6688 23.2184 15.6842L12.1652 18.9588Z" fill="#673737"/>
<path d="M14.5675 24.2434C14.5236 24.2434 14.4812 24.2277 14.4479 24.199C14.4147 24.1702 14.393 24.1305 14.3867 24.0871C14.3803 24.0437 14.3899 23.9994 14.4136 23.9624C14.4373 23.9255 14.4735 23.8983 14.5156 23.8858C31.7052 18.7874 31.5788 18.3962 31.6996 18.7678C31.707 18.7905 31.7099 18.8146 31.708 18.8385C31.7062 18.8623 31.6996 18.8856 31.6888 18.907C31.6779 18.9283 31.6629 18.9473 31.6447 18.9628C31.6265 18.9784 31.6054 18.9902 31.5826 18.9976C26.0101 20.8078 14.7641 24.2434 14.5675 24.2434Z" fill="#673737"/>
<path d="M17.3543 29.3357C17.3112 29.3357 17.2695 29.3203 17.2366 29.2926C17.2037 29.265 17.1817 29.2262 17.1745 29.1841C17.1672 29.1415 17.1753 29.0975 17.1971 29.0605C17.219 29.0235 17.2533 28.9955 17.294 28.981C21.1381 27.6355 35.9349 22.5432 39.7771 21.1982C39.8226 21.183 39.8722 21.1863 39.9152 21.2074C39.9583 21.2285 39.9913 21.2657 40.0072 21.3109C40.023 21.3562 40.0204 21.4058 40 21.4491C39.9796 21.4925 39.9429 21.526 39.8979 21.5426L17.3543 29.3357Z" fill="#673737"/>
<path d="M19.1706 33.9759C24.8334 32.1357 29.3336 30.8132 34.7704 28.5523C34.7925 28.5429 34.8163 28.5382 34.8402 28.5382C34.8642 28.5382 34.8879 28.5429 34.9101 28.5518C34.9322 28.5612 34.9524 28.5747 34.9694 28.5916C34.9864 28.6084 34.9999 28.6285 35.0091 28.6505C35.0183 28.6725 35.0231 28.6964 35.0231 28.7203C35.0232 28.7441 35.0185 28.768 35.0094 28.7905C35.0002 28.8125 34.9868 28.8326 34.9699 28.8494C34.953 28.8668 34.9329 28.8799 34.9108 28.8892C29.4661 31.1539 24.9705 32.476 19.2838 34.3227C19.2384 34.3358 19.1896 34.3307 19.1478 34.3087C19.106 34.2867 19.0745 34.2488 19.0598 34.2038C19.0451 34.1589 19.0485 34.1102 19.0691 34.0676C19.0898 34.0251 19.1261 33.9923 19.1706 33.9759Z" fill="#673737"/>
<path d="M20.8134 39.7127C20.7697 39.7127 20.7274 39.6972 20.6942 39.6687C20.6611 39.6401 20.6393 39.6003 20.6329 39.5573C20.6264 39.5138 20.6357 39.4698 20.659 39.4328C20.6824 39.3958 20.7182 39.3682 20.7601 39.3556C25.3764 37.9385 30.055 36.3056 35.0636 34.3634C35.1084 34.3475 35.1578 34.3494 35.2011 34.369C35.2445 34.3887 35.2784 34.4247 35.2956 34.4692C35.3129 34.5136 35.3121 34.5628 35.2934 34.6068C35.2746 34.6508 35.2395 34.6854 35.1955 34.7036C28.2635 37.3918 21.0348 39.7127 20.8134 39.7127Z" fill="#673737"/>
<path d="M22.8167 44.8354C27.3834 43.1557 31.5037 41.7559 35.4133 40.5565C35.4362 40.5494 35.4603 40.5471 35.4842 40.549C35.508 40.5513 35.5312 40.5583 35.5524 40.5696C35.5735 40.5808 35.5923 40.5962 35.6076 40.6145C35.6228 40.6332 35.6342 40.6543 35.6413 40.6772C35.7779 41.1237 35.185 40.6772 22.943 45.178C22.8976 45.1948 22.8474 45.1929 22.8034 45.1723C22.7594 45.1522 22.7253 45.1152 22.7086 45.0699C22.6918 45.0245 22.6938 44.9744 22.714 44.9304C22.7343 44.8864 22.7712 44.8522 22.8167 44.8354Z" fill="#673737"/>
<path d="M43.3445 40.3463C48.1204 40.3463 51.9917 36.2813 51.9917 31.2667C51.9917 26.2521 48.1204 22.187 43.3445 22.187C38.5687 22.187 34.6973 26.2521 34.6973 31.2667C34.6973 36.2813 38.5687 40.3463 43.3445 40.3463Z" fill="#FFB43B"/>
<path d="M43.3439 40.5288C38.4767 40.5288 34.5137 36.3739 34.5137 31.2667C34.5137 26.1594 38.4748 22.0045 43.3439 22.0045C48.213 22.0045 52.1737 26.1594 52.1737 31.2667C52.1737 36.3739 48.2125 40.5288 43.3439 40.5288ZM43.3439 22.3704C38.6761 22.3704 34.8787 26.362 34.8787 31.2676C34.8787 36.1732 38.6761 40.1652 43.3439 40.1652C48.0117 40.1652 51.8086 36.1736 51.8086 31.2676C51.8086 26.3616 48.0113 22.3695 43.3439 22.3695V22.3704Z" fill="#673737"/>
<path d="M53.591 7.21334C50.6566 10.1528 48.1621 14.8417 46.4942 18.2638C44.7537 21.8313 42.7188 25.8786 41.8076 29.7087C40.4855 28.8663 34.0702 27.8699 33.5746 27.9144C33.5263 27.9182 33.4815 27.941 33.4501 27.9778C33.4186 28.0145 33.403 28.0623 33.4068 28.1109C33.4106 28.1591 33.4334 28.2036 33.4702 28.2354C33.5071 28.2668 33.5548 28.2822 33.6031 28.2785C34.3566 28.2317 37.145 30.7991 37.8755 31.4506C38.8759 32.373 39.9369 33.2276 41.0514 34.0082C42.2907 35.0509 43.6481 35.9443 45.0958 36.6707C45.1201 36.6814 45.1468 36.6866 45.1735 36.6856C45.2002 36.6852 45.2264 36.6786 45.2503 36.6664C45.2741 36.6547 45.2952 36.6379 45.312 36.6168C45.3284 36.5958 45.3406 36.5714 45.3467 36.5457C48.8487 21.8936 53.6771 7.657 53.854 7.46652C53.8877 7.43166 53.9059 7.38486 53.905 7.33647C53.904 7.28808 53.8839 7.24202 53.8493 7.20842C53.8142 7.17487 53.7674 7.15652 53.7192 7.15741C53.6705 7.15835 53.6246 7.17847 53.591 7.21334Z" fill="#673737"/>
<path d="M68.6157 29.0933C72.6401 27.4382 74.3478 22.317 72.4299 17.6551C70.5125 12.9932 65.6959 10.5558 61.6715 12.2111C57.6472 13.8664 55.9395 18.9875 57.8573 23.6494C59.7747 28.3112 64.5919 30.7486 68.6157 29.0933Z" fill="#FFE55D"/>
<path d="M72.5994 17.5856C70.4213 12.2911 64.4904 9.77001 60.204 12.812L57.0052 14.4781C53.308 16.227 51.8338 21.0146 53.6473 25.3769C55.2773 29.382 59.4584 32.0281 63.2881 30.9114C67.6119 29.6478 68.4707 29.367 68.6673 29.2819C73.0875 27.3589 74.4363 22.0466 72.5994 17.5856ZM68.547 28.9248C64.6223 30.5389 59.903 28.1414 58.0268 23.5802C56.1506 19.0191 57.8167 13.9942 61.7413 12.3796C65.8289 10.699 70.4588 13.3423 72.2615 17.7246C74.1377 22.2862 72.4707 27.3107 68.547 28.9248Z" fill="#673737"/>
<path d="M81.5384 8.25511C79.6884 9.27581 79.4651 10.1566 76.3482 12.1947C73.8997 13.5553 71.2831 14.5893 68.5659 15.2704C67.9186 15.408 67.2578 15.4726 66.5961 15.4628C65.8276 15.416 65.1027 15.211 64.3384 15.5096C62.2118 16.3426 61.4078 19.2564 62.4664 21.9469C63.525 24.6374 66.1706 26.0911 68.2794 25.2136C69.5318 24.6927 70.1454 23.2812 71.2578 22.5235C72.3955 21.7563 73.6212 21.1278 74.9082 20.6515C81.6993 18.0883 85.2753 19.364 87.9752 16.6641C90.9615 13.6783 89.0455 8.76195 85.2852 7.77681C84.0211 7.44968 82.6798 7.62092 81.5384 8.25511Z" fill="#FFE55D"/>
<path d="M66.9857 25.6455C64.9448 25.6455 63.099 24.0637 62.2935 22.0138C61.1989 19.2274 62.0848 16.2336 64.268 15.3406C65.5255 14.8684 66.3511 15.5933 68.5236 15.0912C71.2277 14.4271 73.8288 13.3994 76.2568 12.0361C79.515 9.9048 79.5922 9.09469 81.4478 8.09551C84.3345 6.465 87.8945 7.96307 89.1502 10.9222C89.6009 11.8895 89.7417 12.9723 89.5541 14.0227C89.3664 15.0731 88.8591 16.04 88.1014 16.7914C86.5313 18.3616 84.3869 18.6807 82.3127 18.991C78.4751 19.5624 74.5832 20.5251 71.3554 22.677C69.9374 23.6621 69.3861 25.645 66.9857 25.6455ZM64.4009 15.6804C62.4063 16.4966 61.6112 19.2784 62.6333 21.88C63.7266 24.6632 66.3366 25.8112 68.2072 25.0446C69.3711 24.5523 70.0572 23.1342 71.1509 22.3737C73.8957 20.5438 77.4366 19.4398 80.6883 18.8843C83.1822 18.4046 85.9767 18.4032 87.844 16.5331C90.7138 13.6638 88.9246 8.92715 85.2363 7.9509C84.0172 7.63547 82.7236 7.8017 81.6238 8.41515C79.8454 9.39795 79.7312 10.1996 76.4473 12.3464C73.9851 13.7285 71.3475 14.7712 68.6059 15.4459C66.4714 15.9397 65.5021 15.2676 64.4009 15.6804Z" fill="#673737"/>
<path d="M82.8401 15.4852C81.1927 13.5295 80.991 9.73163 83.1583 8.15541C83.1976 8.12691 83.2463 8.11516 83.294 8.1227C83.3422 8.13023 83.3848 8.15648 83.4134 8.19566C83.4419 8.23483 83.4536 8.28369 83.4461 8.33152C83.4386 8.37935 83.4124 8.42222 83.3731 8.45072C81.4014 9.88467 81.5947 13.4419 83.1171 15.2475C83.58 15.7919 84.1856 16.1963 84.866 16.415C85.5461 16.6338 86.2738 16.6583 86.9674 16.4858C87.0142 16.4734 87.0642 16.4801 87.1059 16.5044C87.148 16.5288 87.1784 16.5688 87.1906 16.6157C87.2032 16.6625 87.1967 16.7124 87.1723 16.7543C87.148 16.7962 87.1078 16.8267 87.061 16.8391C86.3009 17.0292 85.5035 17.0031 84.7575 16.7639C84.0115 16.5247 83.3474 16.0818 82.8401 15.4852Z" fill="#673737"/>
</svg>
