<svg width="181" height="81" viewBox="0 0 181 81" fill="none" xmlns="http://www.w3.org/2000/svg">
<rect width="181" height="81" fill="#FCD34D"/>
<path d="M31.8693 41.7631C31.8925 39.9104 32.8607 38.1574 34.3966 37.187C33.4276 35.7649 31.8047 34.8632 30.1163 34.8089C28.3154 34.6147 26.5695 35.9164 25.6518 35.9164C24.7163 35.9164 23.3034 34.8282 21.7819 34.8604C19.7987 34.9262 17.9498 36.085 16.9849 37.8669C14.9108 41.5573 16.4579 46.9809 18.4447 49.964C19.4388 51.4247 20.6005 53.0564 22.1207 52.9985C23.6082 52.9351 24.1638 52.0237 25.9594 52.0237C27.7383 52.0237 28.2595 52.9985 29.8105 52.9617C31.4067 52.9351 32.4124 51.4945 33.3716 50.02C34.0858 48.9792 34.6354 47.8288 35 46.6116C33.1242 45.7962 31.8715 43.8562 31.8693 41.7631Z" fill="#1C1D1F"/>
<path d="M28.9397 32.8471C29.81 31.7734 30.2388 30.3934 30.135 29C28.8053 29.1435 27.5771 29.7966 26.695 30.8291C25.8325 31.8379 25.3836 33.1937 25.4685 34.5338C26.7986 34.5479 28.1062 33.9125 28.9397 32.8471Z" fill="#1C1D1F"/>
<path d="M53.4 39.448H59V40.12C59 41.5813 58.4987 42.7973 57.496 43.768C56.4933 44.728 55.1653 45.208 53.512 45.208C51.8053 45.208 50.392 44.648 49.272 43.528C48.1627 42.3867 47.608 41.0107 47.608 39.4C47.608 37.7893 48.1627 36.4187 49.272 35.288C50.392 34.1573 51.7947 33.592 53.48 33.592C54.504 33.592 55.4533 33.8427 56.328 34.344C57.2133 34.8453 57.88 35.496 58.328 36.296L57.048 37.048C56.728 36.44 56.2427 35.9547 55.592 35.592C54.9413 35.2187 54.232 35.032 53.464 35.032C52.1733 35.032 51.1227 35.4533 50.312 36.296C49.4907 37.1387 49.08 38.1733 49.08 39.4C49.08 40.6267 49.4907 41.6613 50.312 42.504C51.144 43.336 52.216 43.752 53.528 43.752C54.6267 43.752 55.5227 43.4853 56.216 42.952C56.92 42.408 57.352 41.688 57.512 40.792H53.4V39.448ZM68.3454 41.64H61.6414C61.78 42.344 62.1054 42.8987 62.6174 43.304C63.1294 43.6987 63.7694 43.896 64.5374 43.896C65.5934 43.896 66.3614 43.5067 66.8414 42.728L68.0254 43.4C67.236 44.6053 66.0627 45.208 64.5054 45.208C63.2467 45.208 62.212 44.8133 61.4014 44.024C60.612 43.2133 60.2174 42.2053 60.2174 41C60.2174 39.784 60.6067 38.7813 61.3854 37.992C62.164 37.192 63.172 36.792 64.4094 36.792C65.5827 36.792 66.5374 37.208 67.2734 38.04C68.02 38.8507 68.3934 39.8427 68.3934 41.016C68.3934 41.2187 68.3774 41.4267 68.3454 41.64ZM64.4094 38.104C63.6734 38.104 63.0547 38.312 62.5534 38.728C62.0627 39.144 61.7587 39.7093 61.6414 40.424H66.9854C66.868 39.688 66.5747 39.1173 66.1054 38.712C65.636 38.3067 65.0707 38.104 64.4094 38.104ZM74.1111 37V38.344H71.9831V42.68C71.9831 43.0747 72.0578 43.3573 72.2071 43.528C72.3671 43.688 72.6071 43.7733 72.9271 43.784C73.2471 43.784 73.6418 43.7733 74.1111 43.752V45C72.8845 45.16 71.9885 45.0587 71.4231 44.696C70.8685 44.3333 70.5911 43.6613 70.5911 42.68V38.344H69.0071V37H70.5911V35.176L71.9831 34.76V37H74.1111ZM86.558 43.992C85.7473 44.8027 84.75 45.208 83.566 45.208C82.382 45.208 81.3847 44.8027 80.574 43.992C79.7633 43.1813 79.358 42.184 79.358 41C79.358 39.816 79.7633 38.8187 80.574 38.008C81.3847 37.1973 82.382 36.792 83.566 36.792C84.75 36.792 85.7473 37.1973 86.558 38.008C87.3793 38.8293 87.79 39.8267 87.79 41C87.79 42.1733 87.3793 43.1707 86.558 43.992ZM83.566 43.848C84.366 43.848 85.038 43.576 85.582 43.032C86.126 42.488 86.398 41.8107 86.398 41C86.398 40.1893 86.126 39.512 85.582 38.968C85.038 38.424 84.366 38.152 83.566 38.152C82.7767 38.152 82.11 38.424 81.566 38.968C81.022 39.512 80.75 40.1893 80.75 41C80.75 41.8107 81.022 42.488 81.566 43.032C82.11 43.576 82.7767 43.848 83.566 43.848ZM93.415 36.792C94.3537 36.792 95.1057 37.0907 95.671 37.688C96.2363 38.2747 96.519 39.0747 96.519 40.088V45H95.127V40.168C95.127 39.528 94.951 39.0267 94.599 38.664C94.247 38.3013 93.7617 38.12 93.143 38.12C92.4283 38.12 91.863 38.344 91.447 38.792C91.031 39.2293 90.823 39.8853 90.823 40.76V45H89.431V37H90.823V38.152C91.3777 37.2453 92.2417 36.792 93.415 36.792ZM103.166 35.544C102.9 35.544 102.676 35.4533 102.494 35.272C102.313 35.0907 102.222 34.872 102.222 34.616C102.222 34.36 102.313 34.1413 102.494 33.96C102.676 33.768 102.9 33.672 103.166 33.672C103.422 33.672 103.641 33.768 103.822 33.96C104.004 34.1413 104.094 34.36 104.094 34.616C104.094 34.872 104.004 35.0907 103.822 35.272C103.641 35.4533 103.422 35.544 103.166 35.544ZM103.854 45H102.462V37H103.854V45ZM106.122 33.8H110.186C111.21 33.8 112.069 34.1467 112.762 34.84C113.455 35.5333 113.802 36.3867 113.802 37.4C113.802 38.4133 113.455 39.2667 112.762 39.96C112.069 40.6533 111.21 41 110.186 41H107.61V45H106.122V33.8ZM107.61 39.608H110.186C110.815 39.608 111.327 39.4 111.722 38.984C112.127 38.5467 112.33 38.0187 112.33 37.4C112.33 36.76 112.127 36.232 111.722 35.816C111.317 35.4 110.805 35.192 110.186 35.192H107.61V39.608ZM119.399 36.792C120.338 36.792 121.09 37.0907 121.655 37.688C122.221 38.2747 122.503 39.0747 122.503 40.088V45H121.111V40.168C121.111 39.528 120.935 39.0267 120.583 38.664C120.231 38.3013 119.746 38.12 119.127 38.12C118.413 38.12 117.847 38.344 117.431 38.792C117.015 39.2293 116.807 39.8853 116.807 40.76V45H115.415V33.8H116.807V38.152C117.362 37.2453 118.226 36.792 119.399 36.792ZM131.199 43.992C130.388 44.8027 129.391 45.208 128.207 45.208C127.023 45.208 126.025 44.8027 125.215 43.992C124.404 43.1813 123.999 42.184 123.999 41C123.999 39.816 124.404 38.8187 125.215 38.008C126.025 37.1973 127.023 36.792 128.207 36.792C129.391 36.792 130.388 37.1973 131.199 38.008C132.02 38.8293 132.431 39.8267 132.431 41C132.431 42.1733 132.02 43.1707 131.199 43.992ZM128.207 43.848C129.007 43.848 129.679 43.576 130.223 43.032C130.767 42.488 131.039 41.8107 131.039 41C131.039 40.1893 130.767 39.512 130.223 38.968C129.679 38.424 129.007 38.152 128.207 38.152C127.417 38.152 126.751 38.424 126.207 38.968C125.663 39.512 125.391 40.1893 125.391 41C125.391 41.8107 125.663 42.488 126.207 43.032C126.751 43.576 127.417 43.848 128.207 43.848ZM138.056 36.792C138.994 36.792 139.746 37.0907 140.312 37.688C140.877 38.2747 141.16 39.0747 141.16 40.088V45H139.768V40.168C139.768 39.528 139.592 39.0267 139.24 38.664C138.888 38.3013 138.402 38.12 137.784 38.12C137.069 38.12 136.504 38.344 136.088 38.792C135.672 39.2293 135.464 39.8853 135.464 40.76V45H134.072V37H135.464V38.152C136.018 37.2453 136.882 36.792 138.056 36.792ZM150.783 41.64H144.079C144.218 42.344 144.543 42.8987 145.055 43.304C145.567 43.6987 146.207 43.896 146.975 43.896C148.031 43.896 148.799 43.5067 149.279 42.728L150.463 43.4C149.674 44.6053 148.5 45.208 146.943 45.208C145.684 45.208 144.65 44.8133 143.839 44.024C143.05 43.2133 142.655 42.2053 142.655 41C142.655 39.784 143.044 38.7813 143.823 37.992C144.602 37.192 145.61 36.792 146.847 36.792C148.02 36.792 148.975 37.208 149.711 38.04C150.458 38.8507 150.831 39.8427 150.831 41.016C150.831 41.2187 150.815 41.4267 150.783 41.64ZM146.847 38.104C146.111 38.104 145.492 38.312 144.991 38.728C144.5 39.144 144.196 39.7093 144.079 40.424H149.423C149.306 39.688 149.012 39.1173 148.543 38.712C148.074 38.3067 147.508 38.104 146.847 38.104Z" fill="#1C1D1F"/>
<rect x="0.5" y="13.5" width="170" height="55" rx="11.5" stroke="#1C1D1F"/>
</svg>
