<svg width="19" height="18" viewBox="0 0 19 18" fill="none" xmlns="http://www.w3.org/2000/svg">
<path fill-rule="evenodd" clip-rule="evenodd" d="M3.28037 8.38286C2.98085 8.4241 2.75 8.68465 2.75 8.99992C2.75 9.34385 3.02473 9.62266 3.36364 9.62266H14.15L10.2535 13.561L10.194 13.6307C10.0152 13.8741 10.0343 14.2201 10.2517 14.4417C10.4909 14.6854 10.8794 14.6862 11.1195 14.4435L16.0608 9.44967C16.0902 9.42106 16.1169 9.3895 16.1402 9.35546C16.3075 9.11228 16.2839 8.77494 16.0695 8.55829L11.1195 3.55645L11.0505 3.4963C10.8099 3.31594 10.4691 3.33678 10.2517 3.55835C10.0126 3.80206 10.0134 4.19636 10.2536 4.43903L14.1509 8.37718H3.36364L3.28037 8.38286Z" fill="#2922b3"/>
</svg>
