<svg width="16" height="17" viewBox="0 0 16 17" fill="none" xmlns="http://www.w3.org/2000/svg">
<path fill-rule="evenodd" clip-rule="evenodd" d="M14.5008 7.42969H1.13281C0.822313 7.42969 0.570312 7.17769 0.570312 6.86719C0.570312 6.55669 0.822313 6.30469 1.13281 6.30469H14.5008C14.8113 6.30469 15.0633 6.55669 15.0633 6.86719C15.0633 7.17769 14.8113 7.42969 14.5008 7.42969Z" fill="#868A91"/>
<path fill-rule="evenodd" clip-rule="evenodd" d="M11.1514 10.3555C10.8409 10.3555 10.5859 10.1035 10.5859 9.79297C10.5859 9.48247 10.8342 9.23047 11.1447 9.23047H11.1514C11.4619 9.23047 11.7139 9.48247 11.7139 9.79297C11.7139 10.1035 11.4619 10.3555 11.1514 10.3555Z" fill="#868A91"/>
<path fill-rule="evenodd" clip-rule="evenodd" d="M7.82331 10.3555C7.51281 10.3555 7.25781 10.1035 7.25781 9.79297C7.25781 9.48247 7.50606 9.23047 7.81656 9.23047H7.82331C8.13381 9.23047 8.38581 9.48247 8.38581 9.79297C8.38581 10.1035 8.13381 10.3555 7.82331 10.3555Z" fill="#868A91"/>
<path fill-rule="evenodd" clip-rule="evenodd" d="M4.48812 10.3555C4.17762 10.3555 3.92188 10.1035 3.92188 9.79297C3.92188 9.48247 4.17087 9.23047 4.48137 9.23047H4.48812C4.79862 9.23047 5.05062 9.48247 5.05062 9.79297C5.05062 10.1035 4.79862 10.3555 4.48812 10.3555Z" fill="#868A91"/>
<path fill-rule="evenodd" clip-rule="evenodd" d="M11.1514 13.2734C10.8409 13.2734 10.5859 13.0214 10.5859 12.7109C10.5859 12.4004 10.8342 12.1484 11.1447 12.1484H11.1514C11.4619 12.1484 11.7139 12.4004 11.7139 12.7109C11.7139 13.0214 11.4619 13.2734 11.1514 13.2734Z" fill="#868A91"/>
<path fill-rule="evenodd" clip-rule="evenodd" d="M7.82331 13.2734C7.51281 13.2734 7.25781 13.0214 7.25781 12.7109C7.25781 12.4004 7.50606 12.1484 7.81656 12.1484H7.82331C8.13381 12.1484 8.38581 12.4004 8.38581 12.7109C8.38581 13.0214 8.13381 13.2734 7.82331 13.2734Z" fill="#868A91"/>
<path fill-rule="evenodd" clip-rule="evenodd" d="M4.48812 13.2734C4.17762 13.2734 3.92188 13.0214 3.92188 12.7109C3.92188 12.4004 4.17087 12.1484 4.48137 12.1484H4.48812C4.79862 12.1484 5.05062 12.4004 5.05062 12.7109C5.05062 13.0214 4.79862 13.2734 4.48812 13.2734Z" fill="#868A91"/>
<path fill-rule="evenodd" clip-rule="evenodd" d="M10.8438 4.34325C10.5333 4.34325 10.2812 4.09125 10.2812 3.78075V1.3125C10.2812 1.002 10.5333 0.75 10.8438 0.75C11.1543 0.75 11.4062 1.002 11.4062 1.3125V3.78075C11.4062 4.09125 11.1543 4.34325 10.8438 4.34325Z" fill="#868A91"/>
<path fill-rule="evenodd" clip-rule="evenodd" d="M4.78516 4.34325C4.47466 4.34325 4.22266 4.09125 4.22266 3.78075V1.3125C4.22266 1.002 4.47466 0.75 4.78516 0.75C5.09566 0.75 5.34766 1.002 5.34766 1.3125V3.78075C5.34766 4.09125 5.09566 4.34325 4.78516 4.34325Z" fill="#868A91"/>
<mask id="mask0_5218_18652" style="mask-type:luminance" maskUnits="userSpaceOnUse" x="0" y="1" width="16" height="16">
<path fill-rule="evenodd" clip-rule="evenodd" d="M0.5 1.93359H15.125V16.8743H0.5V1.93359Z" fill="white"/>
</mask>
<g mask="url(#mask0_5218_18652)">
<path fill-rule="evenodd" clip-rule="evenodd" d="M4.64075 3.05859C2.696 3.05859 1.625 4.09584 1.625 5.97909V12.7658C1.625 14.6903 2.696 15.7493 4.64075 15.7493H10.9843C12.929 15.7493 14 14.7098 14 12.8228V5.97909C14.003 5.05284 13.754 4.33284 13.2597 3.83784C12.7512 3.32784 11.9675 3.05859 10.991 3.05859H4.64075ZM10.9843 16.8743H4.64075C2.087 16.8743 0.5 15.3001 0.5 12.7658V5.97909C0.5 3.48309 2.087 1.93359 4.64075 1.93359H10.991C12.2727 1.93359 13.3325 2.31759 14.0563 3.04284C14.759 3.74859 15.1287 4.76334 15.125 5.98059V12.8228C15.125 15.3218 13.538 16.8743 10.9843 16.8743Z" fill="#868A91"/>
</g>
</svg>
