<svg width="25" height="24" viewBox="0 0 25 24" fill="none" xmlns="http://www.w3.org/2000/svg">
<path fill-rule="evenodd" clip-rule="evenodd" d="M6.92773 8.34766L7.53073 15.5197C7.57473 16.0717 8.02573 16.4857 8.57673 16.4857H8.58073H19.4917H19.4937C20.0147 16.4857 20.4597 16.0977 20.5337 15.5827L21.4837 9.02366C21.5057 8.86766 21.4667 8.71166 21.3717 8.58566C21.2777 8.45866 21.1397 8.37666 20.9837 8.35466C20.7747 8.36266 12.1017 8.35066 6.92773 8.34766ZM8.57518 17.9855C7.25818 17.9855 6.14318 16.9575 6.03618 15.6425L5.12018 4.74849L3.61318 4.48849C3.20418 4.41649 2.93118 4.02949 3.00118 3.62049C3.07318 3.21149 3.46818 2.94549 3.86818 3.00949L5.94818 3.36949C6.28318 3.42849 6.53818 3.70649 6.56718 4.04649L6.80218 6.84749C21.0782 6.85349 21.1242 6.86049 21.1932 6.86849C21.7502 6.94949 22.2402 7.24049 22.5742 7.68849C22.9082 8.13549 23.0482 8.68649 22.9682 9.23849L22.0192 15.7965C21.8402 17.0445 20.7562 17.9855 19.4962 17.9855H19.4912H8.58318H8.57518Z" fill="#868A91"/>
<path fill-rule="evenodd" clip-rule="evenodd" d="M17.8872 12.0439H15.1152C14.7002 12.0439 14.3652 11.7079 14.3652 11.2939C14.3652 10.8799 14.7002 10.5439 15.1152 10.5439H17.8872C18.3012 10.5439 18.6372 10.8799 18.6372 11.2939C18.6372 11.7079 18.3012 12.0439 17.8872 12.0439Z" fill="#868A91"/>
<path fill-rule="evenodd" clip-rule="evenodd" d="M8.14461 20.7021C8.44561 20.7021 8.68861 20.9451 8.68861 21.2461C8.68861 21.5471 8.44561 21.7911 8.14461 21.7911C7.84261 21.7911 7.59961 21.5471 7.59961 21.2461C7.59961 20.9451 7.84261 20.7021 8.14461 20.7021Z" fill="#868A91"/>
<mask id="mask0_1963_25506" style="mask-type:luminance" maskUnits="userSpaceOnUse" x="7" y="20" width="2" height="2">
<path fill-rule="evenodd" clip-rule="evenodd" d="M7.59961 21.2456C7.59961 21.5476 7.84261 21.7916 8.14561 21.7916C8.44661 21.7916 8.68961 21.5476 8.68961 21.2456C8.68961 20.9446 8.44661 20.7016 8.14561 20.7016C7.84261 20.7016 7.59961 20.9446 7.59961 21.2456Z" fill="white"/>
</mask>
<g mask="url(#mask0_1963_25506)">
<path fill-rule="evenodd" clip-rule="evenodd" d="M2.60156 26.7906H13.6906V15.7016H2.60156V26.7906Z" fill="#868A91"/>
</g>
<path fill-rule="evenodd" clip-rule="evenodd" d="M8.14403 21.0409C8.03103 21.0409 7.93903 21.1329 7.93903 21.2459C7.93903 21.4729 8.35003 21.4729 8.35003 21.2459C8.35003 21.1329 8.25703 21.0409 8.14403 21.0409ZM8.14361 22.5407C7.42961 22.5407 6.84961 21.9597 6.84961 21.2457C6.84961 20.5317 7.42961 19.9517 8.14361 19.9517C8.85761 19.9517 9.43861 20.5317 9.43861 21.2457C9.43861 21.9597 8.85761 22.5407 8.14361 22.5407Z" fill="#868A91"/>
<path fill-rule="evenodd" clip-rule="evenodd" d="M19.4259 20.7017C19.7269 20.7017 19.9709 20.9447 19.9709 21.2457C19.9709 21.5467 19.7269 21.7907 19.4259 21.7907C19.1239 21.7907 18.8809 21.5467 18.8809 21.2457C18.8809 20.9447 19.1239 20.7017 19.4259 20.7017Z" fill="#868A91"/>
<mask id="mask1_1963_25506" style="mask-type:luminance" maskUnits="userSpaceOnUse" x="18" y="20" width="2" height="2">
<path fill-rule="evenodd" clip-rule="evenodd" d="M18.8809 21.2457C18.8809 21.5477 19.1239 21.7917 19.4259 21.7917C19.7259 21.7917 19.9709 21.5477 19.9709 21.2457C19.9709 20.9447 19.7259 20.7017 19.4259 20.7017C19.1239 20.7017 18.8809 20.9447 18.8809 21.2457Z" fill="white"/>
</mask>
<g mask="url(#mask1_1963_25506)">
<path fill-rule="evenodd" clip-rule="evenodd" d="M13.8809 26.7907H24.9709V15.7017H13.8809V26.7907Z" fill="#868A91"/>
</g>
<path fill-rule="evenodd" clip-rule="evenodd" d="M19.4249 21.0407C19.3129 21.0407 19.2209 21.1327 19.2209 21.2457C19.2219 21.4747 19.6319 21.4727 19.6309 21.2457C19.6309 21.1327 19.5379 21.0407 19.4249 21.0407ZM19.4249 22.5407C18.7109 22.5407 18.1309 21.9597 18.1309 21.2457C18.1309 20.5317 18.7109 19.9517 19.4249 19.9517C20.1399 19.9517 20.7209 20.5317 20.7209 21.2457C20.7209 21.9597 20.1399 22.5407 19.4249 22.5407Z" fill="#868A91"/>
</svg>
