<svg width="104" height="104" viewBox="0 0 104 104" fill="none" xmlns="http://www.w3.org/2000/svg">
<rect width="104" height="104" fill="white"/>
<path d="M79.066 17.1693H71.8672V24.3681H79.066V17.1693Z" fill="#FFB43B"/>
<path d="M79.0657 24.5553H71.8669C71.8173 24.5553 71.7695 24.5356 71.7344 24.5005C71.6993 24.4654 71.6797 24.4178 71.6797 24.3682V17.1694C71.6797 17.1197 71.6993 17.0721 71.7344 17.037C71.7695 17.0019 71.8173 16.9821 71.8669 16.9821H79.0657C79.1153 16.9821 79.163 17.0019 79.1981 17.037C79.2332 17.0721 79.2529 17.1197 79.2529 17.1694V24.3682C79.2529 24.3927 79.2482 24.4171 79.2388 24.4398C79.229 24.4625 79.2154 24.4831 79.1981 24.5005C79.1808 24.5179 79.1602 24.5317 79.1373 24.5411C79.1148 24.5505 79.0905 24.5553 79.0657 24.5553ZM72.0541 24.1809H78.8789V17.3565H72.0541V24.1809Z" fill="#673737"/>
<path d="M77.5292 18.8823H73.6364C73.5868 18.8823 73.5391 18.8625 73.504 18.8274C73.4689 18.7923 73.4492 18.7447 73.4492 18.6951C73.4492 18.6454 73.4689 18.5978 73.504 18.5627C73.5391 18.5276 73.5868 18.5079 73.6364 18.5079H77.5292C77.5788 18.5079 77.6266 18.5276 77.6617 18.5627C77.6968 18.5978 77.7164 18.6454 77.7164 18.6951C77.7164 18.7447 77.6968 18.7923 77.6617 18.8274C77.6266 18.8625 77.5788 18.8823 77.5292 18.8823Z" fill="#673737"/>
<path d="M77.5292 19.9113H73.6364C73.5868 19.9113 73.5391 19.8916 73.504 19.8565C73.4689 19.8214 73.4492 19.7738 73.4492 19.7241C73.4492 19.6745 73.4689 19.6269 73.504 19.5918C73.5391 19.5567 73.5868 19.5369 73.6364 19.5369H77.5292C77.5788 19.5369 77.6266 19.5567 77.6617 19.5918C77.6968 19.6269 77.7164 19.6745 77.7164 19.7241C77.7164 19.7738 77.6968 19.8214 77.6617 19.8565C77.6266 19.8916 77.5788 19.9113 77.5292 19.9113Z" fill="#673737"/>
<path d="M75.7607 22.4742H73.6364C73.5868 22.4742 73.5391 22.4545 73.504 22.4193C73.4689 22.3842 73.4492 22.3366 73.4492 22.287C73.4492 22.2373 73.4689 22.1897 73.504 22.1546C73.5391 22.1195 73.5868 22.0998 73.6364 22.0998H75.7607C75.8103 22.0998 75.858 22.1195 75.8931 22.1546C75.9282 22.1897 75.9479 22.2373 75.9479 22.287C75.9479 22.3366 75.9282 22.3842 75.8931 22.4193C75.858 22.4545 75.8103 22.4742 75.7607 22.4742Z" fill="#673737"/>
<path d="M87.7906 17.1693H80.5918V24.3681H87.7906V17.1693Z" fill="#FFE55D"/>
<path d="M87.7907 24.5553H80.5915C80.5419 24.5553 80.4942 24.5356 80.4591 24.5005C80.424 24.4654 80.4043 24.4178 80.4043 24.3682V17.1694C80.4043 17.1197 80.424 17.0721 80.4591 17.037C80.4942 17.0019 80.5419 16.9821 80.5915 16.9821H87.7907C87.8151 16.9821 87.8394 16.987 87.8623 16.9964C87.8853 17.0058 87.9059 17.0196 87.9232 17.037C87.9405 17.0544 87.9541 17.075 87.9639 17.0977C87.9733 17.1204 87.9779 17.1448 87.9779 17.1694V24.3682C87.9779 24.3927 87.9733 24.4171 87.9639 24.4398C87.9541 24.4625 87.9405 24.4831 87.9232 24.5005C87.9059 24.5179 87.8853 24.5317 87.8623 24.5411C87.8394 24.5505 87.8151 24.5553 87.7907 24.5553ZM80.7787 24.1809H87.6035V17.3565H80.7787V24.1809Z" fill="#673737"/>
<path d="M86.2538 18.8823H82.361C82.3114 18.8823 82.2637 18.8625 82.2286 18.8274C82.1935 18.7923 82.1738 18.7447 82.1738 18.6951C82.1738 18.6454 82.1935 18.5978 82.2286 18.5627C82.2637 18.5276 82.3114 18.5079 82.361 18.5079H86.2538C86.3035 18.5079 86.3512 18.5276 86.3863 18.5627C86.4214 18.5978 86.4411 18.6454 86.4411 18.6951C86.4411 18.7447 86.4214 18.7923 86.3863 18.8274C86.3512 18.8625 86.3035 18.8823 86.2538 18.8823Z" fill="#673737"/>
<path d="M86.2538 19.9113H82.361C82.3114 19.9113 82.2637 19.8916 82.2286 19.8565C82.1935 19.8214 82.1738 19.7738 82.1738 19.7241C82.1738 19.6745 82.1935 19.6269 82.2286 19.5918C82.2637 19.5567 82.3114 19.5369 82.361 19.5369H86.2538C86.3035 19.5369 86.3512 19.5567 86.3863 19.5918C86.4214 19.6269 86.4411 19.6745 86.4411 19.7241C86.4411 19.7738 86.4214 19.8214 86.3863 19.8565C86.3512 19.8916 86.3035 19.9113 86.2538 19.9113Z" fill="#673737"/>
<path d="M84.4857 22.4742H82.361C82.3114 22.4742 82.2637 22.4545 82.2286 22.4193C82.1935 22.3842 82.1738 22.3366 82.1738 22.287C82.1738 22.2373 82.1935 22.1897 82.2286 22.1546C82.2637 22.1195 82.3114 22.0998 82.361 22.0998H84.4857C84.5354 22.0998 84.5831 22.1195 84.6182 22.1546C84.6533 22.1897 84.6729 22.2373 84.6729 22.287C84.6729 22.3366 84.6533 22.3842 84.6182 22.4193C84.5831 22.4545 84.5354 22.4742 84.4857 22.4742Z" fill="#673737"/>
<path d="M79.066 25.8643H71.8672V33.0631H79.066V25.8643Z" fill="#FFE55D"/>
<path d="M79.0657 33.2503H71.8669C71.8173 33.2503 71.7695 33.2306 71.7344 33.1955C71.6993 33.1604 71.6797 33.1128 71.6797 33.0631V25.8644C71.6797 25.8147 71.6993 25.7671 71.7344 25.732C71.7695 25.6969 71.8173 25.6772 71.8669 25.6772H79.0657C79.1153 25.6772 79.163 25.6969 79.1981 25.732C79.2332 25.7671 79.2529 25.8147 79.2529 25.8644V33.0631C79.2529 33.0877 79.2482 33.1121 79.2388 33.1348C79.229 33.1575 79.2154 33.1781 79.1981 33.1955C79.1808 33.2129 79.1602 33.2267 79.1373 33.2361C79.1148 33.2455 79.0905 33.2503 79.0657 33.2503ZM72.0541 32.876H78.8789V26.0516H72.0541V32.876Z" fill="#673737"/>
<path d="M77.5292 27.5773H73.6364C73.5868 27.5773 73.5391 27.5575 73.504 27.5224C73.4689 27.4873 73.4492 27.4397 73.4492 27.3901C73.4492 27.3404 73.4689 27.2928 73.504 27.2577C73.5391 27.2226 73.5868 27.2029 73.6364 27.2029H77.5292C77.5788 27.2029 77.6266 27.2226 77.6617 27.2577C77.6968 27.2928 77.7164 27.3404 77.7164 27.3901C77.7164 27.4397 77.6968 27.4873 77.6617 27.5224C77.6266 27.5575 77.5788 27.5773 77.5292 27.5773Z" fill="#673737"/>
<path d="M77.5292 28.6064H73.6364C73.5868 28.6064 73.5391 28.5867 73.504 28.5516C73.4689 28.5165 73.4492 28.4688 73.4492 28.4192C73.4492 28.3695 73.4689 28.3219 73.504 28.2868C73.5391 28.2517 73.5868 28.232 73.6364 28.232H77.5292C77.5788 28.232 77.6266 28.2517 77.6617 28.2868C77.6968 28.3219 77.7164 28.3695 77.7164 28.4192C77.7164 28.4688 77.6968 28.5165 77.6617 28.5516C77.6266 28.5867 77.5788 28.6064 77.5292 28.6064Z" fill="#673737"/>
<path d="M75.7607 31.1692H73.6364C73.5868 31.1692 73.5391 31.1495 73.504 31.1144C73.4689 31.0792 73.4492 31.0316 73.4492 30.982C73.4492 30.9323 73.4689 30.8847 73.504 30.8496C73.5391 30.8145 73.5868 30.7948 73.6364 30.7948H75.7607C75.8103 30.7948 75.858 30.8145 75.8931 30.8496C75.9282 30.8847 75.9479 30.9323 75.9479 30.982C75.9479 31.0316 75.9282 31.0792 75.8931 31.1144C75.858 31.1495 75.8103 31.1692 75.7607 31.1692Z" fill="#673737"/>
<path d="M87.7906 25.8643H80.5918V33.0631H87.7906V25.8643Z" fill="#FFB43B"/>
<path d="M87.7907 33.2503H80.5915C80.5419 33.2503 80.4942 33.2306 80.4591 33.1955C80.424 33.1604 80.4043 33.1128 80.4043 33.0631V25.8644C80.4043 25.8147 80.424 25.7671 80.4591 25.732C80.4942 25.6969 80.5419 25.6772 80.5915 25.6772H87.7907C87.8151 25.6772 87.8394 25.682 87.8623 25.6914C87.8853 25.7008 87.9059 25.7146 87.9232 25.732C87.9405 25.7494 87.9541 25.77 87.9639 25.7927C87.9733 25.8154 87.9779 25.8398 87.9779 25.8644V33.0631C87.9779 33.0877 87.9733 33.1121 87.9639 33.1348C87.9541 33.1575 87.9405 33.1781 87.9232 33.1955C87.9059 33.2129 87.8853 33.2267 87.8623 33.2361C87.8394 33.2455 87.8151 33.2503 87.7907 33.2503ZM80.7787 32.876H87.6035V26.0516H80.7787V32.876Z" fill="#673737"/>
<path d="M86.2538 27.5773H82.361C82.3114 27.5773 82.2637 27.5575 82.2286 27.5224C82.1935 27.4873 82.1738 27.4397 82.1738 27.3901C82.1738 27.3404 82.1935 27.2928 82.2286 27.2577C82.2637 27.2226 82.3114 27.2029 82.361 27.2029H86.2538C86.3035 27.2029 86.3512 27.2226 86.3863 27.2577C86.4214 27.2928 86.4411 27.3404 86.4411 27.3901C86.4411 27.4397 86.4214 27.4873 86.3863 27.5224C86.3512 27.5575 86.3035 27.5773 86.2538 27.5773Z" fill="#673737"/>
<path d="M86.2538 28.6064H82.361C82.3114 28.6064 82.2637 28.5867 82.2286 28.5516C82.1935 28.5165 82.1738 28.4688 82.1738 28.4192C82.1738 28.3695 82.1935 28.3219 82.2286 28.2868C82.2637 28.2517 82.3114 28.232 82.361 28.232H86.2538C86.3035 28.232 86.3512 28.2517 86.3863 28.2868C86.4214 28.3219 86.4411 28.3695 86.4411 28.4192C86.4411 28.4688 86.4214 28.5165 86.3863 28.5516C86.3512 28.5867 86.3035 28.6064 86.2538 28.6064Z" fill="#673737"/>
<path d="M84.4857 31.1692H82.361C82.3114 31.1692 82.2637 31.1495 82.2286 31.1144C82.1935 31.0792 82.1738 31.0316 82.1738 30.982C82.1738 30.9323 82.1935 30.8847 82.2286 30.8496C82.2637 30.8145 82.3114 30.7948 82.361 30.7948H84.4857C84.5354 30.7948 84.5831 30.8145 84.6182 30.8496C84.6533 30.8847 84.6729 30.9323 84.6729 30.982C84.6729 31.0316 84.6533 31.0792 84.6182 31.1144C84.5831 31.1495 84.5354 31.1692 84.4857 31.1692Z" fill="#673737"/>
<path d="M87.7906 34.5592H80.5918V41.758H87.7906V34.5592Z" fill="#FFB43B"/>
<path d="M87.7907 41.9452H80.5915C80.5419 41.9452 80.4942 41.9255 80.4591 41.8904C80.424 41.8553 80.4043 41.8077 80.4043 41.758V34.5593C80.4043 34.5096 80.424 34.462 80.4591 34.4269C80.4942 34.3918 80.5419 34.3721 80.5915 34.3721H87.7907C87.8151 34.3721 87.8394 34.3769 87.8623 34.3863C87.8853 34.3958 87.9059 34.4095 87.9232 34.4269C87.9405 34.4443 87.9541 34.4649 87.9639 34.4876C87.9733 34.5104 87.9779 34.5347 87.9779 34.5593V41.758C87.9779 41.7826 87.9733 41.807 87.9639 41.8297C87.9541 41.8524 87.9405 41.873 87.9232 41.8904C87.9059 41.9078 87.8853 41.9216 87.8623 41.931C87.8394 41.9404 87.8151 41.9452 87.7907 41.9452ZM80.7787 41.5708H87.6035V34.7465H80.7787V41.5708Z" fill="#673737"/>
<path d="M86.2538 36.2721H82.361C82.3114 36.2721 82.2637 36.2524 82.2286 36.2173C82.1935 36.1822 82.1738 36.1346 82.1738 36.0849C82.1738 36.0353 82.1935 35.9877 82.2286 35.9526C82.2637 35.9175 82.3114 35.8978 82.361 35.8978H86.2538C86.3035 35.8978 86.3512 35.9175 86.3863 35.9526C86.4214 35.9877 86.4411 36.0353 86.4411 36.0849C86.4411 36.1346 86.4214 36.1822 86.3863 36.2173C86.3512 36.2524 86.3035 36.2721 86.2538 36.2721Z" fill="#673737"/>
<path d="M86.2538 37.3013H82.361C82.3114 37.3013 82.2637 37.2816 82.2286 37.2464C82.1935 37.2113 82.1738 37.1637 82.1738 37.1141C82.1738 37.0644 82.1935 37.0168 82.2286 36.9817C82.2637 36.9466 82.3114 36.9269 82.361 36.9269H86.2538C86.3035 36.9269 86.3512 36.9466 86.3863 36.9817C86.4214 37.0168 86.4411 37.0644 86.4411 37.1141C86.4411 37.1637 86.4214 37.2113 86.3863 37.2464C86.3512 37.2816 86.3035 37.3013 86.2538 37.3013Z" fill="#673737"/>
<path d="M84.4857 39.8641H82.361C82.3114 39.8641 82.2637 39.8444 82.2286 39.8093C82.1935 39.7742 82.1738 39.7266 82.1738 39.6769C82.1738 39.6272 82.1935 39.5796 82.2286 39.5445C82.2637 39.5094 82.3114 39.4897 82.361 39.4897H84.4857C84.5354 39.4897 84.5831 39.5094 84.6182 39.5445C84.6533 39.5796 84.6729 39.6272 84.6729 39.6769C84.6729 39.7266 84.6533 39.7742 84.6182 39.8093C84.5831 39.8444 84.5354 39.8641 84.4857 39.8641Z" fill="#673737"/>
<path d="M96.5152 34.5592H89.3164V41.758H96.5152V34.5592Z" fill="#FFE55D"/>
<path d="M96.513 41.9452H89.3161C89.2665 41.9452 89.2188 41.9255 89.1837 41.8904C89.1486 41.8553 89.1289 41.8077 89.1289 41.758V34.5593C89.1289 34.5096 89.1486 34.462 89.1837 34.4269C89.2188 34.3918 89.2665 34.3721 89.3161 34.3721H96.513C96.5626 34.3721 96.6103 34.3918 96.6454 34.4269C96.6805 34.462 96.7002 34.5096 96.7002 34.5593V41.758C96.7002 41.8077 96.6805 41.8553 96.6454 41.8904C96.6103 41.9255 96.5626 41.9452 96.513 41.9452ZM89.5014 41.5708H96.3258V34.7465H89.5033L89.5014 41.5708Z" fill="#673737"/>
<path d="M94.9785 36.2721H91.0856C91.036 36.2721 90.9883 36.2524 90.9532 36.2173C90.9181 36.1822 90.8984 36.1346 90.8984 36.0849C90.8984 36.0353 90.9181 35.9877 90.9532 35.9526C90.9883 35.9175 91.036 35.8978 91.0856 35.8978H94.9785C95.0281 35.8978 95.0758 35.9175 95.1109 35.9526C95.146 35.9877 95.1657 36.0353 95.1657 36.0849C95.1657 36.1346 95.146 36.1822 95.1109 36.2173C95.0758 36.2524 95.0281 36.2721 94.9785 36.2721Z" fill="#673737"/>
<path d="M94.9785 37.3013H91.0856C91.036 37.3013 90.9883 37.2816 90.9532 37.2464C90.9181 37.2113 90.8984 37.1637 90.8984 37.1141C90.8984 37.0644 90.9181 37.0168 90.9532 36.9817C90.9883 36.9466 91.036 36.9269 91.0856 36.9269H94.9785C95.0281 36.9269 95.0758 36.9466 95.1109 36.9817C95.146 37.0168 95.1657 37.0644 95.1657 37.1141C95.1657 37.1637 95.146 37.2113 95.1109 37.2464C95.0758 37.2816 95.0281 37.3013 94.9785 37.3013Z" fill="#673737"/>
<path d="M93.2099 39.8641H91.0856C91.036 39.8641 90.9883 39.8444 90.9532 39.8093C90.9181 39.7742 90.8984 39.7266 90.8984 39.6769C90.8984 39.6272 90.9181 39.5796 90.9532 39.5445C90.9883 39.5094 91.036 39.4897 91.0856 39.4897H93.2099C93.2595 39.4897 93.3072 39.5094 93.3423 39.5445C93.3774 39.5796 93.3971 39.6272 93.3971 39.6769C93.3971 39.7266 93.3774 39.7742 93.3423 39.8093C93.3072 39.8444 93.2595 39.8641 93.2099 39.8641Z" fill="#673737"/>
<path d="M87.7906 43.2542H80.5918V50.453H87.7906V43.2542Z" fill="#FFE55D"/>
<path d="M87.7907 50.6403H80.5915C80.5419 50.6403 80.4942 50.6206 80.4591 50.5855C80.424 50.5503 80.4043 50.5027 80.4043 50.4531V43.2543C80.4043 43.2297 80.409 43.2054 80.4183 43.1826C80.4277 43.1599 80.4417 43.1393 80.4591 43.1219C80.4764 43.1045 80.497 43.0908 80.5199 43.0814C80.5424 43.072 80.5667 43.0671 80.5915 43.0671H87.7907C87.8151 43.0671 87.8394 43.072 87.8623 43.0814C87.8853 43.0908 87.9059 43.1045 87.9232 43.1219C87.9405 43.1393 87.9541 43.1599 87.9639 43.1826C87.9733 43.2054 87.9779 43.2297 87.9779 43.2543V50.4531C87.9779 50.4776 87.9733 50.502 87.9639 50.5247C87.9541 50.5474 87.9405 50.5681 87.9232 50.5855C87.9059 50.6028 87.8853 50.6166 87.8623 50.626C87.8394 50.6354 87.8151 50.6403 87.7907 50.6403ZM80.7787 50.2659H87.6035V43.4415H80.7787V50.2659Z" fill="#673737"/>
<path d="M86.2538 44.9672H82.361C82.3114 44.9672 82.2637 44.9475 82.2286 44.9124C82.1935 44.8773 82.1738 44.8296 82.1738 44.78C82.1738 44.7303 82.1935 44.6827 82.2286 44.6476C82.2637 44.6125 82.3114 44.5928 82.361 44.5928H86.2538C86.3035 44.5928 86.3512 44.6125 86.3863 44.6476C86.4214 44.6827 86.4411 44.7303 86.4411 44.78C86.4411 44.8296 86.4214 44.8773 86.3863 44.9124C86.3512 44.9475 86.3035 44.9672 86.2538 44.9672Z" fill="#673737"/>
<path d="M86.2538 45.9963H82.361C82.3114 45.9963 82.2637 45.9766 82.2286 45.9415C82.1935 45.9064 82.1738 45.8588 82.1738 45.8091C82.1738 45.7594 82.1935 45.7118 82.2286 45.6767C82.2637 45.6416 82.3114 45.6219 82.361 45.6219H86.2538C86.3035 45.6219 86.3512 45.6416 86.3863 45.6767C86.4214 45.7118 86.4411 45.7594 86.4411 45.8091C86.4411 45.8588 86.4214 45.9064 86.3863 45.9415C86.3512 45.9766 86.3035 45.9963 86.2538 45.9963Z" fill="#673737"/>
<path d="M84.4857 48.5591H82.361C82.3114 48.5591 82.2637 48.5394 82.2286 48.5043C82.1935 48.4692 82.1738 48.4216 82.1738 48.3719C82.1738 48.3223 82.1935 48.2746 82.2286 48.2395C82.2637 48.2044 82.3114 48.1847 82.361 48.1847H84.4857C84.5354 48.1847 84.5831 48.2044 84.6182 48.2395C84.6533 48.2746 84.6729 48.3223 84.6729 48.3719C84.6729 48.4216 84.6533 48.4692 84.6182 48.5043C84.5831 48.5394 84.5354 48.5591 84.4857 48.5591Z" fill="#673737"/>
<path d="M96.5152 43.2542H89.3164V50.453H96.5152V43.2542Z" fill="#FFB43B"/>
<path d="M96.513 50.6403H89.3161C89.2665 50.6403 89.2188 50.6206 89.1837 50.5855C89.1486 50.5503 89.1289 50.5027 89.1289 50.4531V43.2543C89.1289 43.2297 89.1336 43.2054 89.1429 43.1826C89.1528 43.1599 89.1663 43.1393 89.1837 43.1219C89.201 43.1045 89.2216 43.0908 89.2445 43.0814C89.267 43.072 89.2913 43.0671 89.3161 43.0671H96.513C96.5378 43.0671 96.5621 43.072 96.5846 43.0814C96.6075 43.0908 96.6281 43.1045 96.6454 43.1219C96.6628 43.1393 96.6763 43.1599 96.6862 43.1826C96.6955 43.2054 96.7002 43.2297 96.7002 43.2543V50.4531C96.7002 50.5027 96.6805 50.5503 96.6454 50.5855C96.6103 50.6206 96.5626 50.6403 96.513 50.6403ZM89.5014 50.2659H96.3258V43.4415H89.5033L89.5014 50.2659Z" fill="#673737"/>
<path d="M94.9785 44.9672H91.0856C91.036 44.9672 90.9883 44.9475 90.9532 44.9124C90.9181 44.8773 90.8984 44.8296 90.8984 44.78C90.8984 44.7303 90.9181 44.6827 90.9532 44.6476C90.9883 44.6125 91.036 44.5928 91.0856 44.5928H94.9785C95.0281 44.5928 95.0758 44.6125 95.1109 44.6476C95.146 44.6827 95.1657 44.7303 95.1657 44.78C95.1657 44.8296 95.146 44.8773 95.1109 44.9124C95.0758 44.9475 95.0281 44.9672 94.9785 44.9672Z" fill="#673737"/>
<path d="M94.9785 45.9963H91.0856C91.036 45.9963 90.9883 45.9766 90.9532 45.9415C90.9181 45.9064 90.8984 45.8588 90.8984 45.8091C90.8984 45.7594 90.9181 45.7118 90.9532 45.6767C90.9883 45.6416 91.036 45.6219 91.0856 45.6219H94.9785C95.0281 45.6219 95.0758 45.6416 95.1109 45.6767C95.146 45.7118 95.1657 45.7594 95.1657 45.8091C95.1657 45.8588 95.146 45.9064 95.1109 45.9415C95.0758 45.9766 95.0281 45.9963 94.9785 45.9963Z" fill="#673737"/>
<path d="M93.2099 48.5591H91.0856C91.036 48.5591 90.9883 48.5394 90.9532 48.5043C90.9181 48.4692 90.8984 48.4216 90.8984 48.3719C90.8984 48.3223 90.9181 48.2746 90.9532 48.2395C90.9883 48.2044 91.036 48.1847 91.0856 48.1847H93.2099C93.2595 48.1847 93.3072 48.2044 93.3423 48.2395C93.3774 48.2746 93.3971 48.3223 93.3971 48.3719C93.3971 48.4216 93.3774 48.4692 93.3423 48.5043C93.3072 48.5394 93.2595 48.5591 93.2099 48.5591Z" fill="#673737"/>
<path d="M21.5387 73.7061C21.5408 73.737 21.554 73.766 21.5759 73.788C21.5979 73.81 21.627 73.8235 21.658 73.8254L83.6741 73.8137C83.7873 73.8137 83.7457 73.3396 83.7457 32.1514C83.7457 30.5967 83.244 29.8489 81.6462 29.8489H23.6044C23.2591 29.8115 22.91 29.8669 22.5933 30.0095C22.2766 30.1521 22.0036 30.3766 21.8026 30.6599C21.5623 31.1391 21.4708 31.6792 21.5401 32.2108L21.5387 73.7061Z" fill="#673737"/>
<path d="M81.2183 32.3067H24.082V68.9699H81.2183V32.3067Z" fill="#FFB43B"/>
<path d="M93.268 84.5515C93.268 84.5515 85.6864 76.5618 84.5225 75.3169C84.2113 74.9842 84.0573 74.7024 83.5683 74.6964C83.485 74.6964 21.731 74.6964 21.731 74.6964C21.2541 74.7202 21.0608 74.9804 20.7168 75.2692L9.71694 84.7186C9.43614 85.1398 10.5331 85.0284 11.1963 85.0284C11.1963 85.0284 92.0386 85.0466 92.9938 85.0284C93.5418 85.0181 93.5975 84.881 93.268 84.5515Z" fill="#FFE55D"/>
<path d="M81.2558 76.5815C81.1486 76.4383 81.0016 76.3475 80.8622 76.1401L23.3558 76.0807C21.7547 77.4819 21.1889 78.0135 18.6074 80.3278L84.5247 80.34C84.3446 80.1369 82.1609 77.6317 81.2558 76.5815Z" fill="white"/>
<path d="M62.0429 83.4966C61.8557 83.1147 61.1855 82.2213 61.0007 81.912C60.7863 81.5549 60.1793 81.6284 59.8026 81.6284H42.6457C42.2404 81.6284 41.9872 81.7449 41.8969 81.9681C41.8698 82.0229 41.0601 83.564 41.0545 83.5921C40.9516 84.0133 41.5595 84.0826 41.9905 84.0826H61.3063C61.7607 84.0835 62.2362 83.8898 62.0429 83.4966ZM54.4094 81.999C59.9945 81.9944 60.4545 81.9855 60.6478 82.0608C61.0334 82.5461 61.3872 83.0558 61.7078 83.5865C61.7518 83.7189 61.5571 83.7128 61.427 83.7161C59.4783 83.7629 42.005 83.7433 41.823 83.7428C41.2932 83.7428 41.4214 83.6581 41.4893 83.4868C41.5277 83.3988 42.2226 82.1525 42.246 82.1039C42.3359 81.9522 42.2648 82.0084 54.4094 81.999Z" fill="#673737"/>
<path d="M93.5717 84.5229C93.5473 84.4953 84.2234 74.6276 84.1756 74.591C83.9693 74.4633 83.7264 74.409 83.4853 74.4361H21.7262C21.5493 74.4446 21.3758 74.4876 21.2157 74.5634C21.0555 74.6388 20.9119 74.7455 20.793 74.8765C20.793 74.8765 10.3173 83.8757 10.2274 83.9506C9.67707 84.4069 9.33824 84.6994 9.30501 84.9334C9.26105 85.4033 9.33789 85.8769 9.52825 86.3088C9.71545 86.8007 9.85257 87.0225 10.3589 87.0225L93.0358 87.0052C93.7023 86.9041 93.8192 85.7182 93.8389 85.3583C93.8595 85.056 93.764 84.7569 93.5717 84.5229ZM93.3442 84.8477C93.0433 84.9797 93.3288 84.9212 9.78378 84.8543C9.79875 84.7925 20.6414 75.4943 20.9507 75.2191C21.1476 74.9865 21.4282 74.8405 21.7318 74.8134H83.549C83.9856 74.8349 84.1106 75.0731 84.4241 75.3974L93.3442 84.8477Z" fill="#673737"/>
<path d="M84.7565 80.2894C83.8345 79.1662 81.3162 76.3077 81.276 76.2609C81.0064 75.8968 80.9325 75.8813 80.8613 75.8622L23.1799 75.8987C23.0736 75.9951 23.0395 76.0241 18.3595 80.2347C18.3369 80.2351 18.3145 80.2403 18.2939 80.2492C18.2732 80.2585 18.2545 80.2716 18.2389 80.288C18.2233 80.3044 18.2111 80.3236 18.2029 80.3447C18.1948 80.3657 18.1909 80.3882 18.1915 80.4111V80.9961C18.1909 81.0195 18.1952 81.0424 18.2039 81.064C18.2125 81.086 18.2255 81.1056 18.242 81.122C18.2585 81.1384 18.2781 81.1515 18.2998 81.1599C18.3214 81.1688 18.3446 81.173 18.3679 81.1725L84.691 81.1257C84.764 81.0532 84.7485 81.0429 84.7485 80.5337C84.7654 80.5183 84.779 80.4996 84.7888 80.479C84.7981 80.4584 84.8033 80.4359 84.8042 80.413C84.8047 80.3905 84.801 80.3676 84.793 80.3465C84.7846 80.325 84.7724 80.3058 84.7565 80.2894ZM18.9393 80.2206C19.3427 79.8598 20.2614 79.024 20.2614 79.024L83.2074 78.9978C83.4498 79.2734 84.2698 80.2075 84.303 80.2459L18.9393 80.2206ZM23.4059 76.2206L80.793 76.2361C81.0382 76.5557 80.8066 76.2408 81.6654 77.2273C81.6654 77.2273 22.4311 77.2222 22.2762 77.2236C22.7507 76.778 23.3591 76.2586 23.4059 76.2216V76.2206ZM20.6719 78.6673C20.8436 78.5138 21.6547 77.7781 21.8952 77.5685L81.9527 77.5563C82.2714 77.9242 82.5948 78.2976 82.9205 78.6706L20.6719 78.6673Z" fill="#673737"/>
<path d="M89.8084 65.7126L83.0079 67.228C82.897 67.228 82.7613 67.1035 85.4298 68.9938C85.4471 68.9877 91.803 67.8552 91.9561 67.8238L89.8084 65.7126Z" fill="#FFE55D"/>
<path d="M80.7174 64.1856C80.7174 54.3814 80.6706 54.6056 80.8012 54.3786C75.2507 57.3242 75.2909 57.2334 75.1098 57.5521C74.9427 57.8465 75.0026 57.5521 75.0026 67.1326C75.0448 67.1241 80.6912 65.4665 80.8367 65.4145C80.7033 65.2142 80.7174 65.0528 80.7174 64.1856Z" fill="#FFE55D"/>
<path d="M95.7646 54.153C95.7525 54.153 81.5791 54.1474 81.3404 54.153C81.2042 54.1615 81.0765 54.2218 80.9833 54.322C80.8897 54.4217 80.8382 54.5532 80.8392 54.6898C80.8392 62.2312 80.813 64.348 80.8495 65.0181C80.8701 65.4 81.0278 65.6186 81.4111 65.6186C89.8861 65.6186 89.8468 65.5956 89.8936 65.6424C89.9086 65.6546 92.1727 67.8495 92.1868 67.8495C92.2106 67.8378 92.1989 65.6785 92.1989 65.6785C92.1989 65.5933 91.9462 65.6186 95.7061 65.6186C95.781 65.6289 95.8568 65.6228 95.9289 65.6013C96.0014 65.5793 96.0679 65.5423 96.1245 65.4927C96.1812 65.4426 96.2266 65.3813 96.2574 65.3125C96.2879 65.2437 96.3038 65.1688 96.3028 65.0935C96.3028 65.0467 96.3028 54.8092 96.3028 54.7259C96.3056 54.6529 96.2939 54.5799 96.2687 54.5111C96.2429 54.4427 96.2041 54.38 96.154 54.3267C96.1039 54.2733 96.0436 54.2303 95.9766 54.2008C95.9097 54.1708 95.8376 54.1549 95.7646 54.153Z" fill="#FFE55D"/>
<path d="M85.4535 55.6455H82.7929C82.5374 55.6455 82.3301 55.8528 82.3301 56.1083V58.7694C82.3301 59.0249 82.5374 59.2322 82.7929 59.2322H85.4535C85.709 59.2322 85.9164 59.0249 85.9164 58.7694V56.1083C85.9164 55.8528 85.709 55.6455 85.4535 55.6455Z" fill="#673737"/>
<path d="M94.9031 60.1313H82.4356C82.3902 60.1336 82.3476 60.1533 82.3163 60.186C82.2854 60.2188 82.2676 60.2628 82.2676 60.3082C82.2676 60.3531 82.2854 60.3971 82.3163 60.4299C82.3476 60.4626 82.3902 60.4823 82.4356 60.4846H94.8914C94.9373 60.4841 94.9808 60.4664 95.0136 60.4345C95.0463 60.4027 95.0655 60.3592 95.0669 60.3138C95.0688 60.2679 95.0524 60.2235 95.022 60.1893C94.9911 60.1556 94.9485 60.1345 94.9031 60.1313Z" fill="#673737"/>
<path d="M94.9031 61.6228H82.4356C82.3902 61.6251 82.3476 61.6448 82.3163 61.6775C82.2854 61.7103 82.2676 61.7543 82.2676 61.7997C82.2676 61.8446 82.2854 61.8886 82.3163 61.9214C82.3476 61.9541 82.3902 61.9738 82.4356 61.9761H94.8914C94.9373 61.9757 94.9808 61.9579 95.0136 61.9261C95.0463 61.8942 95.0655 61.8507 95.0669 61.8053C95.0688 61.7594 95.0524 61.715 95.022 61.6808C94.9911 61.6471 94.9485 61.6261 94.9031 61.6228Z" fill="#673737"/>
<path d="M96.4248 54.3093C96.3592 54.1984 96.268 54.1053 96.1589 54.037C96.0499 53.9682 95.9263 53.927 95.7981 53.9162H81.3617C81.1057 53.9162 81.2414 53.8811 79.1509 55.002C78.8603 55.1574 75.5098 56.9418 75.3409 57.0322C75.1715 57.123 75.0301 57.2582 74.9314 57.423C74.8322 57.5877 74.7798 57.7758 74.7793 57.9682V67.2383C74.7807 67.2846 74.7994 67.3291 74.8326 67.3619C74.8654 67.3951 74.9099 67.4138 74.9562 67.4152H82.7695C85.5583 69.3864 85.3664 69.2914 85.5162 69.2615L92.1028 68.0873C92.1444 68.1046 92.1908 68.1079 92.2348 68.0971C92.2783 68.0859 92.3171 68.0606 92.3457 68.0255C92.3794 67.9782 92.4037 67.9244 92.4168 67.8678C92.4299 67.8111 92.4313 67.7526 92.4215 67.6951C92.4215 67.6951 92.4262 65.9246 92.4257 65.8643C96.0658 65.8643 95.8632 65.8877 96.0466 65.8076C96.1903 65.7459 96.3115 65.642 96.3953 65.51C96.4786 65.3776 96.5202 65.2236 96.5146 65.0673C96.5128 54.3089 96.5652 54.5597 96.4248 54.3093ZM79.4153 55.2556V65.7215L78.6235 65.9555V55.6773L79.4153 55.2556ZM77.0823 56.4949V66.4057L76.29 66.6397V56.9142L77.0823 56.4949ZM75.1415 66.9711C75.0947 66.9819 75.1195 67.5388 75.1195 58.065C75.1195 57.4922 75.3615 57.3977 75.9151 57.1094V66.7474L75.1415 66.9711ZM77.4567 66.2958V56.2969L78.249 55.8757V66.0636L77.4567 66.2958ZM79.7897 65.612V55.0563L80.5961 54.6271C80.5881 65.3537 80.5586 65.1487 80.6429 65.3556C80.2792 65.4632 80.5006 65.4033 79.7897 65.612ZM85.4773 68.8787C85.4773 68.8787 83.4935 67.4709 83.2632 67.3057C83.2632 67.3057 89.7328 65.8736 89.8002 65.8549C89.9247 65.9738 91.7083 67.7068 91.7555 67.7526L85.4773 68.8787ZM96.1702 65.0687C96.1702 65.2816 96.0298 65.4726 95.6905 65.4763H92.2427C92.2193 65.4758 92.1959 65.48 92.1744 65.4885C92.1524 65.4974 92.1327 65.5105 92.1164 65.5268C92.1 65.5432 92.0869 65.5629 92.078 65.5849C92.0696 65.6064 92.0653 65.6298 92.0658 65.6532V67.572C89.8489 65.4141 89.972 65.5217 89.913 65.5048C89.8517 65.4786 89.9065 65.4885 81.4095 65.4885C81.3524 65.4931 81.2948 65.4861 81.2405 65.4679C81.1862 65.4496 81.1366 65.4206 81.0936 65.3827C81.051 65.3443 81.0168 65.298 80.9925 65.246C80.9686 65.1941 80.955 65.1375 80.9536 65.0804V54.6767C80.9536 54.3253 81.2344 54.2916 81.4249 54.2771C82.0047 54.2331 84.115 54.2569 95.7504 54.2569C95.807 54.2579 95.8627 54.27 95.9142 54.2934C95.9657 54.3164 96.012 54.3496 96.0504 54.3912C96.0883 54.4329 96.1178 54.482 96.1365 54.5354C96.1552 54.5887 96.1627 54.6454 96.1589 54.7015L96.1702 65.0687Z" fill="#673737"/>
<path d="M28.6888 63.0403C28.4548 62.9818 23.26 61.8324 20.9697 61.334C20.9229 61.3808 20.9626 61.334 18.5117 63.7208C18.5117 63.7208 25.6225 64.9844 25.8593 65.0312C25.9787 64.9479 26.0961 64.8618 26.2052 64.7808C26.7232 64.4022 28.3903 63.2547 28.6888 63.0403Z" fill="#FFE55D"/>
<path d="M31.1097 48.5801C31.1696 48.6857 31.2018 48.8047 31.2033 48.926C31.2033 61.0336 31.2735 60.7425 31.084 61.0359C31.1518 61.0701 36.5891 62.687 37.658 63.0043V52.6723C37.659 52.4991 37.6129 52.3288 37.5246 52.1795C37.4363 52.0302 37.3092 51.9079 37.1568 51.8253C36.8488 51.654 31.618 48.8343 31.1097 48.5801Z" fill="#FFE55D"/>
<path d="M21.0415 61.2147C27.7292 61.2147 29.7603 61.2498 30.4483 61.1988C30.7997 61.173 31.0627 61.0247 31.0707 60.6578C31.0796 60.2796 31.074 58.4844 31.074 48.9142C31.074 48.5866 30.9046 48.3058 30.1281 48.2286C29.3517 48.1514 8.26272 48.3175 8.26272 48.3175C8.1058 48.3217 7.95649 48.386 7.8455 48.497C7.7345 48.608 7.67027 48.7573 7.66602 48.9142V60.6184C7.66577 60.6966 7.68104 60.7743 7.71094 60.8468C7.74085 60.9194 7.7848 60.9854 7.84026 61.0406C7.89573 61.0963 7.96161 61.1403 8.03411 61.1698C8.10662 61.1997 8.18431 61.2151 8.26272 61.2147H18.2377C18.2377 61.2147 18.2845 63.6843 18.2971 63.7082C18.3275 63.769 18.4558 63.6094 18.5119 63.5533C18.5358 63.5294 20.8468 61.2147 21.0415 61.2147Z" fill="#FFE55D"/>
<path d="M9.75434 50.0257H12.8328C12.9556 50.0257 13.0733 50.0745 13.1601 50.1613C13.2469 50.2481 13.2957 50.3658 13.2957 50.4886V53.5666C13.2957 53.6892 13.2469 53.8072 13.1601 53.8938C13.0733 53.9808 12.9556 54.0295 12.8328 54.0295H9.75434C9.63146 54.0295 9.51361 53.9808 9.42672 53.8938C9.33983 53.8067 9.29102 53.6892 9.29102 53.5662V50.4891C9.29096 50.4282 9.3029 50.3679 9.32616 50.3117C9.34942 50.2554 9.38355 50.2043 9.42658 50.1613C9.46962 50.1183 9.52072 50.0841 9.57696 50.0609C9.6332 50.0376 9.69348 50.0257 9.75434 50.0257Z" fill="#673737"/>
<path d="M15.242 52.2047H29.2619C29.3072 52.2024 29.3499 52.1828 29.3811 52.15C29.4123 52.1172 29.4297 52.0737 29.4297 52.0283C29.4297 51.9828 29.4123 51.9392 29.3811 51.9063C29.3499 51.8735 29.3072 51.8538 29.2619 51.8515H15.242C15.1967 51.8538 15.1541 51.8735 15.1229 51.9063C15.0916 51.9392 15.0742 51.9828 15.0742 52.0283C15.0742 52.0737 15.0916 52.1172 15.1229 52.15C15.1541 52.1828 15.1967 52.2024 15.242 52.2047Z" fill="#673737"/>
<path d="M15.2428 53.8867H29.2627C29.3095 53.8867 29.3544 53.868 29.3875 53.8353C29.4206 53.802 29.4392 53.7571 29.4392 53.7103C29.4392 53.6635 29.4206 53.6186 29.3875 53.5858C29.3544 53.5526 29.3095 53.5339 29.2627 53.5339H15.2428C15.196 53.5339 15.1512 53.5526 15.1181 53.5858C15.085 53.6186 15.0664 53.6635 15.0664 53.7103C15.0664 53.7571 15.085 53.802 15.1181 53.8353C15.1512 53.868 15.196 53.8867 15.2428 53.8867Z" fill="#673737"/>
<path d="M9.43148 55.8556H29.2616C29.3069 55.8533 29.3495 55.8336 29.3807 55.8009C29.412 55.7681 29.4294 55.7246 29.4294 55.6792C29.4294 55.6338 29.412 55.5903 29.3807 55.557C29.3495 55.5243 29.3069 55.5046 29.2616 55.5023H9.43148C9.3862 55.5046 9.34354 55.5243 9.31231 55.557C9.28109 55.5903 9.26367 55.6338 9.26367 55.6792C9.26367 55.7246 9.28109 55.7681 9.31231 55.8009C9.34354 55.8336 9.3862 55.8533 9.43148 55.8556Z" fill="#673737"/>
<path d="M29.2616 57.1365H9.43148C9.3862 57.1389 9.34354 57.1585 9.31231 57.1913C9.28109 57.2245 9.26367 57.268 9.26367 57.3134C9.26367 57.3584 9.28109 57.4024 9.31231 57.4351C9.34354 57.4679 9.3862 57.4875 9.43148 57.4899H29.2616C29.3069 57.4875 29.3495 57.4679 29.3807 57.4351C29.412 57.4024 29.4294 57.3584 29.4294 57.3134C29.4294 57.268 29.412 57.2245 29.3807 57.1913C29.3495 57.1585 29.3069 57.1389 29.2616 57.1365Z" fill="#673737"/>
<path d="M37.7257 52.0414C37.4828 51.6202 37.6681 51.7953 30.9004 48.1842C30.6476 48.0157 30.8938 47.7045 8.25852 48.0812C8.05915 48.0813 7.86661 48.1538 7.71673 48.2853C7.56684 48.4168 7.46983 48.5982 7.44373 48.7958L7.42969 60.6222C7.43082 60.8174 7.50066 61.0064 7.62696 61.1552C7.75326 61.3041 7.92797 61.4038 8.12046 61.437C8.24354 61.4613 8.1242 61.451 18.0598 61.451V63.6249C18.0598 63.9225 18.247 64.0086 18.4057 63.9487C25.8689 65.2718 25.8296 65.2722 25.8764 65.2722C26.0032 65.2722 25.8188 65.3747 28.8889 63.206C29.4453 63.2233 37.201 63.2467 37.5586 63.2407C37.699 63.2407 37.8862 63.257 37.8862 63.0638C37.8853 52.047 37.9615 52.4519 37.7257 52.0414ZM36.2122 51.4204V62.4184L35.2762 62.1404V50.9173L36.2122 51.4204ZM33.5914 50.0122V61.641L32.6554 61.363V49.5091L33.5914 50.0122ZM25.8548 64.9194C25.7519 64.8997 18.781 63.6586 18.781 63.6586C18.8278 63.6118 18.7848 63.6586 21.0302 61.474L28.4195 63.1021C28.0498 63.3464 25.9456 64.851 25.8548 64.9194ZM30.4656 61.086L20.8777 61.0939C20.8309 61.1127 21.0649 60.903 18.4375 63.4625V61.2746C18.438 61.2512 18.4338 61.2278 18.4251 61.2063C18.4164 61.1847 18.4034 61.1651 18.3868 61.1482C18.3703 61.1318 18.3506 61.1187 18.3289 61.1103C18.3072 61.1014 18.284 61.0972 18.2606 61.0977H8.2866C8.22341 61.0986 8.16072 61.0865 8.10221 61.0626C8.0437 61.0387 7.99054 61.0036 7.94586 60.9587C7.90118 60.9142 7.86587 60.8609 7.842 60.8024C7.81814 60.7439 7.80621 60.6812 7.8069 60.618C7.8069 60.618 7.79894 49.1871 7.8069 48.918C7.80786 48.7907 7.85859 48.6689 7.94824 48.5785C8.03789 48.4882 8.15933 48.4365 8.2866 48.4345C24.1897 48.1486 28.6409 48.348 30.1272 48.3728C30.5353 48.3798 30.9542 48.4626 30.9809 48.9142C30.9809 57.1955 30.9963 59.6226 30.9809 60.3854C30.9715 60.7916 30.8718 61.086 30.4656 61.086ZM31.2397 60.94C31.3548 60.6667 31.3108 60.8464 31.3038 48.7902L32.2786 49.3083V61.2507L31.2397 60.94ZM33.9639 61.751V50.2129L34.8999 50.7165V62.0285L33.9639 61.751ZM37.531 62.8115L36.5866 62.5307V51.6212L37.0915 51.8926C37.2251 51.9654 37.3366 52.0732 37.4139 52.2038C37.4913 52.3349 37.5318 52.4846 37.531 52.6367V62.8115Z" fill="#673737"/>
<path d="M48.1691 53.4478H77.5187C77.6198 53.4473 77.7167 53.4066 77.7883 53.335C77.8594 53.2638 77.9002 53.167 77.9006 53.0659V36.7434H47.7773V53.0645C47.7778 53.1155 47.7883 53.1656 47.8083 53.2124C47.8283 53.2592 47.8573 53.3017 47.8936 53.3373C47.9301 53.3729 47.9731 53.401 48.0203 53.4201C48.0676 53.4389 48.1181 53.4482 48.1691 53.4478Z" fill="white"/>
<path d="M75.4927 39.1906H50.1758V41.7557H75.4927V39.1906Z" fill="#FFE55D"/>
<path d="M50.1758 43.3544V45.9195H75.4946V43.3544H50.1758Z" fill="#FFE55D"/>
<path d="M77.5208 34.6949H48.1692C48.0053 34.6951 47.8481 34.7603 47.7322 34.8762C47.6163 34.9921 47.5511 35.1493 47.551 35.3132V53.0607C47.5488 53.1426 47.5633 53.2245 47.5935 53.3008C47.6237 53.3771 47.6691 53.4463 47.7269 53.5048C47.7846 53.5629 47.8536 53.6092 47.9296 53.6401C48.0056 53.671 48.0871 53.6864 48.1692 53.685H77.5189C77.6827 53.685 77.84 53.6195 77.956 53.5039C78.0716 53.3878 78.1371 53.2306 78.1371 53.0668V35.3132C78.1371 35.1496 78.0721 34.9927 77.9565 34.8769C77.8409 34.761 77.6846 34.6956 77.5208 34.6949ZM77.7857 53.0659C77.7847 53.1356 77.7566 53.2025 77.707 53.2521C77.6574 53.3017 77.5905 53.3298 77.5208 53.3308H48.1692C48.0992 53.3298 48.0323 53.3017 47.9829 53.2521C47.9333 53.2025 47.9052 53.1356 47.9043 53.0659V36.8618H77.7838L77.7857 53.0659Z" fill="#673737"/>
<path d="M75.5644 38.9664H50.1159C50.0926 38.9659 50.0695 38.9701 50.0478 38.9788C50.0262 38.9875 50.0065 39.0005 49.99 39.017C49.9736 39.0335 49.9606 39.0531 49.9519 39.0747C49.9432 39.0964 49.939 39.1196 49.9395 39.1429V41.8273C49.9457 41.8727 49.968 41.9143 50.0024 41.9446C50.0368 41.9748 50.0809 41.9917 50.1267 41.9921H75.5747C75.5967 41.993 75.6182 41.9893 75.6388 41.9814C75.6594 41.9734 75.6776 41.9614 75.6935 41.9459C75.709 41.9304 75.7211 41.9119 75.7291 41.8915C75.7371 41.8711 75.7408 41.8492 75.7399 41.8273V39.1429C75.7403 39.1197 75.7361 39.0965 75.7277 39.075C75.7188 39.0534 75.7062 39.0338 75.6898 39.0173C75.6734 39.0008 75.6538 38.9878 75.6322 38.9791C75.6107 38.9704 75.5878 38.9661 75.5644 38.9664ZM50.3045 41.634V39.3081C54.5998 39.3081 73.6189 39.3188 75.3758 39.3081V41.6387L50.3045 41.634Z" fill="#673737"/>
<path d="M75.5644 43.118H50.1159C50.0926 43.1174 50.0694 43.1217 50.0477 43.1304C50.026 43.1391 50.0063 43.1521 49.9899 43.1687C49.9733 43.1852 49.9604 43.2049 49.9517 43.2266C49.9431 43.2483 49.9389 43.2715 49.9395 43.2949V45.9793C49.9437 46.0256 49.9654 46.0684 50.0002 46.099C50.0351 46.1297 50.0803 46.1458 50.1267 46.1441L75.6397 46.1281C75.6706 46.1183 75.6978 46.0982 75.7155 46.0712C75.7338 46.0442 75.7422 46.0118 75.7399 45.9793V43.2953C75.7404 43.2721 75.7361 43.2489 75.7277 43.2272C75.7193 43.2056 75.7062 43.1859 75.6898 43.1693C75.6734 43.1528 75.6538 43.1397 75.6322 43.1309C75.6107 43.122 75.5878 43.1177 75.5644 43.118ZM50.3046 45.7973V43.4713L75.3758 43.4764V45.8024L50.3046 45.7973Z" fill="#673737"/>
<path d="M74.9431 36.1481C75.0067 36.1481 75.069 36.1292 75.1219 36.0939C75.1747 36.0585 75.2164 36.0082 75.2407 35.9493C75.2651 35.8905 75.2711 35.8258 75.259 35.7633C75.2463 35.7009 75.2159 35.6435 75.1705 35.5985C75.1256 35.5534 75.0685 35.5227 75.0058 35.5103C74.9435 35.4979 74.8785 35.5043 74.82 35.5286C74.761 35.553 74.7105 35.5943 74.6754 35.6472C74.6398 35.7002 74.6211 35.7625 74.6211 35.8262C74.6211 35.8685 74.629 35.9104 74.6454 35.9495C74.6613 35.9886 74.6852 36.0242 74.7152 36.0541C74.7451 36.084 74.7807 36.1077 74.8195 36.1239C74.8588 36.14 74.901 36.1482 74.9431 36.1481Z" fill="#FFE55D"/>
<path d="M76.5432 36.1481C76.6068 36.148 76.669 36.129 76.7219 36.0936C76.7748 36.0582 76.816 36.0079 76.8403 35.949C76.8647 35.8902 76.8708 35.8254 76.8586 35.763C76.8459 35.7006 76.8151 35.6433 76.7701 35.5983C76.7252 35.5533 76.6676 35.5227 76.6054 35.5103C76.5427 35.4979 76.4781 35.5043 76.4191 35.5287C76.3606 35.5531 76.3101 35.5944 76.275 35.6473C76.2394 35.7002 76.2207 35.7625 76.2207 35.8262C76.2207 35.8685 76.2287 35.9105 76.245 35.9497C76.2609 35.9889 76.2848 36.0244 76.3148 36.0544C76.3447 36.0843 76.3803 36.108 76.4196 36.1241C76.4589 36.1402 76.5006 36.1484 76.5432 36.1481Z" fill="#FFE55D"/>
<path d="M42.4427 65.4978H47.2987C47.4932 65.4992 47.6861 65.4618 47.8661 65.3878C48.0461 65.3144 48.2096 65.2053 48.3471 65.0677C48.4846 64.9297 48.5933 64.7663 48.667 64.5862C48.7407 64.406 48.7778 64.2132 48.7761 64.0185V59.1513C48.7783 58.8045 48.659 58.468 48.4389 58.1998C48.2188 57.9317 47.9117 57.7491 47.571 57.6836C47.3698 57.6467 47.4901 57.6598 42.8466 57.6598C42.5079 57.6279 42.1663 57.6687 41.8446 57.7791C41.4773 57.9378 41.1862 58.2331 41.0331 58.6023C40.888 58.9674 40.9259 58.8092 40.9259 63.4583C40.91 63.7447 40.918 64.032 40.9498 64.3171C41.0326 64.6517 41.2242 64.9489 41.4944 65.1627C41.7647 65.3766 42.0982 65.4941 42.4427 65.4978Z" fill="white"/>
<path d="M49.0387 59.1508C49.037 58.7717 48.911 58.4039 48.6801 58.1034C48.4491 57.803 48.1259 57.5863 47.7601 57.4871C47.4977 57.4281 47.2283 57.4061 46.9598 57.4215C42.0884 57.4623 42.2087 57.379 41.7884 57.5521C41.4676 57.6827 41.1943 57.9083 41.0047 58.198C40.8151 58.4876 40.7182 58.8284 40.727 59.1747C40.727 64.3227 40.7106 64.1467 40.764 64.3582C40.8361 64.749 41.0443 65.1014 41.3516 65.3532C41.6589 65.6055 42.0454 65.7402 42.4427 65.7342H47.3365C47.7636 65.7253 48.1725 65.5601 48.4861 65.2704C48.7997 64.9802 48.9961 64.5852 49.0382 64.1603C49.049 64.0442 49.0405 62.4961 49.0387 59.1508ZM48.6853 59.1386V64.0058C48.6868 64.1851 48.6526 64.3629 48.5847 64.5291C48.5167 64.6952 48.4165 64.8459 48.2896 64.9727C48.1628 65.0996 48.0121 65.1997 47.8461 65.2676C47.6801 65.3354 47.5023 65.3696 47.323 65.3682H42.4558C42.1379 65.3682 41.8297 65.2582 41.5832 65.0574C41.3367 64.8571 41.1669 64.5773 41.1023 64.266C41.048 64.0278 41.0686 64.1809 41.0696 59.1854C41.0629 58.9074 41.1399 58.6337 41.2907 58.4001C41.4415 58.1666 41.6591 57.9836 41.9152 57.875C42.1717 57.7861 42.4431 57.7487 42.7141 57.7641C47.5705 57.7641 47.3941 57.7534 47.5762 57.7861C47.8901 57.846 48.1731 58.0145 48.3758 58.2616C48.5785 58.5087 48.688 58.819 48.6853 59.1386Z" fill="#673737"/>
<path d="M46.5643 59.6286C46.3915 59.331 46.1435 59.0839 45.8452 58.9121C45.5469 58.7404 45.2088 58.65 44.8646 58.65C44.5203 58.65 44.1822 58.7404 43.8839 58.9121C43.5856 59.0839 43.3376 59.331 43.1648 59.6286C42.9904 59.9267 42.8984 60.266 42.8984 60.6114C42.8984 60.9568 42.9904 61.2961 43.1648 61.5942L44.7635 64.3624C44.7738 64.3802 44.7885 64.3952 44.8063 64.4055C44.8241 64.4158 44.8442 64.4209 44.8648 64.4209C44.8853 64.4209 44.9055 64.4158 44.9233 64.4055C44.9411 64.3952 44.9559 64.3802 44.9661 64.3624L46.5643 61.5947C46.7389 61.2966 46.8309 60.9573 46.8309 60.6119C46.8309 60.266 46.7389 59.9267 46.5643 59.6286ZM45.5113 60.6901C45.5113 60.8178 45.4734 60.9432 45.4023 61.0495C45.3312 61.1557 45.2302 61.2385 45.1121 61.2877C44.9939 61.3364 44.8638 61.3495 44.7384 61.3247C44.6129 61.2994 44.4977 61.2381 44.4072 61.1473C44.3168 61.057 44.2552 60.9418 44.2302 60.8164C44.2052 60.691 44.2181 60.5609 44.267 60.4425C44.316 60.3245 44.3988 60.2235 44.5052 60.1523C44.6116 60.0812 44.7366 60.0433 44.8646 60.0433C45.0354 60.0456 45.1987 60.1144 45.3195 60.2352C45.4403 60.3559 45.5091 60.5192 45.5113 60.6901Z" fill="#673737"/>
<path d="M20.2413 46.146H25.0968C25.2915 46.1477 25.4846 46.1105 25.6648 46.0367C25.845 45.9629 26.0088 45.854 26.1464 45.7163C26.2841 45.5787 26.393 45.4149 26.4668 45.2347C26.5406 45.0545 26.5777 44.8614 26.5761 44.6667V39.7995C26.5782 39.4527 26.4589 39.1161 26.2389 38.8481C26.0189 38.58 25.712 38.3974 25.3715 38.3318C25.1698 38.2948 25.29 38.308 20.6447 38.308C20.3065 38.2768 19.9657 38.3178 19.6446 38.4282C19.2774 38.5869 18.9864 38.8821 18.8331 39.2514C18.6884 39.6165 18.702 44.6919 18.7497 44.9667C18.8312 45.3015 19.0222 45.5994 19.2925 45.8131C19.5628 46.0268 19.8967 46.144 20.2413 46.146Z" fill="white"/>
<path d="M26.8237 39.7989C26.8237 38.8756 26.1849 38.0585 24.7448 38.0673C19.8074 38.1067 19.9913 38.0252 19.5734 38.1979C19.2527 38.3286 18.9793 38.5538 18.7898 38.8437C18.6003 39.1335 18.5035 39.4743 18.5125 39.8205C18.5125 44.8884 18.4947 44.7986 18.5504 45.0195C18.6255 45.4077 18.8347 45.7572 19.1416 46.0067C19.4484 46.2562 19.8332 46.3898 20.2286 46.3842H25.1216C25.5485 46.3753 25.9574 46.2103 26.271 45.9204C26.5845 45.6305 26.781 45.2357 26.8232 44.8108C26.834 44.6895 26.8274 43.2322 26.8237 39.7989ZM26.4582 39.7989V44.6662C26.4597 44.8455 26.4256 45.0234 26.3576 45.1894C26.2897 45.3554 26.1894 45.5063 26.0627 45.6331C25.9358 45.76 25.785 45.8603 25.619 45.9283C25.453 45.9963 25.2752 46.0305 25.0958 46.029H20.2403C19.9224 46.0288 19.6143 45.9191 19.3677 45.7184C19.1212 45.5177 18.9514 45.2381 18.8869 44.9268C18.8326 44.6886 18.8532 44.8519 18.8541 39.8467C18.8473 39.5686 18.9244 39.295 19.0752 39.0613C19.226 38.8276 19.4436 38.6447 19.6998 38.5363C19.9565 38.4473 20.2283 38.4095 20.4996 38.4254C25.32 38.4254 25.1656 38.4141 25.349 38.4474C25.6629 38.5072 25.9458 38.6752 26.1484 38.9222C26.3511 39.1692 26.4607 39.4794 26.4582 39.7989Z" fill="#673737"/>
<path d="M24.7924 41.473C24.2963 41.3948 23.7464 41.2788 23.6247 41.2718C23.5283 41.0878 23.5311 41.0888 23.1511 40.2422C23.1372 40.2002 23.1149 40.1615 23.0857 40.1283C23.0564 40.0952 23.0207 40.0684 22.9808 40.0494C22.9409 40.0304 22.8975 40.0197 22.8533 40.0179C22.8092 40.0162 22.7651 40.0233 22.7238 40.039C22.5951 40.0938 22.6166 40.0929 22.0882 41.0934C22.0269 41.2465 22.0269 41.2465 21.8126 41.2474C20.7774 41.3747 20.6838 41.3508 20.6033 41.5334C20.568 41.6037 20.5591 41.6843 20.5783 41.7607C20.5976 41.837 20.6436 41.9038 20.7081 41.949C21.3633 42.5971 21.4569 42.6748 21.4948 42.7329C21.4954 42.7617 21.4911 42.7905 21.4822 42.818L21.295 43.7802C21.2061 44.1822 21.471 44.3503 21.7592 44.2122C22.7392 43.7442 22.5272 43.8102 22.758 43.7054C22.7687 43.7021 22.7734 43.7054 22.8427 43.7437C23.8255 44.3208 23.8395 44.3222 23.9528 44.3222C23.9985 44.3208 24.0434 44.3096 24.0844 44.2893C24.1255 44.269 24.1616 44.2401 24.1904 44.2046C24.2192 44.169 24.2401 44.1277 24.2515 44.0834C24.2629 44.039 24.2646 43.9928 24.2565 43.9478C24.2289 43.7259 24.2499 43.9478 24.0843 42.7881C24.3426 42.5728 24.7058 42.262 24.9393 42.0196C24.9809 41.9795 25.011 41.9289 25.0264 41.8733C25.0418 41.8176 25.042 41.7588 25.027 41.703C25.012 41.6471 24.9824 41.5964 24.9411 41.5559C24.8998 41.5155 24.8485 41.4868 24.7924 41.473Z" fill="#673737"/>
<path d="M30.9727 28.6835L31.026 36.6971H43.385V28.6835H30.9727Z" fill="#FFE55D"/>
<path d="M31.8848 30.5733C31.8848 30.5733 37.1404 33.8371 37.1821 33.8661C37.4048 33.7094 42.5173 30.3823 42.5173 30.3823L42.4349 36.6821H43.3284V28.8314C43.2816 28.8651 37.6061 32.4911 37.1976 32.7804C37.1508 32.8272 37.1774 32.8019 31.0771 28.8674C31.0031 28.8305 31.0303 28.2178 31.0303 36.6699H31.8174L31.8848 30.5733Z" fill="#FFB43B"/>
<path d="M43.3858 28.5117H30.966C30.9427 28.5112 30.9194 28.5153 30.8977 28.524C30.8761 28.5327 30.8564 28.5456 30.8398 28.5621C30.8233 28.5786 30.8103 28.5983 30.8015 28.6199C30.7928 28.6416 30.7886 28.6648 30.7891 28.6882V36.7298C30.7886 36.7532 30.7928 36.7764 30.8015 36.7981C30.8103 36.8197 30.8233 36.8394 30.8398 36.8559C30.8564 36.8724 30.8761 36.8853 30.8977 36.894C30.9194 36.9026 30.9427 36.9068 30.966 36.9063H43.3858C43.4091 36.9068 43.4323 36.9026 43.4539 36.8938C43.4756 36.8852 43.4952 36.8722 43.5117 36.8557C43.5282 36.8392 43.5411 36.8196 43.5498 36.798C43.5585 36.7763 43.5627 36.7531 43.5622 36.7298V28.6882C43.5627 28.6649 43.5585 28.6417 43.5498 28.62C43.5411 28.5984 43.5282 28.5788 43.5117 28.5623C43.4952 28.5458 43.4756 28.5328 43.4539 28.5241C43.4323 28.5154 43.4091 28.5112 43.3858 28.5117ZM37.1974 32.4986L31.5234 28.8651H42.8284L37.1974 32.4986ZM31.7078 30.621V36.5267L31.1541 36.5412V29.0462L37.0509 32.851C37.0783 32.877 37.1137 32.8927 37.1513 32.8956C37.1889 32.8985 37.2263 32.8884 37.2573 32.8669L43.207 29.0317V36.5529H42.6318C42.7011 32.3409 42.7474 30.9912 42.7254 30.5335C42.7161 30.3196 42.6482 30.175 42.4577 30.2728C42.3571 30.3243 37.3617 33.575 37.1745 33.7122C36.8511 33.51 32.0139 30.4736 31.9614 30.4614C31.9344 30.4486 31.9046 30.4428 31.8748 30.4445C31.8449 30.4462 31.816 30.4555 31.7907 30.4714C31.7654 30.4874 31.7445 30.5094 31.73 30.5356C31.7155 30.5617 31.7079 30.5911 31.7078 30.621ZM32.049 30.9173C37.2232 34.1427 37.1221 34.1502 37.2943 34.0351L42.3613 30.723L42.2677 36.529H32.049V30.9173Z" fill="#673737"/>
<path d="M28.8457 27.3881L28.8991 35.4016H41.258V27.3881H28.8457Z" fill="#FFE55D"/>
<path d="M29.7573 29.2778C29.7573 29.2778 35.0125 32.5416 35.0546 32.5707C35.2774 32.4134 40.3898 29.0869 40.3898 29.0869L40.306 35.3862H41.1995V27.5359C41.1527 27.5696 35.4772 31.1957 35.0687 31.4849C35.0219 31.5317 35.049 31.5064 28.9481 27.572C28.8742 27.535 28.9013 26.9224 28.9013 35.3745H29.689L29.7573 29.2778Z" fill="#FFB43B"/>
<path d="M41.2594 27.2163H28.841C28.8177 27.2157 28.7944 27.2199 28.7727 27.2285C28.7511 27.2372 28.7313 27.2502 28.7148 27.2667C28.6983 27.2831 28.6853 27.3028 28.6765 27.3245C28.6678 27.3461 28.6636 27.3693 28.6641 27.3927V35.4329C28.6636 35.4563 28.6678 35.4795 28.6765 35.5012C28.6853 35.5228 28.6983 35.5425 28.7148 35.559C28.7313 35.5755 28.7511 35.5885 28.7727 35.5972C28.7944 35.6058 28.8177 35.61 28.841 35.6094H41.2594C41.2827 35.61 41.306 35.6058 41.3276 35.5972C41.3493 35.5885 41.369 35.5755 41.3856 35.559C41.4021 35.5425 41.4151 35.5228 41.4238 35.5012C41.4325 35.4795 41.4368 35.4563 41.4363 35.4329V27.3927C41.4368 27.3693 41.4325 27.3461 41.4238 27.3245C41.4151 27.3028 41.4021 27.2831 41.3856 27.2667C41.369 27.2502 41.3493 27.2372 41.3276 27.2285C41.306 27.2199 41.2827 27.2157 41.2594 27.2163ZM35.0715 31.2032L29.3975 27.5705H40.7025L35.0715 31.2032ZM29.5819 29.3255V35.2312L29.0282 35.2457V27.7507L34.925 31.5556C34.9523 31.5815 34.9878 31.5972 35.0253 31.6001C35.0629 31.603 35.1004 31.5929 35.1314 31.5715L41.0834 27.7362V35.2574H40.5059C40.5752 31.0454 40.621 29.6957 40.5995 29.238C40.5901 29.0242 40.5228 28.8795 40.3318 28.9774C40.2312 29.0288 35.2358 32.2796 35.0486 32.4167C34.7256 32.2145 29.8884 29.1781 29.836 29.166C29.809 29.153 29.7791 29.1471 29.7492 29.1488C29.7193 29.1505 29.6902 29.1597 29.6649 29.1757C29.6395 29.1916 29.6186 29.2137 29.6041 29.2399C29.5895 29.2662 29.5819 29.2956 29.5819 29.3255ZM29.923 29.6218C35.0972 32.8472 34.9961 32.8547 35.1684 32.7396L40.2349 29.4276L40.1413 35.2336H29.923V29.6218Z" fill="#673737"/>
<path d="M26.7168 26.0927L26.7701 34.1063H39.129V26.0927H26.7168Z" fill="#FFE55D"/>
<path d="M27.6294 27.9825C27.6294 27.9825 32.8846 31.2463 32.9263 31.2753C33.149 31.1181 38.2615 27.7915 38.2615 27.7915L38.1791 34.0913H39.0725V26.2406C39.0257 26.2743 33.3503 29.9003 32.9417 30.1896C32.8949 30.2364 32.9216 30.2111 26.8212 26.2766C26.7473 26.2396 26.7744 25.627 26.7744 34.0791H27.562L27.6294 27.9825Z" fill="#FFB43B"/>
<path d="M39.1299 25.9209H26.7101C26.6868 25.9204 26.6636 25.9245 26.6419 25.9332C26.6202 25.9419 26.6005 25.9548 26.584 25.9713C26.5674 25.9878 26.5544 26.0075 26.5457 26.0291C26.537 26.0508 26.5327 26.074 26.5332 26.0974V34.139C26.5327 34.1624 26.537 34.1856 26.5457 34.2072C26.5544 34.2289 26.5674 34.2486 26.584 34.2651C26.6005 34.2816 26.6202 34.2945 26.6419 34.3032C26.6636 34.3118 26.6868 34.316 26.7101 34.3154H39.1299C39.1532 34.316 39.1764 34.3118 39.1981 34.303C39.2197 34.2944 39.2394 34.2814 39.2558 34.2649C39.2723 34.2484 39.2853 34.2288 39.294 34.2072C39.3027 34.1855 39.3069 34.1623 39.3064 34.139V26.0974C39.3069 26.0741 39.3027 26.0509 39.294 26.0293C39.2853 26.0076 39.2723 25.9879 39.2558 25.9715C39.2394 25.955 39.2197 25.942 39.1981 25.9333C39.1764 25.9246 39.1532 25.9204 39.1299 25.9209ZM32.9416 29.9078L27.2675 26.2743H38.5735L32.9416 29.9078ZM27.4519 28.0302V33.9354L26.8988 33.9499V26.4554L32.7956 30.2602C32.8229 30.2862 32.8584 30.3019 32.8959 30.3048C32.9335 30.3077 32.971 30.2976 33.0019 30.2761L38.9535 26.4409V33.9621H38.376C38.4452 29.7501 38.4916 28.4004 38.4696 27.9427C38.4602 27.7288 38.3924 27.5842 38.2019 27.682C38.1013 27.7335 33.1058 30.9842 32.9186 31.1213C32.5952 30.9192 27.758 27.8828 27.7056 27.8706C27.6786 27.8578 27.6488 27.8519 27.619 27.8537C27.5891 27.8555 27.5602 27.8647 27.5349 27.8806C27.5095 27.8965 27.4887 27.9186 27.4742 27.9448C27.4597 27.9709 27.452 28.0003 27.4519 28.0302ZM27.7931 28.3265C32.9673 31.5519 32.8662 31.5594 33.0384 31.4443L38.1055 28.1322L38.0119 33.9382H27.7931V28.3265Z" fill="#673737"/>
<path d="M24.5898 24.7973L24.6432 32.8108H37.0021V24.7973H24.5898Z" fill="white"/>
<path d="M25.5017 26.687C25.5017 26.687 30.7587 29.9508 30.799 29.9798C31.0217 29.8226 36.1342 26.4961 36.1342 26.4961L36.0523 32.7958H36.9457V24.9451C36.8989 24.9788 31.2235 28.6049 30.8149 28.8941C30.7681 28.9409 30.7948 28.9156 24.6944 24.9811C24.62 24.9442 24.6476 24.3316 24.6476 32.7836H25.4348L25.5017 26.687Z" fill="#FFB43B"/>
<path d="M37.0029 24.6255H24.5812C24.5579 24.6249 24.5347 24.6291 24.513 24.6377C24.4913 24.6464 24.4716 24.6593 24.455 24.6759C24.4385 24.6923 24.4255 24.712 24.4168 24.7337C24.408 24.7554 24.4038 24.7786 24.4043 24.8019V32.8435C24.4039 32.8669 24.4082 32.8901 24.4169 32.9117C24.4256 32.9334 24.4386 32.953 24.4552 32.9695C24.4717 32.986 24.4914 32.9989 24.5131 33.0076C24.5347 33.0163 24.5579 33.0205 24.5812 33.02H37.0029C37.0263 33.0205 37.0494 33.0163 37.0711 33.0076C37.0928 32.9989 37.1124 32.986 37.129 32.9695C37.1455 32.953 37.1585 32.9334 37.1673 32.9117C37.176 32.8901 37.1803 32.8669 37.1798 32.8435V24.8019C37.1803 24.7786 37.1761 24.7554 37.1674 24.7337C37.1587 24.712 37.1456 24.6923 37.1291 24.6759C37.1126 24.6593 37.0928 24.6464 37.0712 24.6377C37.0495 24.6291 37.0263 24.6249 37.0029 24.6255ZM30.815 28.6124L25.1428 24.9783H36.446L30.815 28.6124ZM25.3254 26.7347V32.6404L24.7717 32.6549V25.1599L30.6685 28.9648C30.6959 28.9907 30.7313 29.0065 30.7689 29.0094C30.8065 29.0122 30.8439 29.0021 30.8749 28.9807L36.8269 25.1454V32.6666H36.2494C36.3187 28.4546 36.3645 27.1049 36.343 26.6472C36.3337 26.4333 36.2663 26.2887 36.0753 26.3865C35.9747 26.438 30.9793 29.6888 30.7921 29.8259C30.4692 29.6237 25.6319 26.5873 25.5795 26.5752C25.5525 26.5622 25.5226 26.5563 25.4927 26.558C25.4628 26.5597 25.4338 26.5689 25.4084 26.5849C25.383 26.6008 25.3621 26.6229 25.3476 26.6491C25.333 26.6753 25.3254 26.7048 25.3254 26.7347ZM25.6665 27.031C30.8407 30.2564 30.7397 30.2639 30.9119 30.1488L35.9784 26.8368L35.8848 32.6428H25.6665V27.031Z" fill="#673737"/>
<path d="M69.7052 55.1597H58.5977V62.3823H69.7052V55.1597Z" fill="#FFE55D"/>
<path d="M59.3983 56.9657L64.2066 59.8528L68.9802 56.727L68.8969 62.3819H69.7079V55.3432C69.517 55.4742 64.2197 58.8742 64.2197 58.8742L58.6973 55.3549V62.3819H59.3993L59.3983 56.9657Z" fill="#FFB43B"/>
<path d="M69.7414 55.0591H58.5983C58.5548 55.06 58.5136 55.0778 58.4832 55.1087C58.4523 55.1391 58.4345 55.1803 58.4336 55.2238C58.4336 55.2238 58.4575 62.3285 58.4575 62.4273C58.4584 62.4708 58.4762 62.5124 58.5066 62.5433C58.5375 62.5747 58.5787 62.5929 58.6222 62.5943H69.7414C69.7849 62.5934 69.8261 62.5756 69.857 62.5452C69.8879 62.5143 69.9057 62.4731 69.9066 62.4296V55.2224C69.9052 55.1794 69.8874 55.1382 69.8565 55.1078C69.8256 55.0773 69.7845 55.06 69.7414 55.0591ZM69.1293 55.4475L64.2195 58.6299L59.1538 55.3871C70.3203 55.3881 69.2463 55.3628 69.1293 55.4475ZM59.2685 56.9652V62.2625L58.8005 62.2649V55.5692C64.2213 59.0492 64.1357 59.0572 64.2691 58.9734C64.366 58.9135 69.5364 55.5814 69.5785 55.557V62.2663H69.0848C69.0848 62.2195 69.1817 56.874 69.1681 56.7762C69.1676 56.7453 69.1588 56.7153 69.1428 56.6891C69.1265 56.6624 69.104 56.6409 69.0768 56.6264C69.0497 56.6114 69.0193 56.6044 68.9884 56.6054C68.9575 56.6063 68.9276 56.6157 68.9013 56.632C68.8545 56.6657 64.5639 59.4644 64.1937 59.7138C59.6293 56.8833 59.553 56.8262 59.5048 56.8174C59.4796 56.8071 59.4524 56.8028 59.4253 56.8052C59.3981 56.8075 59.3719 56.8164 59.349 56.8309C59.3256 56.8454 59.3064 56.8651 59.2924 56.8885C59.2783 56.9119 59.2704 56.9381 59.2685 56.9652ZM59.6218 57.2928C64.1741 60.1205 64.0753 60.0887 64.1937 60.0887C64.2761 60.0887 64.2185 60.1069 68.8363 57.0715C68.8363 57.1183 68.8293 57.0794 68.7539 62.2663H59.6218V57.2928Z" fill="#673737"/>
<path d="M67.7852 53.9869H56.6777V61.2095H67.7852V53.9869Z" fill="#FFE55D"/>
<path d="M57.4769 55.791L62.2847 58.6781L67.0583 55.5524L66.9745 61.2077H67.786V54.1703C67.5951 54.3014 62.2978 57.7019 62.2978 57.7019L56.7754 54.1825V61.2095H57.4774L57.4769 55.791Z" fill="#FFB43B"/>
<path d="M67.8215 53.8863H56.6779C56.6344 53.8877 56.5937 53.905 56.5628 53.9359C56.5324 53.9663 56.5146 54.008 56.5137 54.051C56.5137 54.051 56.5371 61.1557 56.5375 61.2549C56.5385 61.2985 56.5563 61.3401 56.5867 61.371C56.6176 61.4024 56.6588 61.4201 56.7023 61.422H67.8215C67.865 61.4211 67.9062 61.4033 67.9366 61.3724C67.9675 61.342 67.9848 61.3008 67.9862 61.2573V54.0501C67.9848 54.007 67.967 53.9658 67.9361 53.9354C67.9057 53.905 67.8645 53.8877 67.8215 53.8863ZM67.2089 54.2752L62.2991 57.4576L57.2339 54.2148C68.4004 54.2157 67.3263 54.19 67.2089 54.2752ZM57.3486 55.791V61.0883H56.8806V54.3964C62.3014 57.8769 62.2158 57.8844 62.3496 57.8011C62.4465 57.7407 67.617 54.409 67.6586 54.3847V61.0944H67.1653C67.1653 61.0476 67.2618 55.7016 67.2482 55.6038C67.2477 55.5729 67.2388 55.543 67.2229 55.5163C67.207 55.4901 67.1841 55.4686 67.1569 55.4536C67.1298 55.4391 67.0994 55.4321 67.0685 55.433C67.0376 55.4344 67.0076 55.4438 66.9814 55.4602C66.9346 55.4934 62.644 58.2925 62.2743 58.5415C57.7099 55.7115 57.6336 55.6544 57.5849 55.6455C57.5597 55.6352 57.5325 55.631 57.5058 55.6329C57.4787 55.6352 57.4525 55.6436 57.4295 55.6581C57.4066 55.6722 57.387 55.6918 57.3729 55.7148C57.3589 55.7377 57.3505 55.7639 57.3486 55.791ZM57.7019 56.1186C62.2542 58.9458 62.1554 58.914 62.2738 58.914C62.3562 58.914 62.2982 58.9327 66.9164 55.8968C66.9164 55.9436 66.9089 55.9052 66.8335 61.0916H57.7019V56.1186Z" fill="#673737"/>
<path d="M65.8634 52.8145H54.7559V60.0372H65.8634V52.8145Z" fill="#FFE55D"/>
<path d="M55.5565 54.621L60.3648 57.5081L65.1384 54.3823L65.0551 60.0372H65.8661V52.9985C65.6752 53.1295 60.3779 56.53 60.3779 56.53L54.8555 53.0102V60.0372H55.5575L55.5565 54.621Z" fill="#FFB43B"/>
<path d="M65.9001 52.7139H54.7565C54.713 52.7149 54.6718 52.7326 54.6414 52.7635C54.6105 52.794 54.5927 52.8356 54.5918 52.8787C54.5918 52.8787 54.6157 59.9834 54.6157 60.0821C54.6166 60.1256 54.6344 60.1673 54.6648 60.1982C54.6957 60.2295 54.7369 60.2478 54.7804 60.2492H65.9001C65.9436 60.2483 65.9848 60.2305 66.0152 60.2001C66.0461 60.1692 66.0639 60.128 66.0648 60.0845V52.8773C66.0634 52.8342 66.0456 52.7935 66.0147 52.7631C65.9843 52.7326 65.9431 52.7149 65.9001 52.7139ZM65.2875 53.1024L60.3777 56.2848L55.312 53.042C66.4785 53.0429 65.4049 53.0177 65.2875 53.1024ZM55.4272 54.621V59.9183H54.9592V53.224C60.38 56.7041 60.2944 56.7121 60.4278 56.6287C60.5246 56.5684 65.6951 53.2362 65.7372 53.2123V59.9216H65.2435C65.2435 59.8748 65.3404 54.5293 65.3268 54.4315C65.3263 54.4006 65.3179 54.3706 65.3015 54.344C65.2856 54.3178 65.2631 54.2958 65.2355 54.2813C65.2084 54.2663 65.178 54.2593 65.1471 54.2602C65.1162 54.2616 65.0862 54.271 65.06 54.2873C65.0132 54.321 60.7226 57.1197 60.3524 57.3691C55.788 54.5387 55.7117 54.4816 55.6635 54.4727C55.6382 54.4624 55.6111 54.4582 55.584 54.4605C55.5568 54.4628 55.5306 54.4717 55.5072 54.4862C55.4843 54.5007 55.4651 54.5204 55.451 54.5438C55.437 54.5677 55.429 54.5939 55.4272 54.621ZM55.78 54.9486C60.3327 57.7763 60.234 57.7445 60.3519 57.7445C60.4343 57.7445 60.3767 57.7627 64.9945 54.7273C64.9945 54.7741 64.9875 54.7352 64.9121 59.9221H55.78V54.9486Z" fill="#673737"/>
<path d="M63.9434 51.6418H52.8359V58.8644H63.9434V51.6418Z" fill="white"/>
<path d="M53.6366 53.4478L58.4448 56.3348L63.2184 53.2091L63.1347 58.8644H63.9462V51.8252C63.7552 51.9567 58.4579 55.3567 58.4579 55.3567L52.9355 51.8374V58.8644H53.6375L53.6366 53.4478Z" fill="#FFB43B"/>
<path d="M63.9797 51.5411H52.8361C52.7931 51.5423 52.7519 51.5601 52.721 51.5907C52.6906 51.6214 52.6728 51.6626 52.6719 51.7059C52.6719 51.7059 52.6953 58.8106 52.6957 58.9098C52.6967 58.9533 52.7145 58.995 52.7449 59.0258C52.7758 59.0572 52.817 59.0755 52.8605 59.0769H63.9797C64.0232 59.0759 64.0644 59.0581 64.0953 59.0273C64.1257 58.9968 64.1435 58.9556 64.1449 58.9121V51.7049C64.1435 51.6617 64.1257 51.6207 64.0948 51.5902C64.0639 51.5598 64.0227 51.5422 63.9797 51.5411ZM63.3671 51.93L58.4573 55.1124L53.3921 51.8697C64.5586 51.8706 63.4845 51.8449 63.3671 51.93ZM53.5049 53.4478V58.745H53.0369V52.0512C58.4578 55.5318 58.3721 55.5397 58.506 55.4559C58.6028 55.3956 63.7733 52.0639 63.815 52.0395V58.7493H63.3217C63.3217 58.7025 63.4181 53.3565 63.405 53.2587C63.4045 53.2278 63.3956 53.1978 63.3792 53.1712C63.3633 53.145 63.3404 53.1234 63.3133 53.1089C63.2861 53.0939 63.2557 53.0869 63.2248 53.0883C63.1939 53.0893 63.164 53.0986 63.1378 53.115C63.091 53.1482 58.8008 55.9473 58.4306 56.1963C53.8662 53.3663 53.7899 53.3092 53.7417 53.3003C53.7165 53.29 53.6893 53.2858 53.6622 53.2882C53.635 53.29 53.6088 53.2989 53.5854 53.3134C53.5625 53.3279 53.5428 53.3476 53.5288 53.371C53.5147 53.3944 53.5068 53.4206 53.5049 53.4478ZM53.8583 53.7754C58.4105 56.6025 58.3117 56.5707 58.4301 56.5707C58.5125 56.5707 58.4545 56.5894 63.0727 53.5535C63.0727 53.6003 63.0652 53.5619 62.9899 58.7483H53.8601L53.8583 53.7754Z" fill="#673737"/>
</svg>
