<svg width="61" height="60" viewBox="0 0 61 60" fill="none" xmlns="http://www.w3.org/2000/svg">
<rect x="0.5" width="60" height="60" rx="30" fill="#FFFBEB"/>
<path d="M35.9998 11.6667V30.0001C35.9998 32.0167 34.3498 33.6667 32.3332 33.6667H12.1665V19.0001C12.1665 14.9484 15.4482 11.6667 19.4998 11.6667H35.9998Z" stroke="#D97706" stroke-width="2.75" stroke-linecap="round" stroke-linejoin="round"/>
<path d="M48.8332 33.6667V39.1667C48.8332 42.2101 46.3765 44.6667 43.3332 44.6667H41.4998C41.4998 42.6501 39.8498 41.0001 37.8332 41.0001C35.8165 41.0001 34.1665 42.6501 34.1665 44.6667H26.8332C26.8332 42.6501 25.1832 41.0001 23.1665 41.0001C21.1498 41.0001 19.4998 42.6501 19.4998 44.6667H17.6665C14.6232 44.6667 12.1665 42.2101 12.1665 39.1667V33.6667H32.3332C34.3498 33.6667 35.9998 32.0167 35.9998 30.0001V17.1667H39.3732C40.6932 17.1667 41.9031 17.8818 42.5631 19.0184L45.6982 24.5001H43.3332C42.3248 24.5001 41.4998 25.3251 41.4998 26.3334V31.8334C41.4998 32.8417 42.3248 33.6667 43.3332 33.6667H48.8332Z" stroke="#D97706" stroke-width="2.75" stroke-linecap="round" stroke-linejoin="round"/>
<path d="M23.1667 48.3333C25.1917 48.3333 26.8333 46.6917 26.8333 44.6667C26.8333 42.6416 25.1917 41 23.1667 41C21.1416 41 19.5 42.6416 19.5 44.6667C19.5 46.6917 21.1416 48.3333 23.1667 48.3333Z" stroke="#D97706" stroke-width="2.75" stroke-linecap="round" stroke-linejoin="round"/>
<path d="M37.8332 48.3333C39.8582 48.3333 41.4998 46.6917 41.4998 44.6667C41.4998 42.6416 39.8582 41 37.8332 41C35.8081 41 34.1665 42.6416 34.1665 44.6667C34.1665 46.6917 35.8081 48.3333 37.8332 48.3333Z" stroke="#D97706" stroke-width="2.75" stroke-linecap="round" stroke-linejoin="round"/>
<path d="M48.8333 30V33.6667H43.3333C42.325 33.6667 41.5 32.8417 41.5 31.8333V26.3333C41.5 25.325 42.325 24.5 43.3333 24.5H45.6983L48.8333 30Z" stroke="#D97706" stroke-width="2.75" stroke-linecap="round" stroke-linejoin="round"/>
</svg>
