<svg width="18" height="18" viewBox="0 0 18 18" fill="none" xmlns="http://www.w3.org/2000/svg">
<path fill-rule="evenodd" clip-rule="evenodd" d="M13.4135 9.10994C13.1375 9.10994 12.8968 8.90669 12.857 8.62544C12.8143 8.31719 13.028 8.03294 13.3363 7.99019C14.1163 7.88069 14.705 7.20419 14.7065 6.41519C14.7065 5.63294 14.1455 4.97144 13.3723 4.84469C13.0663 4.79444 12.8585 4.50494 12.9088 4.19819C12.9598 3.89144 13.247 3.68594 13.5553 3.73469C14.8738 3.95144 15.8315 5.07944 15.8315 6.41669C15.8285 7.76294 14.8228 8.91794 13.4915 9.10469C13.4653 9.10844 13.439 9.10994 13.4135 9.10994Z" fill="white"/>
<mask id="mask0_2874_22412" style="mask-type:luminance" maskUnits="userSpaceOnUse" x="14" y="10" width="4" height="4">
<path fill-rule="evenodd" clip-rule="evenodd" d="M14.2344 10.501H17.0799V13.8982H14.2344V10.501Z" fill="white"/>
</mask>
<g mask="url(#mask0_2874_22412)">
<path fill-rule="evenodd" clip-rule="evenodd" d="M15.6468 13.8982C15.4203 13.8982 15.2066 13.7602 15.1211 13.5359C15.0101 13.2457 15.1563 12.9202 15.4466 12.8099C15.9551 12.6164 15.9551 12.4027 15.9551 12.2999C15.9551 11.9714 15.5373 11.7419 14.7138 11.6189C14.4071 11.5724 14.1948 11.2867 14.2406 10.9784C14.2863 10.6709 14.5713 10.4662 14.8811 10.5059C16.6983 10.7782 17.0801 11.6317 17.0801 12.2999C17.0801 12.7079 16.9196 13.4527 15.8471 13.8614C15.7811 13.8862 15.7136 13.8982 15.6468 13.8982Z" fill="white"/>
</g>
<path fill-rule="evenodd" clip-rule="evenodd" d="M8.91456 11.9355C7.13256 11.9355 5.00781 12.1545 5.00781 13.197C5.00781 14.2478 7.13256 14.4683 8.91456 14.4683C10.6966 14.4683 12.8206 14.25 12.8206 13.2098C12.8206 12.1568 10.6966 11.9355 8.91456 11.9355ZM8.91456 15.5933C7.67031 15.5933 3.88281 15.5933 3.88281 13.197C3.88281 10.8105 7.67031 10.8105 8.91456 10.8105C10.1588 10.8105 13.9456 10.8105 13.9456 13.2098C13.9456 15.5933 10.2908 15.5933 8.91456 15.5933Z" fill="white"/>
<path fill-rule="evenodd" clip-rule="evenodd" d="M8.91431 4.125C7.64531 4.125 6.61331 5.15775 6.61331 6.42675C6.61106 7.04175 6.84656 7.617 7.27781 8.05125C7.70906 8.4855 8.28356 8.72625 8.89556 8.7285L8.91431 9.291V8.7285C10.1833 8.7285 11.2161 7.6965 11.2161 6.42675C11.2161 5.15775 10.1833 4.125 8.91431 4.125ZM8.91431 9.8535H8.89406C7.97906 9.8505 7.12181 9.492 6.47981 8.844C5.83631 8.19675 5.48456 7.33725 5.48831 6.4245C5.48831 4.5375 7.02506 3 8.91431 3C10.8043 3 12.3411 4.5375 12.3411 6.42675C12.3411 8.316 10.8043 9.8535 8.91431 9.8535Z" fill="white"/>
<path fill-rule="evenodd" clip-rule="evenodd" d="M4.41334 9.11008C4.38784 9.11008 4.36159 9.10858 4.33534 9.10483C3.00409 8.91808 1.99909 7.76308 1.99609 6.41833C1.99609 5.07958 2.95384 3.95158 4.27234 3.73483C4.58809 3.68533 4.86784 3.89308 4.91884 4.19833C4.96909 4.50508 4.76134 4.79458 4.45534 4.84483C3.68209 4.97158 3.12109 5.63308 3.12109 6.41683C3.12259 7.20433 3.71134 7.88158 4.49059 7.99033C4.79884 8.03308 5.01259 8.31733 4.96984 8.62558C4.93009 8.90683 4.68934 9.11008 4.41334 9.11008Z" fill="white"/>
<path fill-rule="evenodd" clip-rule="evenodd" d="M2.184 13.8985C2.11725 13.8985 2.04975 13.8865 1.98375 13.8617C0.9105 13.4522 0.75 12.7075 0.75 12.3002C0.75 11.6327 1.13175 10.7785 2.94975 10.5062C3.2595 10.4672 3.543 10.6712 3.5895 10.9787C3.63525 11.287 3.423 11.5727 3.11625 11.6192C2.29275 11.7422 1.875 11.9717 1.875 12.3002C1.875 12.403 1.875 12.616 2.38425 12.8102C2.6745 12.9205 2.82075 13.246 2.70975 13.5362C2.62425 13.7605 2.4105 13.8985 2.184 13.8985Z" fill="white"/>
</svg>
