<svg width="24" height="24" viewBox="0 0 24 24" fill="none" xmlns="http://www.w3.org/2000/svg">
<g clip-path="url(#clip0_2670_85202)">
<path d="M21.3603 0.0220236C21.2563 -0.00680401 21.1465 -0.00749949 21.0422 0.0200082C20.9378 0.0475159 20.8426 0.10224 20.7664 0.178586L18.0945 2.85046C18.0199 2.92507 17.966 3.01778 17.9379 3.1195C17.9099 3.22123 17.9088 3.32848 17.9347 3.43077L18.2919 4.84593L10.9892 12.1495C10.9305 12.2056 10.8836 12.2729 10.8512 12.3473C10.8189 12.4218 10.8017 12.502 10.8008 12.5832C10.7999 12.6644 10.8152 12.7449 10.8458 12.8201C10.8765 12.8953 10.9219 12.9636 10.9793 13.021C11.0367 13.0784 11.105 13.1238 11.1802 13.1544C11.2554 13.1851 11.3359 13.2004 11.4171 13.1995C11.4983 13.1985 11.5785 13.1814 11.6529 13.149C11.7274 13.1167 11.7947 13.0698 11.8508 13.0111L19.1567 5.70609L20.5719 6.06327C20.6741 6.08915 20.7814 6.08802 20.8831 6.06C20.9848 6.03199 21.0776 5.97803 21.1522 5.90343L23.824 3.23155C23.9002 3.15542 23.9549 3.06045 23.9825 2.95632C24.01 2.85218 24.0095 2.7426 23.9809 2.63874C23.9523 2.53489 23.8967 2.44046 23.8197 2.36509C23.7428 2.28972 23.6472 2.23609 23.5428 2.20968L22.1445 1.85671L21.7892 0.460305C21.7628 0.35586 21.7092 0.260272 21.6339 0.183281C21.5585 0.10629 21.4641 0.0506481 21.3603 0.0220236ZM22.2012 3.1303L20.5344 4.79718L19.4717 4.52859L19.2031 3.46593L20.87 1.79905L21.0476 2.50921C21.0744 2.61652 21.1298 2.71453 21.208 2.79273C21.2862 2.87093 21.3842 2.92637 21.4915 2.95312L22.2012 3.1303Z" fill="#216F9B"/>
<path d="M11.4122 9.73779H11.4164C11.437 9.73779 11.4581 9.74061 11.4792 9.74107C11.6408 9.74536 11.7975 9.68527 11.9149 9.57403C12.0322 9.46278 12.1005 9.30949 12.1048 9.14787C12.1091 8.98625 12.049 8.82955 11.9377 8.71224C11.8265 8.59493 11.6732 8.52661 11.5116 8.52232H11.5041C11.4764 8.52232 11.4492 8.52232 11.4206 8.51904C10.6174 8.51904 9.83219 8.75723 9.16432 9.20349C8.49645 9.64974 7.97591 10.284 7.66852 11.0261C7.36113 11.7682 7.28071 12.5848 7.43741 13.3726C7.59412 14.1604 7.98091 14.8841 8.54889 15.452C9.11687 16.02 9.84051 16.4068 10.6283 16.5635C11.4161 16.7202 12.2327 16.6398 12.9748 16.3324C13.7169 16.025 14.3512 15.5045 14.7974 14.8366C15.2437 14.1687 15.4819 13.3835 15.4819 12.5803C15.4819 12.5526 15.4819 12.5254 15.4786 12.4983V12.4912C15.4748 12.3296 15.407 12.1761 15.29 12.0645C15.173 11.9529 15.0165 11.8924 14.8549 11.8962C14.6933 11.8999 14.5398 11.9678 14.4282 12.0847C14.3166 12.2017 14.2561 12.3582 14.2598 12.5198C14.2598 12.5414 14.2598 12.5629 14.2631 12.5845V12.5887C14.2615 13.1502 14.0935 13.6986 13.7806 14.1648C13.4676 14.6309 13.0236 14.9939 12.5045 15.208C11.9855 15.4221 11.4146 15.4777 10.864 15.3677C10.3134 15.2578 9.80771 14.9873 9.41069 14.5902C9.01367 14.1932 8.74312 13.6875 8.63317 13.1369C8.52322 12.5863 8.5788 12.0155 8.7929 11.4964C9.00699 10.9774 9.37001 10.5333 9.83617 10.2204C10.3023 9.90738 10.8507 9.73946 11.4122 9.73779Z" fill="#216F9B"/>
<path d="M14.9806 6.38251C15.0145 6.31 15.0337 6.23153 15.0373 6.15158C15.0408 6.07162 15.0285 5.99176 15.0012 5.91654C14.9739 5.84133 14.932 5.77223 14.8779 5.7132C14.8239 5.65417 14.7588 5.60637 14.6863 5.57251C13.6651 5.092 12.5504 4.84294 11.4219 4.84314C7.15625 4.84314 3.6875 8.31189 3.6875 12.5775C3.6875 14.6288 4.50237 16.5961 5.95285 18.0465C7.40332 19.497 9.37059 20.3119 11.4219 20.3119C12.7225 20.3139 14.0026 19.9873 15.1434 19.3625C16.2841 18.7377 17.2486 17.8348 17.9473 16.7378C18.646 15.6407 19.0563 14.385 19.1401 13.087C19.224 11.7891 18.9786 10.491 18.4269 9.31314C18.3585 9.16669 18.2347 9.0534 18.0828 8.9982C17.9309 8.94299 17.7633 8.95039 17.6169 9.01876C17.4704 9.08714 17.3571 9.21089 17.3019 9.3628C17.2467 9.5147 17.2541 9.68231 17.3225 9.82876C17.7343 10.7125 17.9424 11.6775 17.9315 12.6524C17.9205 13.6274 17.6909 14.5874 17.2594 15.4617C16.8279 16.336 16.2056 17.1023 15.4384 17.704C14.6712 18.3057 13.7788 18.7275 12.8268 18.9383C11.8749 19.149 10.8877 19.1433 9.93828 18.9217C8.98882 18.7 8.10124 18.268 7.34104 17.6575C6.58084 17.047 5.9674 16.2736 5.546 15.3944C5.12459 14.5151 4.90596 13.5525 4.90625 12.5775C4.90625 8.98455 7.82938 6.06189 11.4219 6.06189C12.3722 6.06202 13.3108 6.27202 14.1706 6.67689C14.2431 6.71075 14.3216 6.73 14.4016 6.73353C14.4815 6.73706 14.5614 6.72481 14.6366 6.69747C14.7118 6.67014 14.7809 6.62825 14.8399 6.57421C14.899 6.52017 14.9468 6.45503 14.9806 6.38251Z" fill="#216F9B"/>
<path d="M11.4197 24C13.3438 23.9997 15.2367 23.5134 16.9226 22.5861C18.6085 21.6587 20.0328 20.3205 21.0633 18.6956C22.0938 17.0707 22.6971 15.2118 22.8171 13.2914C22.9372 11.3711 22.5701 9.45149 21.75 7.7109C21.68 7.56643 21.5558 7.45542 21.4044 7.402C21.253 7.34859 21.0866 7.35707 20.9415 7.42561C20.7963 7.49416 20.684 7.61722 20.6291 7.76806C20.5741 7.91891 20.5809 8.08534 20.648 8.23121C21.2917 9.59048 21.624 11.0763 21.6206 12.5803C21.6206 18.2053 17.0447 22.7807 11.4202 22.7807C10.0806 22.7809 8.75408 22.5171 7.51643 22.0046C6.27877 21.4921 5.15419 20.7408 4.2069 19.7936C3.2596 18.8464 2.50815 17.7219 1.99544 16.4844C1.48273 15.2468 1.21881 13.9203 1.21875 12.5807C1.21875 6.95574 5.79469 2.38027 11.4197 2.38027C12.9237 2.3769 14.4095 2.7092 15.7687 3.35293C15.8412 3.38709 15.9196 3.40666 15.9996 3.41051C16.0796 3.41436 16.1595 3.40241 16.2349 3.37536C16.3103 3.34831 16.3796 3.30668 16.4389 3.25284C16.4981 3.19901 16.5462 3.13402 16.5804 3.0616C16.6146 2.98918 16.6341 2.91074 16.638 2.83075C16.6418 2.75077 16.6299 2.67081 16.6028 2.59544C16.5758 2.52008 16.5341 2.45077 16.4803 2.3915C16.4265 2.33222 16.3615 2.28412 16.2891 2.24996C14.5485 1.42957 12.6288 1.0623 10.7083 1.18225C8.78776 1.3022 6.9287 1.90548 5.3037 2.93608C3.67871 3.96667 2.34047 5.39117 1.41326 7.07729C0.48604 8.76341 -9.23098e-05 10.6565 1.31476e-08 12.5807C0.00012433 15.6093 1.20332 18.5139 3.34491 20.6554C5.48651 22.7969 8.39108 24 11.4197 24Z" fill="#216F9B"/>
</g>
<defs>
<clipPath id="clip0_2670_85202">
<rect width="24" height="24" fill="white"/>
</clipPath>
</defs>
</svg>
