<svg width="18" height="18" viewBox="0 0 18 18" fill="none" xmlns="http://www.w3.org/2000/svg">
<path fill-rule="evenodd" clip-rule="evenodd" d="M4.6875 2.625C2.625 2.625 2.625 2.781 2.625 4.6875V4.70625C2.625 5.5365 2.625 6.1365 2.82825 6.39C3.027 6.636 3.61725 6.75 4.6875 6.75C5.75775 6.75 6.348 6.63525 6.54675 6.38925C6.75 6.1365 6.75 5.5365 6.75 4.7055C6.75 2.781 6.75 2.625 4.6875 2.625ZM4.6875 7.875C3.423 7.875 2.47425 7.74225 1.953 7.095C1.5 6.53325 1.5 5.76675 1.5 4.70625L2.0625 4.6875H1.5C1.5 2.535 1.63575 1.5 4.6875 1.5C7.73925 1.5 7.875 2.535 7.875 4.6875C7.875 5.766 7.875 6.53325 7.422 7.095C6.90075 7.74225 5.952 7.875 4.6875 7.875Z" fill="white"/>
<path fill-rule="evenodd" clip-rule="evenodd" d="M12.9375 2.625C10.875 2.625 10.875 2.781 10.875 4.6875V4.70625C10.875 5.5365 10.875 6.1365 11.0783 6.39C11.277 6.636 11.8672 6.75 12.9375 6.75C14.0078 6.75 14.598 6.63525 14.7968 6.38925C15 6.1365 15 5.5365 15 4.7055C15 2.781 15 2.625 12.9375 2.625ZM12.9375 7.875C11.673 7.875 10.7242 7.74225 10.203 7.095C9.75 6.53325 9.75 5.76675 9.75 4.70625L10.3125 4.6875H9.75C9.75 2.535 9.88575 1.5 12.9375 1.5C15.9892 1.5 16.125 2.535 16.125 4.6875C16.125 5.766 16.125 6.53325 15.672 7.095C15.1508 7.74225 14.202 7.875 12.9375 7.875Z" fill="white"/>
<path fill-rule="evenodd" clip-rule="evenodd" d="M4.6875 10.875C2.625 10.875 2.625 11.031 2.625 12.9375V12.9563C2.625 13.7865 2.625 14.3865 2.82825 14.64C3.027 14.886 3.61725 15 4.6875 15C5.75775 15 6.348 14.8853 6.54675 14.6392C6.75 14.3865 6.75 13.7865 6.75 12.9555C6.75 11.031 6.75 10.875 4.6875 10.875ZM4.6875 16.125C3.423 16.125 2.47425 15.9922 1.953 15.345C1.5 14.7832 1.5 14.0168 1.5 12.9563L2.0625 12.9375H1.5C1.5 10.785 1.63575 9.75 4.6875 9.75C7.73925 9.75 7.875 10.785 7.875 12.9375C7.875 14.016 7.875 14.7832 7.422 15.345C6.90075 15.9922 5.952 16.125 4.6875 16.125Z" fill="white"/>
<path fill-rule="evenodd" clip-rule="evenodd" d="M12.9375 10.875C10.875 10.875 10.875 11.031 10.875 12.9375V12.9563C10.875 13.7865 10.875 14.3865 11.0783 14.64C11.277 14.886 11.8672 15 12.9375 15C14.0078 15 14.598 14.8853 14.7968 14.6392C15 14.3865 15 13.7865 15 12.9555C15 11.031 15 10.875 12.9375 10.875ZM12.9375 16.125C11.673 16.125 10.7242 15.9922 10.203 15.345C9.75 14.7832 9.75 14.0168 9.75 12.9563L10.3125 12.9375H9.75C9.75 10.785 9.88575 9.75 12.9375 9.75C15.9892 9.75 16.125 10.785 16.125 12.9375C16.125 14.016 16.125 14.7832 15.672 15.345C15.1508 15.9922 14.202 16.125 12.9375 16.125Z" fill="white"/>
</svg>
