<svg width="17" height="21" viewBox="0 0 17 21" fill="none" xmlns="http://www.w3.org/2000/svg">
<path fill-rule="evenodd" clip-rule="evenodd" d="M8.25 7.34842C7.285 7.34842 6.5 8.16755 6.5 9.17555C6.5 10.1825 7.285 11.0006 8.25 11.0006C9.215 11.0006 10 10.1825 10 9.17555C10 8.16755 9.215 7.34842 8.25 7.34842ZM8.25 12.5658C6.458 12.5658 5 11.0455 5 9.17555C5 7.30459 6.458 5.7832 8.25 5.7832C10.042 5.7832 11.5 7.30459 11.5 9.17555C11.5 11.0455 10.042 12.5658 8.25 12.5658Z" fill="#868A91"/>
<mask id="mask0_4994_36601" style="mask-type:luminance" maskUnits="userSpaceOnUse" x="0" y="0" width="17" height="21">
<path fill-rule="evenodd" clip-rule="evenodd" d="M0 0.566406H16.4995V20.9142H0V0.566406Z" fill="white"/>
</mask>
<g mask="url(#mask0_4994_36601)">
<path fill-rule="evenodd" clip-rule="evenodd" d="M8.25 2.13162C4.528 2.13162 1.5 5.32154 1.5 9.24084C1.5 14.2276 7.124 19.0861 8.25 19.3448C9.376 19.085 15 14.2266 15 9.24084C15 5.32154 11.972 2.13162 8.25 2.13162V2.13162ZM8.25 20.9142C6.456 20.9142 0 15.1208 0 9.24084C0 4.45754 3.701 0.566406 8.25 0.566406C12.799 0.566406 16.5 4.45754 16.5 9.24084C16.5 15.1208 10.044 20.9142 8.25 20.9142V20.9142Z" fill="#868A91"/>
</g>
</svg>
