<svg width="36" height="36" viewBox="0 0 36 36" fill="none" xmlns="http://www.w3.org/2000/svg">
<rect x="0.5" y="0.5" width="35" height="35" rx="7.5" fill="white"/>
<path fill-rule="evenodd" clip-rule="evenodd" d="M24.5648 25.4531H19.125C18.8145 25.4531 18.5625 25.2011 18.5625 24.8906C18.5625 24.5801 18.8145 24.3281 19.125 24.3281H24.5648C24.8753 24.3281 25.1273 24.5801 25.1273 24.8906C25.1273 25.2011 24.8753 25.4531 24.5648 25.4531Z" fill="#2922b3"/>
<mask id="mask0_6337_35938" style="mask-type:luminance" maskUnits="userSpaceOnUse" x="10" y="11" width="14" height="15">
<path fill-rule="evenodd" clip-rule="evenodd" d="M10.5 11.25H23.3854V25.4547H10.5V11.25Z" fill="white"/>
</mask>
<g mask="url(#mask0_6337_35938)">
<path fill-rule="evenodd" clip-rule="evenodd" d="M18.8324 12.7623L11.7712 21.5936C11.6429 21.7541 11.5957 21.9611 11.6429 22.1598L12.1537 24.3236L14.4329 24.2951C14.6497 24.2928 14.8499 24.1961 14.9827 24.0311C17.3954 21.0123 21.9952 15.2568 22.1257 15.0881C22.2487 14.8886 22.2967 14.6066 22.2322 14.3351C22.1662 14.0568 21.9929 13.8206 21.7432 13.6698C21.6899 13.6331 20.4262 12.6521 20.3872 12.6213C19.9117 12.2403 19.2179 12.3063 18.8324 12.7623ZM11.71 25.4547C11.4497 25.4547 11.2232 25.2762 11.1625 25.022L10.5482 22.4187C10.4215 21.8795 10.5475 21.323 10.8932 20.891L17.9582 12.0545C17.9612 12.0515 17.9635 12.0477 17.9665 12.0447C18.7412 11.1185 20.1422 10.982 21.0872 11.7402C21.1247 11.7695 22.3795 12.7445 22.3795 12.7445C22.8355 13.016 23.1917 13.5012 23.3267 14.0757C23.461 14.6442 23.3635 15.2307 23.0507 15.7265C23.0275 15.7632 23.0072 15.7947 15.8612 24.7347C15.517 25.1637 15.001 25.4135 14.4467 25.4202L11.7175 25.4547H11.71Z" fill="#2922b3"/>
</g>
<path fill-rule="evenodd" clip-rule="evenodd" d="M21.1671 17.7655C21.0471 17.7655 20.9271 17.7272 20.8243 17.6492L16.7353 14.5082C16.4893 14.3192 16.4428 13.9667 16.6318 13.7192C16.8216 13.4732 17.1741 13.4275 17.4208 13.6165L21.5106 16.7567C21.7566 16.9457 21.8031 17.299 21.6133 17.5457C21.5031 17.6897 21.3358 17.7655 21.1671 17.7655Z" fill="#2922b3"/>
<rect x="0.5" y="0.5" width="35" height="35" rx="7.5" stroke="#2922b3"/>
</svg>
