<svg width="18" height="18" viewBox="0 0 18 18" fill="none" xmlns="http://www.w3.org/2000/svg">
<path fill-rule="evenodd" clip-rule="evenodd" d="M12.4328 16.7763H5.81475C3.234 16.7763 1.5 14.9651 1.5 12.2696V6.03409C1.5 3.33859 3.234 1.52734 5.81475 1.52734H8.619C8.9295 1.52734 9.1815 1.77934 9.1815 2.08984C9.1815 2.40034 8.9295 2.65234 8.619 2.65234H5.81475C3.87675 2.65234 2.625 3.97984 2.625 6.03409V12.2696C2.625 14.3238 3.87675 15.6513 5.81475 15.6513H12.4328C14.3708 15.6513 15.6233 14.3238 15.6233 12.2696V9.24859C15.6233 8.93809 15.8753 8.68609 16.1858 8.68609C16.4963 8.68609 16.7483 8.93809 16.7483 9.24859V12.2696C16.7483 14.9651 15.0135 16.7763 12.4328 16.7763" fill="#868A91"/>
<path fill-rule="evenodd" clip-rule="evenodd" d="M6.65137 11.5708H8.88412C9.16912 11.5708 9.43612 11.4606 9.63787 11.2588L15.2696 5.62707C15.5006 5.39607 15.6281 5.08857 15.6281 4.76157C15.6281 4.43382 15.5006 4.12557 15.2696 3.89457L14.3569 2.98182C13.8791 2.50557 13.1021 2.50557 12.6236 2.98182L7.01887 8.58657C6.82462 8.78082 6.71437 9.03882 6.70762 9.31257L6.65137 11.5708ZM8.88389 12.696H6.07439C5.92289 12.696 5.77739 12.6345 5.67164 12.5258C5.56589 12.4178 5.50814 12.2715 5.51189 12.1193L5.58239 9.285C5.59664 8.721 5.82389 8.19075 6.22289 7.791H6.22364L11.8284 2.18625C12.7449 1.27125 14.2351 1.27125 15.1516 2.18625L16.0644 3.099C16.5091 3.543 16.7536 4.13325 16.7529 4.76175C16.7529 5.39025 16.5084 5.97975 16.0644 6.423L10.4326 12.0547C10.0194 12.468 9.46889 12.696 8.88389 12.696V12.696Z" fill="#868A91"/>
<path fill-rule="evenodd" clip-rule="evenodd" d="M14.7993 7.43776C14.6553 7.43776 14.5113 7.38301 14.4018 7.27276L10.9773 3.84826C10.7576 3.62851 10.7576 3.27226 10.9773 3.05251C11.1971 2.83276 11.5526 2.83276 11.7723 3.05251L15.1968 6.47776C15.4166 6.69751 15.4166 7.05301 15.1968 7.27276C15.0873 7.38301 14.9433 7.43776 14.7993 7.43776" fill="#868A91"/>
</svg>
