<svg width="16" height="16" viewBox="0 0 16 16" fill="none" xmlns="http://www.w3.org/2000/svg">
<path fill-rule="evenodd" clip-rule="evenodd" d="M6.7202 12.395H2.51953C2.24353 12.395 2.01953 12.171 2.01953 11.895C2.01953 11.619 2.24353 11.395 2.51953 11.395H6.7202C6.9962 11.395 7.2202 11.619 7.2202 11.895C7.2202 12.171 6.9962 12.395 6.7202 12.395Z" fill="#130F26"/>
<path fill-rule="evenodd" clip-rule="evenodd" d="M12.7937 5.93359H8.59375C8.31775 5.93359 8.09375 5.70959 8.09375 5.43359C8.09375 5.15759 8.31775 4.93359 8.59375 4.93359H12.7937C13.0697 4.93359 13.2937 5.15759 13.2937 5.43359C13.2937 5.70959 13.0697 5.93359 12.7937 5.93359Z" fill="#130F26"/>
<mask id="mask0_7565_290401" style="mask-type:luminance" maskUnits="userSpaceOnUse" x="2" y="3" width="5" height="5">
<path fill-rule="evenodd" clip-rule="evenodd" d="M2 3.3335H6.15053V7.46123H2V3.3335Z" fill="white"/>
</mask>
<g mask="url(#mask0_7565_290401)">
<path fill-rule="evenodd" clip-rule="evenodd" d="M4.07533 4.33301C3.48267 4.33301 3 4.81034 3 5.39767C3 5.98434 3.48267 6.46101 4.07533 6.46101C4.66867 6.46101 5.15067 5.98434 5.15067 5.39767C5.15067 4.81034 4.66867 4.33301 4.07533 4.33301ZM4.07533 7.46101C2.93133 7.46101 2 6.53567 2 5.39767C2 4.25967 2.93133 3.33301 4.07533 3.33301C5.22 3.33301 6.15067 4.25967 6.15067 5.39767C6.15067 6.53567 5.22 7.46101 4.07533 7.46101Z" fill="#130F26"/>
</g>
<path fill-rule="evenodd" clip-rule="evenodd" d="M11.5916 10.8052C10.9983 10.8052 10.5156 11.2825 10.5156 11.8692C10.5156 12.4565 10.9983 12.9332 11.5916 12.9332C12.1843 12.9332 12.6663 12.4565 12.6663 11.8692C12.6663 11.2825 12.1843 10.8052 11.5916 10.8052ZM11.5916 13.9332C10.447 13.9332 9.51562 13.0072 9.51562 11.8692C9.51562 10.7312 10.447 9.80518 11.5916 9.80518C12.7356 9.80518 13.6663 10.7312 13.6663 11.8692C13.6663 13.0072 12.7356 13.9332 11.5916 13.9332Z" fill="#130F26"/>
</svg>
