<svg width="61" height="60" viewBox="0 0 61 60" fill="none" xmlns="http://www.w3.org/2000/svg">
<rect x="0.5" width="60" height="60" rx="30" fill="#EFFFED"/>
<path d="M30.4998 48.3334C40.6251 48.3334 48.8332 40.1253 48.8332 30.0001C48.8332 19.8749 40.6251 11.6667 30.4998 11.6667C20.3746 11.6667 12.1665 19.8749 12.1665 30.0001C12.1665 40.1253 20.3746 48.3334 30.4998 48.3334Z" stroke="#2922b3" stroke-width="2.75" stroke-linecap="round" stroke-linejoin="round"/>
<path d="M23.1658 13.5H24.9991C21.4241 24.2067 21.4241 35.7933 24.9991 46.5H23.1658" stroke="#2922b3" stroke-width="2.75" stroke-linecap="round" stroke-linejoin="round"/>
<path d="M36 13.5C39.575 24.2067 39.575 35.7933 36 46.5" stroke="#2922b3" stroke-width="2.75" stroke-linecap="round" stroke-linejoin="round"/>
<path d="M14 37.3333V35.5C24.7067 39.075 36.2933 39.075 47 35.5V37.3333" stroke="#2922b3" stroke-width="2.75" stroke-linecap="round" stroke-linejoin="round"/>
<path d="M14 24.4994C24.7067 20.9244 36.2933 20.9244 47 24.4994" stroke="#2922b3" stroke-width="2.75" stroke-linecap="round" stroke-linejoin="round"/>
</svg>
