<svg width="25" height="24" viewBox="0 0 25 24" fill="none" xmlns="http://www.w3.org/2000/svg">
<path d="M12.5996 22C18.1225 22 22.5996 17.5228 22.5996 12C22.5996 6.47715 18.1225 2 12.5996 2C7.07676 2 2.59961 6.47715 2.59961 12C2.59961 17.5228 7.07676 22 12.5996 22Z" stroke="#2922b3" stroke-width="1.5" stroke-linecap="round" stroke-linejoin="round"/>
<path d="M8.59922 3H9.59922C7.64922 8.84 7.64922 15.16 9.59922 21H8.59922" stroke="#2922b3" stroke-width="1.5" stroke-linecap="round" stroke-linejoin="round"/>
<path d="M15.5996 3C17.5496 8.84 17.5496 15.16 15.5996 21" stroke="#2922b3" stroke-width="1.5" stroke-linecap="round" stroke-linejoin="round"/>
<path d="M3.59961 16V15C9.43961 16.95 15.7596 16.95 21.5996 15V16" stroke="#2922b3" stroke-width="1.5" stroke-linecap="round" stroke-linejoin="round"/>
<path d="M3.59961 9C9.43961 7.05 15.7596 7.05 21.5996 9" stroke="#2922b3" stroke-width="1.5" stroke-linecap="round" stroke-linejoin="round"/>
</svg>
