<svg width="70" height="70" viewBox="0 0 70 70" fill="none" xmlns="http://www.w3.org/2000/svg">
<g filter="url(#filter0_d_7425_257699)">
<circle cx="35" cy="34" r="32" fill="#EBEEF2"/>
</g>
<path fill-rule="evenodd" clip-rule="evenodd" d="M30.9962 28.0264C31.3311 27.4176 31.6955 27.0107 32.2362 26.7955C33.227 26.4015 36.7757 26.4015 37.7658 26.7956C38.3062 27.0107 38.6707 27.4175 39.0059 28.0262L39.3828 28.7488C39.3914 28.7631 39.3993 28.7757 39.4064 28.7866L39.4384 28.8303C39.6101 29.0174 39.8975 29.1304 40.0871 29.1304C41.8805 29.1304 43.3346 30.5842 43.3346 32.3771V37.2063C43.3346 39.4931 41.4798 41.3479 39.193 41.3479H30.8096C28.5222 41.3479 26.668 39.4934 26.668 37.2063V32.3771C26.668 30.5842 28.1221 29.1304 29.9155 29.1304C30.1044 29.1304 30.3922 29.0172 30.5642 28.8303C30.5676 28.8266 30.5721 28.821 30.5775 28.8136L30.6204 28.7479L30.9962 28.0264ZM37.911 28.6292C37.7027 28.251 37.5145 28.0409 37.3035 27.9569L37.2041 27.9239C36.3464 27.6815 33.3633 27.6925 32.6983 27.9569C32.4874 28.0409 32.2994 28.2509 32.0913 28.629L31.7706 29.2491L31.6917 29.3919C31.6258 29.5015 31.5599 29.5941 31.4846 29.6761C31.0625 30.1348 30.4382 30.3804 29.9155 30.3804L29.7787 30.385C28.7394 30.4553 27.918 31.3206 27.918 32.3771V37.2063C27.918 38.803 29.2126 40.0979 30.8096 40.0979H39.193C40.7895 40.0979 42.0846 38.8027 42.0846 37.2063V32.3771C42.0846 31.2747 41.1902 30.3804 40.0871 30.3804L39.942 30.3744C39.4516 30.334 38.9007 30.0931 38.5175 29.6755C38.4432 29.5946 38.3777 29.5027 38.3122 29.3941C38.3028 29.3785 38.2911 29.3579 38.2777 29.3337L38.1809 29.1522L37.911 28.6292Z" fill="#868A91"/>
<path d="M39.5869 31.084C40.0472 31.084 40.4203 31.4571 40.4203 31.9173C40.4203 32.3447 40.0986 32.6969 39.6841 32.745L39.5869 32.7507C39.1192 32.7507 38.7461 32.3776 38.7461 31.9173C38.7461 31.49 39.0678 31.1377 39.4822 31.0896L39.5869 31.084Z" fill="#868A91"/>
<path fill-rule="evenodd" clip-rule="evenodd" d="M31.7266 34.9402C31.7266 33.1317 33.1922 31.666 35.0007 31.666C36.8092 31.666 38.2749 33.1317 38.2749 34.9402C38.2749 36.7487 36.8092 38.2143 35.0007 38.2143C33.1922 38.2143 31.7266 36.7487 31.7266 34.9402ZM37.0249 34.9402C37.0249 33.822 36.1189 32.916 35.0007 32.916C33.8826 32.916 32.9766 33.822 32.9766 34.9402C32.9766 36.0583 33.8826 36.9643 35.0007 36.9643C36.1189 36.9643 37.0249 36.0583 37.0249 34.9402Z" fill="#868A91"/>
<defs>
<filter id="filter0_d_7425_257699" x="0" y="0" width="70" height="70" filterUnits="userSpaceOnUse" color-interpolation-filters="sRGB">
<feFlood flood-opacity="0" result="BackgroundImageFix"/>
<feColorMatrix in="SourceAlpha" type="matrix" values="0 0 0 0 0 0 0 0 0 0 0 0 0 0 0 0 0 0 127 0" result="hardAlpha"/>
<feOffset dy="1"/>
<feGaussianBlur stdDeviation="1.5"/>
<feComposite in2="hardAlpha" operator="out"/>
<feColorMatrix type="matrix" values="0 0 0 0 0 0 0 0 0 0 0 0 0 0 0 0 0 0 0.12 0"/>
<feBlend mode="normal" in2="BackgroundImageFix" result="effect1_dropShadow_7425_257699"/>
<feBlend mode="normal" in="SourceGraphic" in2="effect1_dropShadow_7425_257699" result="shape"/>
</filter>
</defs>
</svg>
