<svg width="24" height="24" viewBox="0 0 24 24" fill="none" xmlns="http://www.w3.org/2000/svg">
<g clip-path="url(#clip0_2670_85214)">
<path d="M23.2517 12C23.2517 13.0384 22.9439 14.0535 22.367 14.917C21.7901 15.7804 20.9701 16.4534 20.0108 16.8507C19.0514 17.2481 17.9958 17.3521 16.9773 17.1495C15.9589 16.9469 15.0234 16.4468 14.2892 15.7125L14.2582 15.6797L8.6379 9.33283C8.11172 8.81279 7.44347 8.46001 6.71725 8.31888C5.99103 8.17775 5.2393 8.25458 4.55664 8.5397C3.87399 8.82482 3.29092 9.30548 2.88081 9.92121C2.4707 10.5369 2.25188 11.2602 2.25188 12C2.25188 12.7398 2.4707 13.4631 2.88081 14.0788C3.29092 14.6945 3.87399 15.1752 4.55664 15.4603C5.2393 15.7455 5.99103 15.8223 6.71725 15.6811C7.44347 15.54 8.11172 15.1872 8.6379 14.6672L9.43665 13.7653C9.56856 13.6161 9.75432 13.5255 9.95308 13.5132C10.1518 13.501 10.3473 13.5683 10.4965 13.7002C10.6457 13.8321 10.7364 14.0178 10.7486 14.2166C10.7608 14.4154 10.6936 14.6108 10.5617 14.76L9.74696 15.6797L9.71603 15.7125C8.98178 16.4467 8.04632 16.9466 7.02793 17.1492C6.00955 17.3517 4.95398 17.2477 3.99469 16.8503C3.03541 16.453 2.21551 15.7801 1.63865 14.9167C1.0618 14.0534 0.753906 13.0383 0.753906 12C0.753906 10.9617 1.0618 9.94667 1.63865 9.08333C2.21551 8.21998 3.03541 7.54707 3.99469 7.1497C4.95398 6.75232 6.00955 6.64832 7.02793 6.85085C8.04632 7.05338 8.98178 7.55334 9.71603 8.28752L9.74696 8.32033L15.3673 14.6672C15.8935 15.1872 16.5617 15.54 17.2879 15.6811C18.0141 15.8223 18.7659 15.7455 19.4485 15.4603C20.1312 15.1752 20.7143 14.6945 21.1244 14.0788C21.5345 13.4631 21.7533 12.7398 21.7533 12C21.7533 11.2602 21.5345 10.5369 21.1244 9.92121C20.7143 9.30548 20.1312 8.82482 19.4485 8.5397C18.7659 8.25458 18.0141 8.17775 17.2879 8.31888C16.5617 8.46001 15.8935 8.81279 15.3673 9.33283L14.5685 10.2347C14.4366 10.3839 14.2509 10.4746 14.0521 10.4868C13.8533 10.499 13.6579 10.4318 13.5087 10.2999C13.3595 10.168 13.2688 9.98219 13.2566 9.78343C13.2444 9.58467 13.3116 9.3892 13.4435 9.24001L14.2582 8.32033L14.2892 8.28752C15.0234 7.55321 15.9589 7.05314 16.9773 6.85053C17.9958 6.64793 19.0514 6.7519 20.0108 7.14929C20.9701 7.54668 21.7901 8.21965 22.367 9.08307C22.9439 9.9465 23.2517 10.9616 23.2517 12Z" fill="#AF0E0E"/>
<circle cx="12" cy="5" r="2.35" stroke="#AF0E0E" stroke-width="1.3"/>
<circle cx="12" cy="19" r="2.35" stroke="#AF0E0E" stroke-width="1.3"/>
</g>
<defs>
<clipPath id="clip0_2670_85214">
<rect width="24" height="24" fill="white"/>
</clipPath>
</defs>
</svg>
