<svg width="40" height="40" viewBox="0 0 40 40" fill="none" xmlns="http://www.w3.org/2000/svg">
<circle cx="20" cy="20" r="20" fill="#2922b3"/>
<path fill-rule="evenodd" clip-rule="evenodd" d="M22.4774 23.3125H17.6641C17.3881 23.3125 17.1641 23.0885 17.1641 22.8125C17.1641 22.5365 17.3881 22.3125 17.6641 22.3125H22.4774C22.7534 22.3125 22.9774 22.5365 22.9774 22.8125C22.9774 23.0885 22.7534 23.3125 22.4774 23.3125Z" fill="white"/>
<path fill-rule="evenodd" clip-rule="evenodd" d="M22.4774 20.5234H17.6641C17.3881 20.5234 17.1641 20.2994 17.1641 20.0234C17.1641 19.7474 17.3881 19.5234 17.6641 19.5234H22.4774C22.7534 19.5234 22.9774 19.7474 22.9774 20.0234C22.9774 20.2994 22.7534 20.5234 22.4774 20.5234Z" fill="white"/>
<path fill-rule="evenodd" clip-rule="evenodd" d="M19.5007 17.7383H17.6641C17.3881 17.7383 17.1641 17.5143 17.1641 17.2383C17.1641 16.9623 17.3881 16.7383 17.6641 16.7383H19.5007C19.7767 16.7383 20.0007 16.9623 20.0007 17.2383C20.0007 17.5143 19.7767 17.7383 19.5007 17.7383Z" fill="white"/>
<mask id="mask0_6183_89022" style="mask-type:luminance" maskUnits="userSpaceOnUse" x="14" y="13" width="13" height="14">
<path fill-rule="evenodd" clip-rule="evenodd" d="M14 13.332H26.1098V26.6052H14V13.332Z" fill="white"/>
</mask>
<g mask="url(#mask0_6183_89022)">
<path fill-rule="evenodd" clip-rule="evenodd" d="M22.606 14.332L17.48 14.3347C15.928 14.344 15 15.304 15 16.9034V23.034C15 24.644 15.9367 25.6054 17.504 25.6054L22.63 25.6034C24.182 25.594 25.11 24.6327 25.11 23.034V16.9034C25.11 15.2934 24.174 14.332 22.606 14.332ZM17.5047 26.6054C15.4087 26.6054 14 25.17 14 23.034V16.9034C14 14.748 15.3647 13.3474 17.4767 13.3347L22.6053 13.332H22.606C24.702 13.332 26.11 14.7674 26.11 16.9034V23.034C26.11 25.1887 24.7453 26.59 22.6333 26.6034L17.5047 26.6054Z" fill="white"/>
</g>
</svg>
