<svg width="142" height="62" viewBox="0 0 142 62" fill="none" xmlns="http://www.w3.org/2000/svg">
<g clip-path="url(#clip0_2377_36179)">
<rect width="142" height="62" fill="white"/>
<rect width="127" height="73.2692" transform="translate(7 -4)" fill="white"/>
<g clip-path="url(#clip1_2377_36179)">
<path fill-rule="evenodd" clip-rule="evenodd" d="M52.1385 49.6766C61.4147 49.6766 68.9352 42.1564 68.9352 32.8803C68.9352 23.6041 61.4151 16.084 52.1385 16.084C42.862 16.084 35.3418 23.6041 35.3418 32.8803C35.3418 42.1564 42.862 49.6766 52.1385 49.6766Z" fill="#A70B52"/>
<path fill-rule="evenodd" clip-rule="evenodd" d="M56.2292 38.7915H52.7509V25.6455H51.4609V40.0896H52.7509V40.0806H56.2292V38.7915Z" fill="white"/>
<path fill-rule="evenodd" clip-rule="evenodd" d="M64.9111 33.4184H56.2495V32.1289H66.1798C66.193 32.3783 66.1993 32.6281 66.1993 32.8809C66.1993 40.6466 59.904 46.9415 52.1387 46.9415C44.3734 46.9415 38.0781 40.6466 38.0781 32.8809C38.0781 25.1152 44.3734 18.8203 52.1392 18.8203C52.3439 18.8203 52.5481 18.8246 52.7512 18.8335L52.7495 20.1137C52.5462 20.1043 52.3427 20.0996 52.1392 20.0996C45.0803 20.0996 39.3574 25.8221 39.3574 32.8809C39.3574 39.9402 45.0799 45.6622 52.1392 45.6622C59.0056 45.6622 64.6072 40.2483 64.9077 33.4555L64.9111 33.4184Z" fill="white"/>
<path fill-rule="evenodd" clip-rule="evenodd" d="M46.8938 29.5366C47.4178 29.5366 47.9203 29.3284 48.2909 28.9579C48.6614 28.5873 48.8696 28.0848 48.8696 27.5608C48.8696 27.0367 48.6614 26.5342 48.2909 26.1637C47.9203 25.7931 47.4178 25.585 46.8938 25.585C46.3698 25.585 45.8672 25.7931 45.4967 26.1637C45.1261 26.5342 44.918 27.0367 44.918 27.5608C44.918 28.0848 45.1261 28.5873 45.4967 28.9579C45.8672 29.3284 46.3698 29.5366 46.8938 29.5366Z" fill="white"/>
<path fill-rule="evenodd" clip-rule="evenodd" d="M77.2773 41.1249H89.2794V37.5006H81.6843V24.5205H77.2773V41.1249ZM103.781 25.6896C102.405 24.6235 100.633 24.083 98.5185 24.083C96.0075 24.083 93.9102 24.8542 92.4521 26.3114C90.9294 27.8346 90.1237 30.0783 90.1237 32.7999C90.1237 35.7071 90.9758 38.1611 92.5228 39.7068C93.7366 40.9206 95.3555 41.5619 97.2068 41.5619C101.272 41.5619 102.207 39.1255 102.207 39.1255V41.1244H105.877V31.7466H98.5708V34.681H101.934C101.934 34.681 101.966 38.3751 98.4951 38.3751C97.6133 38.3751 96.8276 38.0551 96.2233 37.4508C95.2815 36.5098 94.7835 34.9245 94.7835 32.8684C94.7835 29.4637 96.1369 27.4311 98.4027 27.4311C99.8182 27.4311 100.882 28.3002 101.155 29.6174H105.83C105.587 27.7039 105.062 26.7063 103.781 25.6896Z" fill="#808183"/>
</g>
</g>
<defs>
<clipPath id="clip0_2377_36179">
<rect width="142" height="62" fill="white"/>
</clipPath>
<clipPath id="clip1_2377_36179">
<rect width="82.0348" height="36.024" fill="white" transform="translate(29.5918 14.9277)"/>
</clipPath>
</defs>
</svg>
