<svg width="24" height="26" viewBox="0 0 24 26" fill="none" xmlns="http://www.w3.org/2000/svg">
<path fill-rule="evenodd" clip-rule="evenodd" d="M11.319 23.9145H6.433C3.989 23.9145 2 21.839 2 19.2867V7.67379C2 5.12144 3.989 3.04492 6.433 3.04492H11.308C13.754 3.04492 15.744 5.12144 15.744 7.67379V8.64631C15.744 9.07831 15.408 9.42892 14.994 9.42892C14.58 9.42892 14.244 9.07831 14.244 8.64631V7.67379C14.244 5.98336 12.927 4.61014 11.308 4.61014H6.433C4.816 4.61014 3.5 5.98336 3.5 7.67379V19.2867C3.5 20.9761 4.816 22.3493 6.433 22.3493H11.319C12.931 22.3493 14.244 20.9802 14.244 19.2981V18.3141C14.244 17.8821 14.58 17.5315 14.994 17.5315C15.408 17.5315 15.744 17.8821 15.744 18.3141V19.2981C15.744 21.8442 13.758 23.9145 11.319 23.9145Z" fill="#EF4444"/>
<mask id="mask0_5061_82142" style="mask-type:luminance" maskUnits="userSpaceOnUse" x="8" y="12" width="15" height="3">
<path fill-rule="evenodd" clip-rule="evenodd" d="M8.99609 12.6973H22.537V14.2625H8.99609V12.6973Z" fill="white"/>
</mask>
<g mask="url(#mask0_5061_82142)">
<path fill-rule="evenodd" clip-rule="evenodd" d="M21.7871 14.2625H9.74609C9.33209 14.2625 8.99609 13.9119 8.99609 13.4799C8.99609 13.0479 9.33209 12.6973 9.74609 12.6973H21.7871C22.2011 12.6973 22.5371 13.0479 22.5371 13.4799C22.5371 13.9119 22.2011 14.2625 21.7871 14.2625Z" fill="#EF4444"/>
</g>
<mask id="mask1_5061_82142" style="mask-type:luminance" maskUnits="userSpaceOnUse" x="18" y="9" width="5" height="9">
<path fill-rule="evenodd" clip-rule="evenodd" d="M18.1094 9.65625H22.5367V17.3057H18.1094V9.65625Z" fill="white"/>
</mask>
<g mask="url(#mask1_5061_82142)">
<path fill-rule="evenodd" clip-rule="evenodd" d="M18.8591 17.3057C18.6671 17.3057 18.4741 17.2296 18.3281 17.0751C18.0361 16.7683 18.0371 16.2737 18.3301 15.969L20.7241 13.4803L18.3301 10.9927C18.0371 10.688 18.0351 10.1934 18.3281 9.8866C18.6201 9.57982 19.0941 9.57982 19.3881 9.88451L22.3161 12.9263C22.4581 13.0723 22.5371 13.2727 22.5371 13.4803C22.5371 13.688 22.4581 13.8883 22.3161 14.0344L19.3881 17.0772C19.2421 17.2296 19.0501 17.3057 18.8591 17.3057Z" fill="#EF4444"/>
</g>
</svg>
