<svg width="24" height="26" viewBox="0 0 24 26" fill="none" xmlns="http://www.w3.org/2000/svg">
<path fill-rule="evenodd" clip-rule="evenodd" d="M11.319 23.436H6.433C3.989 23.436 2 21.3605 2 18.8081V7.19528C2 4.64293 3.989 2.56641 6.433 2.56641H11.308C13.754 2.56641 15.744 4.64293 15.744 7.19528V8.1678C15.744 8.5998 15.408 8.95041 14.994 8.95041C14.58 8.95041 14.244 8.5998 14.244 8.1678V7.19528C14.244 5.50484 12.927 4.13162 11.308 4.13162H6.433C4.816 4.13162 3.5 5.50484 3.5 7.19528V18.8081C3.5 20.4975 4.816 21.8708 6.433 21.8708H11.319C12.931 21.8708 14.244 20.5017 14.244 18.8196V17.8356C14.244 17.4036 14.58 17.053 14.994 17.053C15.408 17.053 15.744 17.4036 15.744 17.8356V18.8196C15.744 21.3657 13.758 23.436 11.319 23.436Z" fill="#868A91"/>
<mask id="mask0_4994_36645" style="mask-type:luminance" maskUnits="userSpaceOnUse" x="8" y="12" width="15" height="2">
<path fill-rule="evenodd" clip-rule="evenodd" d="M8.99609 12.2188H22.537V13.784H8.99609V12.2188Z" fill="white"/>
</mask>
<g mask="url(#mask0_4994_36645)">
<path fill-rule="evenodd" clip-rule="evenodd" d="M21.7871 13.784H9.74609C9.33209 13.784 8.99609 13.4334 8.99609 13.0014C8.99609 12.5694 9.33209 12.2188 9.74609 12.2188H21.7871C22.2011 12.2188 22.5371 12.5694 22.5371 13.0014C22.5371 13.4334 22.2011 13.784 21.7871 13.784Z" fill="#868A91"/>
</g>
<mask id="mask1_4994_36645" style="mask-type:luminance" maskUnits="userSpaceOnUse" x="18" y="9" width="5" height="8">
<path fill-rule="evenodd" clip-rule="evenodd" d="M18.1094 9.17773H22.5367V16.8272H18.1094V9.17773Z" fill="white"/>
</mask>
<g mask="url(#mask1_4994_36645)">
<path fill-rule="evenodd" clip-rule="evenodd" d="M18.8591 16.8272C18.6671 16.8272 18.4741 16.751 18.3281 16.5966C18.0361 16.2898 18.0371 15.7952 18.3301 15.4905L20.7241 13.0018L18.3301 10.5142C18.0371 10.2095 18.0351 9.71487 18.3281 9.40808C18.6201 9.1013 19.0941 9.1013 19.3881 9.406L22.3161 12.4477C22.4581 12.5938 22.5371 12.7942 22.5371 13.0018C22.5371 13.2095 22.4581 13.4098 22.3161 13.5559L19.3881 16.5987C19.2421 16.751 19.0501 16.8272 18.8591 16.8272Z" fill="#868A91"/>
</g>
</svg>
