<svg width="80" height="80" viewBox="0 0 80 80" fill="none" xmlns="http://www.w3.org/2000/svg">
<g clip-path="url(#clip0_5063_164358)">
<path d="M40 80C62.0914 80 80 62.0914 80 40C80 17.9086 62.0914 0 40 0C17.9086 0 0 17.9086 0 40C0 62.0914 17.9086 80 40 80Z" fill="#EFFFED"/>
<path d="M66.8675 33.5527V67.5385C66.8675 69.453 65.3155 71.0051 63.4009 71.0051H16.6033C14.6887 71.0051 13.1367 69.453 13.1367 67.5385V33.5527H66.8675Z" fill="#FACB00"/>
<path opacity="0.1" d="M66.8647 33.5566V67.5366C66.8647 69.4566 65.3147 71.0066 63.4047 71.0066H59.0547C60.9747 71.0066 62.5247 69.4566 62.5247 67.5366V33.5566H66.8647Z" fill="black"/>
<path d="M66.8637 33.5511L61.4906 38.7336L42.4075 57.1234C41.0642 58.4234 38.9323 58.4234 37.5891 57.1234L18.5059 38.7336L13.1328 33.5513L18.5059 28.3689L32.1727 15.1961L37.5891 9.97891C38.9323 8.67891 41.0642 8.67891 42.4075 9.97891L47.8239 15.1961L61.4906 28.3689L66.8637 33.5511Z" fill="#FC9707"/>
<path d="M61.4886 16.9305V38.7349L42.4055 57.1248C41.0622 58.4248 38.9303 58.4248 37.587 57.1248L18.5039 38.7349V16.9305C18.5039 15.9734 19.2798 15.1973 20.2372 15.1973H59.7553C60.7127 15.1973 61.4886 15.9734 61.4886 16.9305Z" fill="#E6E8E7"/>
<path opacity="0.1" d="M61.4927 16.9253V38.7353L42.4025 57.1253C41.0625 58.4253 38.9325 58.4253 37.5825 57.1253L37.3125 56.8653L56.1225 38.7353V16.9253C56.1225 15.9753 55.3425 15.1953 54.3825 15.1953H59.7525C60.7125 15.1953 61.4927 15.9753 61.4927 16.9253Z" fill="black"/>
<path d="M17.4766 66.8252L37.1469 47.8613C38.7377 46.3277 41.2566 46.3275 42.8475 47.8608L62.5248 66.8252" fill="#FACB00"/>
<path d="M67.6152 33.5535C67.6152 33.3398 67.5234 33.1495 67.38 33.0128L62.2431 28.0487V16.9265C62.2431 15.5593 61.1259 14.447 59.7528 14.447H48.1256L42.9256 9.43838C41.2889 7.85041 38.7127 7.8476 37.0623 9.43635L31.8698 14.4471H20.2333C18.8652 14.4471 17.7528 15.5595 17.7528 16.9267V28.0488L12.6112 33.0174C12.6106 33.0181 12.6103 33.0192 12.6097 33.0198C12.4611 33.166 12.3828 33.369 12.3828 33.5565C12.3828 33.5598 12.3847 33.5628 12.3848 33.566V67.5388C12.3848 69.864 14.2764 71.7557 16.6016 71.7557H63.3994C65.7236 71.7557 67.6152 69.8642 67.6152 67.5388V33.5535ZM65.7831 33.5565L62.2431 36.9673V30.1351L65.7831 33.5565ZM38.1034 10.5165C39.168 9.49307 40.8281 9.49307 41.8828 10.5165L45.9634 14.4471H34.0302L38.1034 10.5165ZM19.2528 16.9267C19.2528 16.3867 19.6923 15.9471 20.2333 15.9471H59.7528C60.2987 15.9471 60.7431 16.3867 60.7431 16.9267V38.4124L47.4312 51.2379L43.367 47.3212C41.4764 45.4988 38.5164 45.5009 36.6258 47.3212L32.5591 51.2418L19.2527 38.4149L19.2528 16.9267ZM17.7528 30.1349V36.969L14.2128 33.5565L17.7528 30.1349ZM63.3994 70.2557H16.6014C15.1033 70.2557 13.8847 69.037 13.8847 67.5388V35.3232C17.3156 38.6307 30.7198 51.5524 31.4786 52.2838L16.9559 66.2851C16.6581 66.5721 16.6492 67.0478 16.9364 67.3457C17.0839 67.4981 17.2802 67.5753 17.4764 67.5753C17.6639 67.5753 17.8514 67.5059 17.9969 67.3652L37.6667 48.4013C38.9744 47.1406 41.0203 47.1415 42.3259 48.4013L62.0037 67.3652C62.3016 67.6534 62.7762 67.6446 63.0644 67.3457C63.3514 67.0479 63.3427 66.5723 63.0448 66.2851L48.5122 52.2798L62.0136 39.2773C62.0194 39.2717 62.0212 39.2637 62.0269 39.2581L66.1152 35.319V67.5392C66.1152 69.037 64.8964 70.2557 63.3994 70.2557Z" fill="#383838"/>
<path d="M33.4902 39.132C33.505 39.1469 33.5247 39.1522 33.5405 39.1655C35.2025 40.8056 37.4831 41.8214 39.998 41.8214C45.0653 41.8214 49.1884 37.6984 49.1884 32.6309C49.1884 30.1161 48.1725 27.8353 46.5323 26.1733C46.5191 26.1577 46.5139 26.138 46.4991 26.1231C46.4841 26.1081 46.4642 26.1028 46.4484 26.0894C44.7878 24.4492 42.5098 23.4336 39.9981 23.4336C34.9269 23.4336 30.8008 27.5595 30.8008 32.6309C30.8008 35.1427 31.8164 37.4206 33.4566 39.0812C33.4698 39.0973 33.4752 39.1172 33.4902 39.132ZM39.998 40.3216C38.145 40.3216 36.4431 39.6634 35.1133 38.5695L45.9364 27.7464C47.0303 29.0762 47.6884 30.7781 47.6884 32.6311C47.6884 36.8714 44.2383 40.3216 39.998 40.3216ZM39.998 24.9339C41.8481 24.9339 43.5477 25.5919 44.8761 26.6858L34.0527 37.5092C32.9589 36.1808 32.3008 34.4814 32.3008 32.6311C32.3008 28.387 35.7538 24.9339 39.998 24.9339Z" fill="#383838"/>
</g>
<defs>
<clipPath id="clip0_5063_164358">
<rect width="80" height="80" fill="white"/>
</clipPath>
</defs>
</svg>
