<svg width="22" height="21" viewBox="0 0 22 21" fill="none" xmlns="http://www.w3.org/2000/svg">
<path fill-rule="evenodd" clip-rule="evenodd" d="M10.7758 12.5299C10.1068 12.5299 9.43976 12.2993 8.88176 11.838L4.39676 8.06483C4.07376 7.79352 4.02376 7.29996 4.28276 6.96396C4.54376 6.629 5.01576 6.57578 5.33776 6.84605L9.81876 10.6151C10.3818 11.0805 11.1748 11.0805 11.7418 10.6109L16.1778 6.84813C16.4998 6.5737 16.9718 6.62587 17.2338 6.96187C17.4948 7.29683 17.4458 7.78935 17.1248 8.06274L12.6808 11.8318C12.1188 12.2972 11.4468 12.5299 10.7758 12.5299Z" fill="#2922b3"/>
<mask id="mask0_4994_36622" style="mask-type:luminance" maskUnits="userSpaceOnUse" x="0" y="0" width="22" height="21">
<path fill-rule="evenodd" clip-rule="evenodd" d="M0 0.566406H21.4999V20.9142H0V0.566406Z" fill="white"/>
</mask>
<g mask="url(#mask0_4994_36622)">
<path fill-rule="evenodd" clip-rule="evenodd" d="M5.839 19.349H15.659C15.661 19.3469 15.669 19.349 15.675 19.349C16.816 19.349 17.828 18.9233 18.604 18.1146C19.505 17.1786 20 15.8335 20 14.3278V7.16119C20 4.24675 18.174 2.13162 15.659 2.13162H5.841C3.326 2.13162 1.5 4.24675 1.5 7.16119V14.3278C1.5 15.8335 1.996 17.1786 2.896 18.1146C3.672 18.9233 4.685 19.349 5.825 19.349H5.839ZM5.822 20.9142C4.279 20.9142 2.901 20.3299 1.837 19.2238C0.652 17.9904 0 16.252 0 14.3278V7.16119C0 3.40154 2.511 0.566406 5.841 0.566406H15.659C18.989 0.566406 21.5 3.40154 21.5 7.16119V14.3278C21.5 16.252 20.848 17.9904 19.663 19.2238C18.6 20.3288 17.221 20.9142 15.675 20.9142H15.659H5.841H5.822Z" fill="#2922b3"/>
</g>
</svg>
