<svg width="48" height="48" viewBox="0 0 48 48" fill="none" xmlns="http://www.w3.org/2000/svg">
<g clip-path="url(#clip0_5063_164390)">
<path d="M24 48C37.2548 48 48 37.2548 48 24C48 10.7452 37.2548 0 24 0C10.7452 0 0 10.7452 0 24C0 37.2548 10.7452 48 24 48Z" fill="#EFFFED"/>
<path d="M18.5985 37.426C18.5985 39.8271 20.5431 41.7716 22.9441 41.7716C25.3452 41.7716 27.2898 39.8271 27.2898 37.426H18.5985ZM20.6896 13.2854C20.319 12.7994 20.1171 12.2057 20.1147 11.5945C20.1147 10.0333 21.3829 8.76508 22.9441 8.76508C24.5054 8.76508 25.7736 10.0333 25.7736 11.5945C25.7736 12.2371 25.5538 12.8176 25.1931 13.2967C25.8581 13.4376 26.5007 13.6405 27.1207 13.8942C27.4983 13.2122 27.7125 12.4287 27.7125 11.5945C27.7125 8.96799 25.5707 6.82617 22.9441 6.82617C20.3176 6.82617 18.1758 8.96235 18.1758 11.5945C18.1758 12.4174 18.3843 13.1896 18.7507 13.866C19.3707 13.618 20.0189 13.4207 20.6896 13.2854Z" fill="#FFCB46"/>
<path d="M34.9399 25.6689C38.4232 25.6689 41.247 22.8451 41.247 19.3618C41.247 15.8785 38.4232 13.0547 34.9399 13.0547C31.4566 13.0547 28.6328 15.8785 28.6328 19.3618C28.6328 22.8451 31.4566 25.6689 34.9399 25.6689Z" fill="#F6F4F0"/>
<path d="M34.9365 23.9785C32.3889 23.9785 30.3203 21.9099 30.3203 19.3623C30.3203 16.8146 32.3889 14.7461 34.9365 14.7461C37.4785 14.7461 39.5527 16.8146 39.5527 19.3623C39.5527 21.9099 37.4841 23.9785 34.9365 23.9785Z" fill="#2922b3"/>
<path d="M34.2327 32.4546V25.629C31.082 25.2795 28.6358 22.6079 28.6358 19.367C28.6358 17.9353 29.1149 16.6221 29.9209 15.5624C28.044 14.035 25.6936 13.0937 23.1065 13.0599C21.597 13.0371 20.0982 13.3177 18.6992 13.885C17.3001 14.4524 16.0293 15.295 14.962 16.3628C13.9111 17.4101 13.0777 18.6549 12.5099 20.0256C11.942 21.3963 11.651 22.8659 11.6534 24.3495V32.4602C11.6534 33.0182 11.2025 33.4692 10.6445 33.4692H35.2416C34.6836 33.4635 34.2327 33.0126 34.2327 32.4546Z" fill="#FBBF24"/>
<path d="M35.3494 33.4629H10.6452C9.68138 33.4629 8.7852 34.0998 8.5992 35.0411C8.45829 35.7456 8.69502 36.4051 9.14029 36.8504C9.50102 37.2055 9.99702 37.4309 10.5437 37.4309H35.2536C36.3076 37.4309 37.2545 36.6587 37.3334 35.6104C37.3841 35.0016 37.153 34.438 36.7585 34.0435C36.5736 33.8584 36.3539 33.7118 36.112 33.6122C35.8702 33.5125 35.611 33.4618 35.3494 33.4629Z" fill="#E5B539"/>
<path d="M35.5348 19.3624L36.927 17.9702C37.0905 17.8067 37.0905 17.5362 36.927 17.3727C36.7636 17.2093 36.493 17.2093 36.3296 17.3727L34.9374 18.7649L33.5452 17.3727C33.3817 17.2093 33.1112 17.2093 32.9477 17.3727C32.7843 17.5362 32.7843 17.8067 32.9477 17.9702L34.3399 19.3624L32.9477 20.7545C32.7843 20.918 32.7843 21.1885 32.9477 21.352C33.0323 21.4365 33.1394 21.476 33.2465 21.476C33.3536 21.476 33.4607 21.4365 33.5452 21.352L34.9374 19.9598L36.3296 21.352C36.4141 21.4365 36.5212 21.476 36.6283 21.476C36.7354 21.476 36.8425 21.4365 36.927 21.352C37.0905 21.1885 37.0905 20.918 36.927 20.7545L35.5348 19.3624ZM13.3727 24.1758H13.3445C13.2332 24.1689 13.1292 24.1181 13.0553 24.0346C12.9813 23.9512 12.9435 23.8419 12.9499 23.7305C13.0965 21.2844 14.1279 18.9904 15.8527 17.2656C17.3125 15.8058 19.1556 14.8476 21.1847 14.4925C21.4157 14.4531 21.6356 14.6053 21.675 14.8364C21.7145 15.0675 21.5623 15.2873 21.3312 15.3267C19.4712 15.6536 17.7859 16.5329 16.4501 17.8687C14.8719 19.4469 13.9307 21.5493 13.7897 23.7869C13.7785 24.0011 13.5925 24.1758 13.3727 24.1758Z" fill="white"/>
<path opacity="0.08" d="M18.7498 38.5525H27.1311C27.2269 38.1918 27.2833 37.8142 27.2833 37.4253H18.5977C18.5977 37.8198 18.654 38.1974 18.7498 38.5525ZM34.2329 26.7613V25.6283C31.0822 25.2789 28.636 22.6073 28.636 19.3663C28.636 17.9347 29.1151 16.6214 29.9211 15.5618C29.628 15.3251 29.3237 15.1109 29.0137 14.9023C28.0371 16.1856 27.5084 17.7538 27.5087 19.3663C27.5031 23.2216 30.4622 26.4005 34.2329 26.7613Z" fill="#12263A"/>
</g>
<defs>
<clipPath id="clip0_5063_164390">
<rect width="48" height="48" fill="white"/>
</clipPath>
</defs>
</svg>
