<svg width="25" height="24" viewBox="0 0 25 24" fill="none" xmlns="http://www.w3.org/2000/svg">
<path d="M20.1992 8.25V18C20.1992 21 18.4092 22 16.1992 22H8.19922C5.98922 22 4.19922 21 4.19922 18V8.25C4.19922 5 5.98922 4.25 8.19922 4.25C8.19922 4.87 8.44919 5.43 8.85919 5.84C9.26919 6.25 9.82922 6.5 10.4492 6.5H13.9492C15.1892 6.5 16.1992 5.49 16.1992 4.25C18.4092 4.25 20.1992 5 20.1992 8.25Z" stroke="#2922b3" stroke-width="1.5" stroke-linecap="round" stroke-linejoin="round"/>
<path d="M16.1992 4.25C16.1992 5.49 15.1892 6.5 13.9492 6.5H10.4492C9.82922 6.5 9.26919 6.25 8.85919 5.84C8.44919 5.43 8.19922 4.87 8.19922 4.25C8.19922 3.01 9.20922 2 10.4492 2H13.9492C14.5692 2 15.1292 2.25 15.5392 2.66C15.9492 3.07 16.1992 3.63 16.1992 4.25Z" stroke="#2922b3" stroke-width="1.5" stroke-linecap="round" stroke-linejoin="round"/>
<path d="M8.19922 13H12.1992" stroke="#2922b3" stroke-width="1.5" stroke-linecap="round" stroke-linejoin="round"/>
<path d="M8.19922 17H16.1992" stroke="#2922b3" stroke-width="1.5" stroke-linecap="round" stroke-linejoin="round"/>
</svg>
