<svg width="44" height="44" viewBox="0 0 44 44" fill="none" xmlns="http://www.w3.org/2000/svg">
<mask id="mask0_2377_44903" style="mask-type:luminance" maskUnits="userSpaceOnUse" x="14" y="12" width="16" height="16">
<path fill-rule="evenodd" clip-rule="evenodd" d="M14.5 12.8335H29.9141V27.2902H14.5V12.8335Z" fill="white"/>
</mask>
<g mask="url(#mask0_2377_44903)">
<path fill-rule="evenodd" clip-rule="evenodd" d="M22.2051 14.0835C19.2926 14.0835 17.2626 16.3652 17.2626 18.4127C17.2626 20.1452 16.7817 20.946 16.3567 21.6527C16.0159 22.2202 15.7467 22.6685 15.7467 23.6427C15.8859 25.2143 16.9234 26.0402 22.2051 26.0402C27.4576 26.0402 28.5276 25.1777 28.6659 23.5885C28.6634 22.6685 28.3942 22.2202 28.0534 21.6527C27.6284 20.946 27.1476 20.1452 27.1476 18.4127C27.1476 16.3652 25.1176 14.0835 22.2051 14.0835M22.2058 27.2902C18.3092 27.2902 14.7875 27.0152 14.5 23.696C14.4975 22.3227 14.9167 21.6243 15.2867 21.0093C15.6608 20.386 16.0133 19.7985 16.0133 18.4127C16.0133 15.7185 18.5017 12.8335 22.2058 12.8335C25.91 12.8335 28.3983 15.7185 28.3983 18.4127C28.3983 19.7985 28.7508 20.386 29.125 21.0093C29.495 21.6243 29.9142 22.3227 29.9142 23.6427C29.6233 27.0152 26.1025 27.2902 22.2058 27.2902" fill="#868A91"/>
</g>
<path fill-rule="evenodd" clip-rule="evenodd" d="M22.1668 30.7505H22.1651C21.231 30.7497 20.3468 30.338 19.676 29.5905C19.4451 29.3347 19.466 28.9388 19.7226 28.7088C19.9793 28.4772 20.3743 28.498 20.6051 28.7555C21.0368 29.2363 21.591 29.5005 22.166 29.5005H22.1668C22.7443 29.5005 23.301 29.2363 23.7335 28.7547C23.9651 28.4988 24.3601 28.478 24.616 28.7088C24.8726 28.9397 24.8935 29.3355 24.6626 29.5913C23.9893 30.3388 23.1035 30.7505 22.1668 30.7505" fill="#868A91"/>
<rect x="0.5" y="0.5" width="43" height="43" rx="21.5" stroke="black" stroke-opacity="0.12"/>
</svg>
