<svg width="20" height="22" viewBox="0 0 20 22" fill="none" xmlns="http://www.w3.org/2000/svg">
<mask id="mask0_5174_76528" style="mask-type:luminance" maskUnits="userSpaceOnUse" x="0" y="0" width="20" height="18">
<path fill-rule="evenodd" clip-rule="evenodd" d="M0.601562 0H19.0985V17.348H0.601562V0Z" fill="white"/>
</mask>
<g mask="url(#mask0_5174_76528)">
<path fill-rule="evenodd" clip-rule="evenodd" d="M9.84766 1.5C6.35266 1.5 3.91666 4.238 3.91666 6.695C3.91666 8.774 3.33966 9.735 2.82966 10.583C2.42066 11.264 2.09766 11.802 2.09766 12.971C2.26466 14.857 3.50966 15.848 9.84766 15.848C16.1507 15.848 17.4347 14.813 17.6007 12.906C17.5977 11.802 17.2747 11.264 16.8657 10.583C16.3557 9.735 15.7787 8.774 15.7787 6.695C15.7787 4.238 13.3427 1.5 9.84766 1.5ZM9.84858 17.348C5.17258 17.348 0.946576 17.018 0.601576 13.035C0.598576 11.387 1.10158 10.549 1.54558 9.811C1.99458 9.063 2.41758 8.358 2.41758 6.695C2.41758 3.462 5.40358 0 9.84858 0C14.2936 0 17.2796 3.462 17.2796 6.695C17.2796 8.358 17.7026 9.063 18.1516 9.811C18.5956 10.549 19.0986 11.387 19.0986 12.971C18.7496 17.018 14.5246 17.348 9.84858 17.348Z" fill="#868A91"/>
</g>
<path fill-rule="evenodd" clip-rule="evenodd" d="M9.79861 21.5006H9.79661C8.67561 21.4996 7.61461 21.0056 6.80961 20.1086C6.53261 19.8016 6.55761 19.3266 6.86561 19.0506C7.17361 18.7726 7.64761 18.7976 7.92461 19.1066C8.44261 19.6836 9.10761 20.0006 9.79761 20.0006H9.79861C10.4916 20.0006 11.1596 19.6836 11.6786 19.1056C11.9566 18.7986 12.4306 18.7736 12.7376 19.0506C13.0456 19.3276 13.0706 19.8026 12.7936 20.1096C11.9856 21.0066 10.9226 21.5006 9.79861 21.5006Z" fill="#868A91"/>
</svg>
