<svg width="14" height="16" viewBox="0 0 14 16" fill="none" xmlns="http://www.w3.org/2000/svg">
<path fill-rule="evenodd" clip-rule="evenodd" d="M9.93175 1.625L4.165 1.628C2.419 1.6385 1.375 2.7185 1.375 4.51775V11.4148C1.375 13.226 2.42875 14.3075 4.192 14.3075L9.95875 14.3053C11.7048 14.2947 12.7487 13.2133 12.7487 11.4148V4.51775C12.7487 2.7065 11.6958 1.625 9.93175 1.625ZM4.19275 15.4325C1.83475 15.4325 0.25 13.8177 0.25 11.4148V4.51775C0.25 2.093 1.78525 0.51725 4.16125 0.503L9.931 0.5H9.93175C12.2898 0.5 13.8738 2.11475 13.8738 4.51775V11.4148C13.8738 13.8388 12.3385 15.4152 9.9625 15.4303L4.19275 15.4325Z" fill="white"/>
</svg>
