<svg width="56" height="56" viewBox="0 0 56 56" fill="none" xmlns="http://www.w3.org/2000/svg">
<rect width="56" height="56" rx="28" fill="white"/>
<path d="M56 28C56 43.464 43.464 56 28 56C12.536 56 0 43.464 0 28C0 12.536 12.536 0 28 0C43.464 0 56 12.536 56 28ZM5.6 28C5.6 40.3712 15.6288 50.4 28 50.4C40.3712 50.4 50.4 40.3712 50.4 28C50.4 15.6288 40.3712 5.6 28 5.6C15.6288 5.6 5.6 15.6288 5.6 28Z" fill="#EBEEF2"/>
<path d="M28 2.8C28 1.2536 29.2567 -0.0145028 30.7954 0.139882C34.4279 0.504358 37.9635 1.57676 41.1991 3.3062C45.26 5.47681 48.723 8.61542 51.2811 12.444C53.8393 16.2726 55.4138 20.6731 55.8652 25.2555C56.3165 29.838 55.6307 34.461 53.8686 38.7151C52.1065 42.9693 49.3224 46.7231 45.763 49.6443C42.2036 52.5654 37.9787 54.5637 33.4625 55.462C28.9464 56.3603 24.2784 56.131 19.872 54.7943C16.3612 53.7293 13.1029 51.9876 10.2766 49.6767C9.0794 48.6979 9.08745 46.9126 10.1809 45.8191C11.2744 44.7256 13.0379 44.7418 14.2592 45.6904C16.4165 47.366 18.8686 48.638 21.4976 49.4355C25.0227 50.5048 28.7571 50.6882 32.37 49.9696C35.9829 49.2509 39.3629 47.6523 42.2104 45.3154C45.058 42.9785 47.2852 39.9754 48.6949 36.5721C50.1046 33.1688 50.6532 29.4704 50.2921 25.8044C49.9311 22.1385 48.6715 18.6181 46.6249 15.5552C44.5784 12.4923 41.808 9.98145 38.5593 8.24496C36.1363 6.94987 33.5031 6.11535 30.7928 5.77477C29.2584 5.58197 28 4.3464 28 2.8Z" fill="#22C55E"/>
<path d="M16.1104 33V31.936L19.5684 28.408C20.4924 27.484 20.9544 26.6907 20.9544 26.028C20.9544 25.4773 20.7864 25.048 20.4504 24.74C20.1144 24.432 19.7038 24.278 19.2184 24.278C18.2944 24.278 17.6224 24.7167 17.2024 25.594L16.1104 24.95C16.4184 24.3153 16.8431 23.8347 17.3844 23.508C17.9351 23.1813 18.5418 23.018 19.2044 23.018C20.0258 23.018 20.7398 23.2887 21.3464 23.83C21.9531 24.3713 22.2564 25.0993 22.2564 26.014C22.2564 27.0033 21.6731 28.0813 20.5064 29.248L18.0004 31.74H22.4384V33H16.1104ZM26.6599 27.022C27.5839 27.022 28.3632 27.2973 28.9979 27.848C29.6419 28.3893 29.9639 29.1407 29.9639 30.102C29.9639 31.054 29.6372 31.8053 28.9839 32.356C28.3305 32.9067 27.5372 33.182 26.6039 33.182C25.8572 33.182 25.1899 33.0047 24.6019 32.65C24.0139 32.286 23.6032 31.7633 23.3699 31.082L24.4759 30.452C24.6065 30.928 24.8585 31.292 25.2319 31.544C25.6052 31.7867 26.0625 31.908 26.6039 31.908C27.2199 31.908 27.7192 31.7493 28.1019 31.432C28.4845 31.1147 28.6759 30.6713 28.6759 30.102C28.6759 29.5327 28.4845 29.0893 28.1019 28.772C27.7192 28.4453 27.2292 28.282 26.6319 28.282H23.8599L24.2239 23.2H29.5859V24.418H25.3999L25.2319 27.022H26.6599ZM33.19 27.358C32.5553 27.358 32.028 27.148 31.608 26.728C31.188 26.308 30.978 25.7947 30.978 25.188C30.978 24.5907 31.188 24.082 31.608 23.662C32.0373 23.2327 32.5647 23.018 33.19 23.018C33.8247 23.018 34.352 23.228 34.772 23.648C35.192 24.068 35.402 24.5813 35.402 25.188C35.402 25.7947 35.192 26.308 34.772 26.728C34.3613 27.148 33.834 27.358 33.19 27.358ZM32.378 26.014C32.5927 26.2287 32.8633 26.336 33.19 26.336C33.5167 26.336 33.7827 26.224 33.988 26C34.2027 25.776 34.31 25.5053 34.31 25.188C34.31 24.8707 34.2027 24.6047 33.988 24.39C33.7827 24.166 33.5167 24.054 33.19 24.054C32.8633 24.054 32.5927 24.166 32.378 24.39C32.1727 24.6047 32.07 24.8707 32.07 25.188C32.07 25.5147 32.1727 25.79 32.378 26.014ZM31.636 31.614L38.146 24.334L38.832 24.712L32.308 32.006L31.636 31.614ZM39 32.538C38.58 32.958 38.0527 33.168 37.418 33.168C36.7833 33.168 36.256 32.958 35.836 32.538C35.416 32.118 35.206 31.6047 35.206 30.998C35.206 30.3913 35.416 29.878 35.836 29.458C36.256 29.038 36.7833 28.828 37.418 28.828C38.0527 28.828 38.58 29.038 39 29.458C39.42 29.878 39.63 30.3913 39.63 30.998C39.63 31.6047 39.42 32.118 39 32.538ZM36.606 31.81C36.8207 32.0247 37.0913 32.132 37.418 32.132C37.7447 32.132 38.0107 32.0247 38.216 31.81C38.4307 31.586 38.538 31.3153 38.538 30.998C38.538 30.6807 38.4307 30.4147 38.216 30.2C38.0107 29.976 37.7447 29.864 37.418 29.864C37.0913 29.864 36.8207 29.976 36.606 30.2C36.4007 30.4147 36.298 30.6807 36.298 30.998C36.298 31.3153 36.4007 31.586 36.606 31.81Z" fill="black"/>
</svg>
