<svg width="181" height="81" viewBox="0 0 181 81" fill="none" xmlns="http://www.w3.org/2000/svg">
<rect width="181" height="81" fill="#FCD34D"/>
<path d="M16.5 30.7039C16.5 30.4583 16.5334 30.2574 16.5867 30.0962L27.6058 41.1592L16.5864 52.2217C16.5333 52.0607 16.5 51.8601 16.5 51.6146V30.7039Z" fill="#1C1D1F" stroke="#FCD34D"/>
<path d="M36.5115 42.0913L32.148 44.5802L28.742 41.1592L32.1479 37.7401L36.5117 40.2291C37.0782 40.5523 37.2463 40.9081 37.2463 41.1598C37.2463 41.4115 37.0782 41.7675 36.5118 42.0911C36.5118 42.0911 36.5118 42.0911 36.5118 42.0911C36.5117 42.0912 36.5116 42.0912 36.5115 42.0913Z" fill="#1C1D1F" stroke="#FCD34D"/>
<path d="M17.268 52.816L28.1731 41.8674L31.3357 45.0424L18.1458 52.5669C18.1457 52.5669 18.1455 52.567 18.1454 52.5671C17.786 52.7716 17.495 52.835 17.268 52.816Z" fill="#1C1D1F" stroke="#FCD34D"/>
<path d="M28.174 40.4516L17.2677 29.5028C17.4949 29.4836 17.7859 29.547 18.1454 29.7521L18.1454 29.7521L31.3358 37.2759L28.174 40.4516Z" fill="#1C1D1F" stroke="#FCD34D"/>
<path d="M56.1466 39.448H61.7466V40.12C61.7466 41.5813 61.2452 42.7973 60.2426 43.768C59.2399 44.728 57.9119 45.208 56.2586 45.208C54.5519 45.208 53.1386 44.648 52.0186 43.528C50.9092 42.3867 50.3546 41.0107 50.3546 39.4C50.3546 37.7893 50.9092 36.4187 52.0186 35.288C53.1386 34.1573 54.5412 33.592 56.2266 33.592C57.2506 33.592 58.1999 33.8427 59.0746 34.344C59.9599 34.8453 60.6266 35.496 61.0746 36.296L59.7946 37.048C59.4746 36.44 58.9892 35.9547 58.3386 35.592C57.6879 35.2187 56.9786 35.032 56.2106 35.032C54.9199 35.032 53.8692 35.4533 53.0586 36.296C52.2372 37.1387 51.8266 38.1733 51.8266 39.4C51.8266 40.6267 52.2372 41.6613 53.0586 42.504C53.8906 43.336 54.9626 43.752 56.2746 43.752C57.3732 43.752 58.2692 43.4853 58.9626 42.952C59.6666 42.408 60.0986 41.688 60.2586 40.792H56.1466V39.448ZM71.092 41.64H64.388C64.5266 42.344 64.852 42.8987 65.364 43.304C65.876 43.6987 66.516 43.896 67.284 43.896C68.34 43.896 69.108 43.5067 69.588 42.728L70.772 43.4C69.9826 44.6053 68.8093 45.208 67.252 45.208C65.9933 45.208 64.9586 44.8133 64.148 44.024C63.3586 43.2133 62.964 42.2053 62.964 41C62.964 39.784 63.3533 38.7813 64.132 37.992C64.9106 37.192 65.9186 36.792 67.156 36.792C68.3293 36.792 69.284 37.208 70.02 38.04C70.7666 38.8507 71.14 39.8427 71.14 41.016C71.14 41.2187 71.124 41.4267 71.092 41.64ZM67.156 38.104C66.42 38.104 65.8013 38.312 65.3 38.728C64.8093 39.144 64.5053 39.7093 64.388 40.424H69.732C69.6146 39.688 69.3213 39.1173 68.852 38.712C68.3826 38.3067 67.8173 38.104 67.156 38.104ZM76.8577 37V38.344H74.7297V42.68C74.7297 43.0747 74.8044 43.3573 74.9537 43.528C75.1137 43.688 75.3537 43.7733 75.6737 43.784C75.9937 43.784 76.3884 43.7733 76.8577 43.752V45C75.631 45.16 74.735 45.0587 74.1697 44.696C73.615 44.3333 73.3377 43.6613 73.3377 42.68V38.344H71.7537V37H73.3377V35.176L74.7297 34.76V37H76.8577ZM89.3046 43.992C88.4939 44.8027 87.4966 45.208 86.3126 45.208C85.1286 45.208 84.1312 44.8027 83.3206 43.992C82.5099 43.1813 82.1046 42.184 82.1046 41C82.1046 39.816 82.5099 38.8187 83.3206 38.008C84.1312 37.1973 85.1286 36.792 86.3126 36.792C87.4966 36.792 88.4939 37.1973 89.3046 38.008C90.1259 38.8293 90.5366 39.8267 90.5366 41C90.5366 42.1733 90.1259 43.1707 89.3046 43.992ZM86.3126 43.848C87.1126 43.848 87.7846 43.576 88.3286 43.032C88.8726 42.488 89.1446 41.8107 89.1446 41C89.1446 40.1893 88.8726 39.512 88.3286 38.968C87.7846 38.424 87.1126 38.152 86.3126 38.152C85.5232 38.152 84.8566 38.424 84.3126 38.968C83.7686 39.512 83.4966 40.1893 83.4966 41C83.4966 41.8107 83.7686 42.488 84.3126 43.032C84.8566 43.576 85.5232 43.848 86.3126 43.848ZM96.1616 36.792C97.1002 36.792 97.8522 37.0907 98.4176 37.688C98.9829 38.2747 99.2656 39.0747 99.2656 40.088V45H97.8736V40.168C97.8736 39.528 97.6976 39.0267 97.3456 38.664C96.9936 38.3013 96.5082 38.12 95.8896 38.12C95.1749 38.12 94.6096 38.344 94.1936 38.792C93.7776 39.2293 93.5696 39.8853 93.5696 40.76V45H92.1776V37H93.5696V38.152C94.1242 37.2453 94.9882 36.792 96.1616 36.792ZM114.313 45H112.729L111.817 42.488H106.777L105.865 45H104.281L108.457 33.8H110.137L114.313 45ZM109.289 35.576L107.289 41.096H111.305L109.289 35.576ZM119.474 36.792C120.413 36.792 121.165 37.0907 121.73 37.688C122.295 38.2747 122.578 39.0747 122.578 40.088V45H121.186V40.168C121.186 39.528 121.01 39.0267 120.658 38.664C120.306 38.3013 119.821 38.12 119.202 38.12C118.487 38.12 117.922 38.344 117.506 38.792C117.09 39.2293 116.882 39.8853 116.882 40.76V45H115.49V37H116.882V38.152C117.437 37.2453 118.301 36.792 119.474 36.792ZM131.145 38.376V33.8H132.537V45H131.145V43.624C130.463 44.68 129.455 45.208 128.121 45.208C126.991 45.208 126.036 44.8027 125.257 43.992C124.468 43.1707 124.073 42.1733 124.073 41C124.073 39.8373 124.468 38.8453 125.257 38.024C126.047 37.2027 127.001 36.792 128.121 36.792C129.455 36.792 130.463 37.32 131.145 38.376ZM128.297 43.864C129.108 43.864 129.785 43.592 130.329 43.048C130.873 42.4827 131.145 41.8 131.145 41C131.145 40.1893 130.873 39.512 130.329 38.968C129.785 38.4133 129.108 38.136 128.297 38.136C127.497 38.136 126.825 38.4133 126.281 38.968C125.737 39.512 125.465 40.1893 125.465 41C125.465 41.8 125.737 42.4827 126.281 43.048C126.825 43.592 127.497 43.864 128.297 43.864ZM136.038 37V38.344C136.497 37.352 137.329 36.856 138.534 36.856V38.312C137.852 38.28 137.265 38.4613 136.774 38.856C136.284 39.2507 136.038 39.8853 136.038 40.76V45H134.646V37H136.038ZM146.211 43.992C145.4 44.8027 144.403 45.208 143.219 45.208C142.035 45.208 141.037 44.8027 140.227 43.992C139.416 43.1813 139.011 42.184 139.011 41C139.011 39.816 139.416 38.8187 140.227 38.008C141.037 37.1973 142.035 36.792 143.219 36.792C144.403 36.792 145.4 37.1973 146.211 38.008C147.032 38.8293 147.443 39.8267 147.443 41C147.443 42.1733 147.032 43.1707 146.211 43.992ZM143.219 43.848C144.019 43.848 144.691 43.576 145.235 43.032C145.779 42.488 146.051 41.8107 146.051 41C146.051 40.1893 145.779 39.512 145.235 38.968C144.691 38.424 144.019 38.152 143.219 38.152C142.429 38.152 141.763 38.424 141.219 38.968C140.675 39.512 140.403 40.1893 140.403 41C140.403 41.8107 140.675 42.488 141.219 43.032C141.763 43.576 142.429 43.848 143.219 43.848ZM149.788 35.544C149.521 35.544 149.297 35.4533 149.116 35.272C148.934 35.0907 148.844 34.872 148.844 34.616C148.844 34.36 148.934 34.1413 149.116 33.96C149.297 33.768 149.521 33.672 149.788 33.672C150.044 33.672 150.262 33.768 150.444 33.96C150.625 34.1413 150.716 34.36 150.716 34.616C150.716 34.872 150.625 35.0907 150.444 35.272C150.262 35.4533 150.044 35.544 149.788 35.544ZM150.476 45H149.084V37H150.476V45ZM159.223 38.376V33.8H160.615V45H159.223V43.624C158.541 44.68 157.533 45.208 156.199 45.208C155.069 45.208 154.114 44.8027 153.335 43.992C152.546 43.1707 152.151 42.1733 152.151 41C152.151 39.8373 152.546 38.8453 153.335 38.024C154.125 37.2027 155.079 36.792 156.199 36.792C157.533 36.792 158.541 37.32 159.223 38.376ZM156.375 43.864C157.186 43.864 157.863 43.592 158.407 43.048C158.951 42.4827 159.223 41.8 159.223 41C159.223 40.1893 158.951 39.512 158.407 38.968C157.863 38.4133 157.186 38.136 156.375 38.136C155.575 38.136 154.903 38.4133 154.359 38.968C153.815 39.512 153.543 40.1893 153.543 41C153.543 41.8 153.815 42.4827 154.359 43.048C154.903 43.592 155.575 43.864 156.375 43.864Z" fill="#1C1D1F"/>
<rect x="0.5" y="13.5" width="180" height="55.3189" rx="11.5" stroke="#1C1D1F"/>
</svg>
