<svg width="18" height="18" viewBox="0 0 18 18" fill="none" xmlns="http://www.w3.org/2000/svg">
<mask id="mask0_2874_22468" style="mask-type:luminance" maskUnits="userSpaceOnUse" x="1" y="4" width="16" height="14">
<path fill-rule="evenodd" clip-rule="evenodd" d="M1.5 4.90479H16.1894V17.041H1.5V4.90479Z" fill="white"/>
</mask>
<g mask="url(#mask0_2874_22468)">
<path fill-rule="evenodd" clip-rule="evenodd" d="M5.0372 6.02979C4.70645 6.02979 3.60095 6.16329 3.2837 7.87629L2.7047 12.3763C2.51645 13.6385 2.66195 14.552 3.1382 15.1048C3.60845 15.6508 4.44995 15.9163 5.70995 15.9163H11.971C12.757 15.9163 13.8302 15.7595 14.4782 15.011C14.9927 14.4178 15.1697 13.5343 15.0047 12.3845L14.4205 7.84554C14.1715 6.72729 13.5145 6.02979 12.6715 6.02979H5.0372ZM11.9704 17.0413H5.7094C4.10215 17.0413 2.9824 16.6475 2.28565 15.8383C1.5859 15.0268 1.3519 13.8095 1.5904 12.221L2.1724 7.70154C2.5549 5.62929 3.95365 4.90479 5.03665 4.90479H12.6709C13.7584 4.90479 15.0806 5.62704 15.5269 7.65279L16.1186 12.233C16.3309 13.7113 16.0654 14.897 15.3281 15.7475C14.5946 16.5935 13.4336 17.0413 11.9704 17.0413Z" fill="white"/>
</g>
<path fill-rule="evenodd" clip-rule="evenodd" d="M12.0743 5.865C11.7638 5.865 11.5118 5.613 11.5118 5.3025C11.5118 3.82575 10.3103 2.625 8.83433 2.625H8.82308C8.11733 2.625 7.42958 2.90925 6.93083 3.405C6.42983 3.90375 6.14258 4.596 6.14258 5.3025C6.14258 5.613 5.89058 5.865 5.58008 5.865C5.26958 5.865 5.01758 5.613 5.01758 5.3025C5.01758 4.29825 5.42558 3.3165 6.13658 2.60775C6.84533 1.9035 7.82258 1.5 8.82083 1.5H8.83658C10.9313 1.5 12.6368 3.2055 12.6368 5.3025C12.6368 5.613 12.3848 5.865 12.0743 5.865Z" fill="white"/>
<path fill-rule="evenodd" clip-rule="evenodd" d="M11.0579 9.24316H11.0234C10.7129 9.24316 10.4609 8.99116 10.4609 8.68066C10.4609 8.37016 10.7129 8.11816 11.0234 8.11816C11.3339 8.11816 11.6032 8.37016 11.6032 8.68066C11.6032 8.99116 11.3684 9.24316 11.0579 9.24316Z" fill="white"/>
<path fill-rule="evenodd" clip-rule="evenodd" d="M6.68414 9.24316H6.65039C6.33989 9.24316 6.08789 8.99116 6.08789 8.68066C6.08789 8.37016 6.33989 8.11816 6.65039 8.11816C6.96089 8.11816 7.23014 8.37016 7.23014 8.68066C7.23014 8.99116 6.99464 9.24316 6.68414 9.24316Z" fill="white"/>
</svg>
