<svg width="24" height="24" viewBox="0 0 24 24" fill="none" xmlns="http://www.w3.org/2000/svg">
<path d="M20.9592 11.5837C20.986 11.8423 21 12.1143 21 12.4007C21 14.3463 20.322 15.6536 19.665 16.4726C19.3333 16.886 19.0032 17.1792 18.7605 17.3664C18.6395 17.4599 18.541 17.5262 18.4764 17.5674C18.4442 17.5878 18.4203 17.6021 18.4065 17.61L18.3932 17.6177C18.1511 17.7488 18 18.002 18 18.2774V20.25C18 20.6642 17.6642 21 17.25 21H16.5C16.5 20.1716 15.8285 19.5 15 19.5H12C11.1716 19.5 10.5 20.1716 10.5 21H9.75C9.33579 21 9 20.6642 9 20.25V19.346C9 18.9731 8.72595 18.6567 8.35692 18.6035C8.35172 18.6026 8.34132 18.6007 8.32615 18.5979C8.29579 18.5921 8.24647 18.5817 8.18137 18.5652C8.05089 18.5324 7.85892 18.4758 7.63029 18.3836C7.17161 18.1985 6.5783 17.8751 6.03393 17.3234C5.36928 16.6496 4.96305 15.7602 4.74569 15.1439C4.52947 14.5308 4.03743 13.9759 3.33484 13.7773C3.13675 13.7213 3 13.5405 3 13.3347V12.1437C3 11.9495 3.12873 11.7788 3.31546 11.7254C4.04183 11.5177 4.52817 10.9283 4.73326 10.3081C4.90167 9.79893 5.19936 9.14325 5.68257 8.65343C6.15255 8.17701 6.67286 7.81325 7.0815 7.56716C7.28433 7.44501 7.45583 7.35414 7.57437 7.2948C7.63354 7.26518 7.67923 7.24356 7.7087 7.22996L7.74028 7.21562L7.74662 7.21283C8.0217 7.09439 8.20001 6.82358 8.20001 6.52397V4.013C8.51373 4.27853 8.86992 4.55451 9.2492 4.80275C9.72566 5.11457 10.2804 5.4107 10.8618 5.56709C11.0323 5.07635 11.2659 4.60829 11.5574 4.17594L11.5486 4.17506C11.1302 4.13265 10.6173 3.90545 10.0706 3.54765C9.53749 3.19874 9.03906 2.77029 8.65992 2.41211C8.28842 2.06111 7.79168 2.03597 7.42121 2.18633C7.04762 2.33793 6.70001 2.71221 6.70001 3.24243V6.05877C6.58517 6.12039 6.4527 6.19484 6.30768 6.28217C5.82916 6.57032 5.1988 7.00793 4.61472 7.60001C3.90072 8.32379 3.51112 9.22637 3.30912 9.83715C3.22636 10.0874 3.05816 10.2389 2.90312 10.2832C2.07257 10.5207 1.5 11.2799 1.5 12.1437V13.3347C1.5 14.2118 2.08277 14.9821 2.92683 15.2207C3.08598 15.2657 3.24947 15.4113 3.33108 15.6428C3.58041 16.3497 4.07793 17.4764 4.96608 18.3767C5.68734 19.1079 6.46903 19.5324 7.06894 19.7745C7.22547 19.8378 7.37049 19.8888 7.5 19.9299V20.25C7.5 21.4926 8.50736 22.5 9.75 22.5H10.5C11.3284 22.5 12 21.8285 12 21H15C15 21.8285 15.6715 22.5 16.5 22.5H17.25C18.4926 22.5 19.5 21.4926 19.5 20.25V18.6854C19.5548 18.6464 19.614 18.6026 19.677 18.554C19.9968 18.3071 20.4167 17.9325 20.835 17.4111C21.678 16.3602 22.5 14.7291 22.5 12.4007C22.5 11.4257 22.3612 10.5524 22.0963 9.77322C21.83 10.4354 21.4463 11.0502 20.9592 11.5837Z" fill="#2922b3"/>
<path d="M20.6871 5.81226C21.4755 7.71518 20.8616 9.8492 19.3212 11.0657C18.6968 11.5588 17.8392 11.521 17.1041 11.2166L13.5205 9.73256C12.7854 9.42813 12.1521 8.84856 12.0591 8.05836C11.8298 6.10898 12.9044 4.16577 14.8073 3.37737C17.1033 2.4261 19.7358 3.51624 20.6871 5.81226ZM18.3915 9.88851C19.4191 9.077 19.8261 7.65302 19.3013 6.3864C18.6671 4.85571 16.9121 4.12896 15.3815 4.76315C14.1148 5.28792 13.3959 6.58268 13.5489 7.88309C13.5522 7.91136 13.5654 7.96782 13.6478 8.05646C13.7373 8.15282 13.8881 8.26124 14.0944 8.34668L17.6779 9.83069C17.8844 9.91613 18.0675 9.94604 18.199 9.94121C18.32 9.93677 18.3691 9.90617 18.3915 9.88851ZM8.625 11.25C9.24632 11.25 9.75 10.7463 9.75 10.125C9.75 9.5037 9.24632 9.00002 8.625 9.00002C8.00368 9.00002 7.5 9.5037 7.5 10.125C7.5 10.7463 8.00368 11.25 8.625 11.25Z" fill="#2922b3"/>
</svg>
