<svg width="20" height="20" viewBox="0 0 20 20" fill="none" xmlns="http://www.w3.org/2000/svg">
<path fill-rule="evenodd" clip-rule="evenodd" d="M9.74992 2.17459C9.65892 2.17459 9.43492 2.20068 9.31592 2.44903L7.48992 6.25877C7.20092 6.86085 6.64392 7.27929 5.99992 7.37529L1.91192 7.9899C1.64192 8.03059 1.54992 8.23929 1.52192 8.32694C1.49692 8.41146 1.45692 8.62642 1.64292 8.81216L4.59892 11.7756C5.06992 12.2483 5.28392 12.9297 5.17192 13.5965L4.47592 17.7809C4.43292 18.0428 4.58992 18.1951 4.65992 18.2473C4.73392 18.3057 4.93192 18.4215 5.17692 18.288L8.83192 16.3106C9.40792 16.0007 10.0939 16.0007 10.6679 16.3106L14.3219 18.2869C14.5679 18.4195 14.7659 18.3036 14.8409 18.2473C14.9109 18.1951 15.0679 18.0428 15.0249 17.7809L14.3269 13.5965C14.2149 12.9297 14.4289 12.2483 14.8999 11.7756L17.8559 8.81216C18.0429 8.62642 18.0029 8.41042 17.9769 8.32694C17.9499 8.23929 17.8579 8.03059 17.5879 7.9899L13.4999 7.37529C12.8569 7.27929 12.2999 6.86085 12.0109 6.25772L10.1829 2.44903C10.0649 2.20068 9.84092 2.17459 9.74992 2.17459ZM4.94692 19.9137C4.53392 19.9137 4.12392 19.7781 3.77292 19.5109C3.16692 19.0476 2.86992 18.2828 2.99892 17.5127L3.69492 13.3283C3.72092 13.1729 3.66992 13.0153 3.55992 12.9047L0.603916 9.9412C0.0599161 9.39755 -0.135084 8.59407 0.0949161 7.84798C0.326916 7.09355 0.940916 6.55407 1.69792 6.44138L5.78592 5.82677C5.94392 5.80381 6.07992 5.70259 6.14792 5.55859L7.97492 1.74781C8.31192 1.04555 8.99192 0.609375 9.74992 0.609375C10.5079 0.609375 11.1879 1.04555 11.5249 1.74781L13.3529 5.55755C13.4219 5.70259 13.5569 5.80381 13.7139 5.82677L17.8019 6.44138C18.5589 6.55407 19.1729 7.09355 19.4049 7.84798C19.6349 8.59407 19.4389 9.39755 18.8949 9.9412L15.9389 12.9047C15.8289 13.0153 15.7789 13.1729 15.8049 13.3273L16.5019 17.5127C16.6299 18.2838 16.3329 19.0487 15.7259 19.5109C15.1109 19.9816 14.3099 20.0452 13.6309 19.6758L9.97792 17.7005C9.83492 17.6233 9.66392 17.6233 9.52092 17.7005L5.86792 19.6769C5.57592 19.8355 5.26092 19.9137 4.94692 19.9137Z" fill="#868A91"/>
</svg>
