<svg width="78" height="78" viewBox="0 0 78 78" fill="none" xmlns="http://www.w3.org/2000/svg">
<rect x="6" y="6" width="66" height="66" rx="33" fill="#EFFFED"/>
<path d="M52.75 37.7348V38.9998C52.7483 41.9649 51.7882 44.85 50.0128 47.2248C48.2375 49.5997 45.742 51.337 42.8986 52.1777C40.0552 53.0184 37.0162 52.9174 34.2349 51.8899C31.4536 50.8623 29.0789 48.9632 27.4651 46.4758C25.8512 43.9884 25.0847 41.0459 25.2798 38.0872C25.4749 35.1286 26.6212 32.3123 28.5476 30.0583C30.4741 27.8043 33.0776 26.2335 35.9698 25.58C38.8619 24.9266 41.8879 25.2255 44.5963 26.4323M52.75 27.9998L39 41.7636L34.875 37.6386" stroke="#2922b3" stroke-width="2.75" stroke-linecap="round" stroke-linejoin="round"/>
<rect x="6" y="6" width="66" height="66" rx="33" stroke="#E8F9E6" stroke-width="11"/>
</svg>
