<svg width="44" height="44" viewBox="0 0 44 44" fill="none" xmlns="http://www.w3.org/2000/svg">
<rect width="44" height="44" rx="22" fill="#FFEEF6"/>
<path d="M22.5 27H20.02L19.04 24.18H13.08L12.1 27H9.6L14.68 13H17.44L22.5 27ZM16.06 15.7L13.84 22.02H18.28L16.06 15.7ZM27.8055 27.26C25.6321 27.26 24.1321 26.4067 23.3055 24.7L25.2855 23.54C25.7521 24.5267 26.5988 25.02 27.8255 25.02C28.6255 25.02 29.2388 24.8267 29.6655 24.44C30.1055 24.04 30.3255 23.48 30.3255 22.76V13H32.6255V22.76C32.6255 24.2 32.1721 25.3133 31.2655 26.1C30.3721 26.8733 29.2188 27.26 27.8055 27.26Z" fill="black"/>
</svg>
