<svg width="142" height="62" viewBox="0 0 142 62" fill="none" xmlns="http://www.w3.org/2000/svg">
<g clip-path="url(#clip0_2377_35743)">
<rect width="142" height="62" fill="white"/>
<rect width="145" height="82.8571" transform="translate(0 -10)" fill="white"/>
<g clip-path="url(#clip1_2377_35743)">
<path d="M124.22 22.3864C122.793 14.2676 98.1719 11.7339 69.2256 16.7272C57.0692 18.8252 46.0925 21.9198 37.5444 25.4012C38.8575 25.4297 39.8313 25.728 40.423 26.3128C40.8857 26.7716 41.1193 27.4014 41.1193 28.1861V28.9914H38.2809V28.2803C38.2809 27.6878 37.9223 27.3206 37.2872 27.3206C36.7535 27.3206 36.4247 27.5594 36.3186 28.0297C36.2831 28.2156 36.287 28.4068 36.3301 28.5911C36.6338 29.8211 40.8485 30.5851 41.307 32.8551C41.3671 33.1472 41.4486 33.7723 41.32 34.6668C41.0571 36.4976 39.4335 37.204 37.3667 37.204C34.4818 37.204 33.3098 35.8502 33.3098 33.9836L33.3119 33.1006H36.3547L36.3563 34.2006C36.3563 34.819 36.81 35.1603 37.4278 35.1603C38.0133 35.1603 38.3552 34.9268 38.4733 34.4492C38.5282 34.2296 38.5522 33.9059 38.4524 33.6584C37.8894 32.259 33.9538 31.6054 33.4693 29.3426C33.3611 28.834 33.3522 28.401 33.4421 27.8536C33.4882 27.5822 33.573 27.3187 33.694 27.071C24.2124 31.4645 18.6657 36.2987 19.3986 40.4726C20.8272 48.5925 45.4475 51.1236 74.3932 46.1303C87.1174 43.9359 98.5566 40.6508 107.263 36.9694C107.137 36.9756 107.014 36.9891 106.884 36.9891C104.902 36.9891 103.134 36.2537 102.95 34.2473C102.918 33.8821 102.912 33.7293 102.911 33.5211L102.912 28.9086C102.912 28.7097 102.935 28.3606 102.958 28.1804C103.193 26.2413 104.74 25.4416 106.885 25.4416C108.544 25.4416 110.579 25.9135 110.803 28.1819C110.833 28.4668 110.83 28.7708 110.829 28.8708V29.3063H107.963V28.6563C107.963 28.6424 107.958 28.3995 107.927 28.2477C107.88 28.0162 107.681 27.4796 106.864 27.4796C106.058 27.4796 105.849 28.0172 105.796 28.2482C105.767 28.3751 105.752 28.5574 105.752 28.7594V33.7723C105.75 33.9463 105.759 34.0826 105.776 34.1825C105.791 34.2612 105.935 34.9521 106.874 34.9521C107.806 34.9521 107.95 34.2612 107.964 34.1825C107.988 34.0468 107.991 33.8852 107.99 33.7723V32.2191H106.862V30.5462H110.851V33.5222C110.85 33.7247 110.847 33.8744 110.812 34.2473C110.764 34.7735 110.597 35.2189 110.335 35.5995C119.567 31.2558 124.943 26.4997 124.22 22.3864ZM49.163 36.7757L47.7108 26.9995H47.6586L46.1693 36.7757H43.1088L45.1673 25.7353H50.1609L52.2068 36.7757H49.163ZM63.8839 36.7757L63.8165 27.1886H63.7673L61.9665 36.7757H59.0942L57.3023 27.1886H57.2511L57.1857 36.7757H54.3395L54.5862 25.7353H59.1642L60.4972 33.9365H60.5625L61.8991 25.7353H66.475L66.7207 36.7757H63.8839ZM77.287 34.6362C76.9807 36.7747 74.8663 37.1486 73.3718 37.1486C70.8905 37.1486 69.3558 36.0978 69.3558 33.9593L69.3573 33.0871H72.3635L72.3656 34.1737C72.3656 34.7636 72.7854 35.1246 73.4335 35.1246C74.0117 35.1246 74.3504 34.8946 74.468 34.4223C74.5224 34.2022 74.5448 33.8811 74.4487 33.6387C73.8946 32.2657 69.9898 31.5929 69.5152 29.3654C69.4065 28.8604 69.3986 28.4316 69.488 27.8898C69.8184 25.8705 71.7744 25.451 73.3488 25.451C74.7571 25.451 75.7821 25.7555 76.3968 26.3646C76.8553 26.8193 77.0874 27.4434 77.0874 28.2197V29.0163H74.2762V28.3135C74.2762 27.7117 73.8993 27.3636 73.2934 27.3636C72.7561 27.3636 72.4309 27.6003 72.3243 28.0659C72.2897 28.2499 72.2943 28.439 72.3379 28.6211C72.639 29.8455 76.8166 30.5939 77.274 32.8427C77.333 33.1296 77.4141 33.7454 77.287 34.6362ZM87.6986 33.633C87.7028 33.8402 87.6824 34.254 87.6709 34.3602C87.4995 36.1791 86.1864 37.1036 83.7782 37.1036C81.3606 37.1036 80.0465 36.1791 79.8761 34.3602C79.8568 34.1189 79.8475 33.877 79.8484 33.6351V25.7327H82.7244V33.8842C82.7213 34.0665 82.7307 34.2012 82.749 34.2949C82.7845 34.4762 82.9664 35.0645 83.7782 35.0645C84.5874 35.0645 84.7693 34.4757 84.8074 34.297C84.8237 34.2006 84.8336 34.0592 84.8336 33.8837V25.7327H87.6986V33.633ZM100.09 36.6633H96.0878L93.4015 27.9183H93.3566L93.5056 36.6633H90.7163V25.7353H94.8861L97.369 34.1359H97.427L97.2801 25.7353H100.09V36.6633Z" fill="#2D4F9E"/>
</g>
</g>
<defs>
<clipPath id="clip0_2377_35743">
<rect width="142" height="62" fill="white"/>
</clipPath>
<clipPath id="clip1_2377_35743">
<rect width="104.952" height="34.5238" fill="white" transform="translate(19.334 14.167)"/>
</clipPath>
</defs>
</svg>
