<svg width="18" height="18" viewBox="0 0 18 18" fill="none" xmlns="http://www.w3.org/2000/svg">
<path fill-rule="evenodd" clip-rule="evenodd" d="M16.4163 11.9218H13.3803C11.9576 11.9218 10.7996 10.7645 10.7988 9.3425C10.7988 7.919 11.9568 6.761 13.3803 6.76025H16.4163C16.7268 6.76025 16.9788 7.01225 16.9788 7.32275C16.9788 7.63325 16.7268 7.88525 16.4163 7.88525H13.3803C12.5771 7.886 11.9238 8.53925 11.9238 9.34175C11.9238 10.1435 12.5778 10.7968 13.3803 10.7968H16.4163C16.7268 10.7968 16.9788 11.0488 16.9788 11.3593C16.9788 11.6698 16.7268 11.9218 16.4163 11.9218Z" fill="white"/>
<path fill-rule="evenodd" clip-rule="evenodd" d="M13.7242 9.85791H13.4902C13.1797 9.85791 12.9277 9.60591 12.9277 9.29541C12.9277 8.98491 13.1797 8.73291 13.4902 8.73291H13.7242C14.0347 8.73291 14.2867 8.98491 14.2867 9.29541C14.2867 9.60591 14.0347 9.85791 13.7242 9.85791Z" fill="white"/>
<mask id="mask0_2874_22496" style="mask-type:luminance" maskUnits="userSpaceOnUse" x="1" y="2" width="16" height="15">
<path fill-rule="evenodd" clip-rule="evenodd" d="M1.5 2.25H16.979V16.6297H1.5V2.25Z" fill="white"/>
</mask>
<g mask="url(#mask0_2874_22496)">
<path fill-rule="evenodd" clip-rule="evenodd" d="M5.9985 3.375C4.1385 3.375 2.625 4.8885 2.625 6.7485V12.1313C2.625 13.9913 4.1385 15.5048 5.9985 15.5048H12.4815C14.3415 15.5048 15.8542 13.9913 15.8542 12.1313V6.7485C15.8542 4.8885 14.3415 3.375 12.4815 3.375H5.9985ZM12.4815 16.6297H5.9985C3.51825 16.6297 1.5 14.6115 1.5 12.1312V6.7485C1.5 4.2675 3.51825 2.25 5.9985 2.25H12.4815C14.9618 2.25 16.9792 4.2675 16.9792 6.7485V12.1312C16.9792 14.6115 14.9618 16.6297 12.4815 16.6297Z" fill="white"/>
</g>
<path fill-rule="evenodd" clip-rule="evenodd" d="M9.51409 6.77832H5.46484C5.15434 6.77832 4.90234 6.52632 4.90234 6.21582C4.90234 5.90532 5.15434 5.65332 5.46484 5.65332H9.51409C9.82459 5.65332 10.0766 5.90532 10.0766 6.21582C10.0766 6.52632 9.82459 6.77832 9.51409 6.77832Z" fill="white"/>
</svg>
