<svg width="80" height="80" viewBox="0 0 80 80" fill="none" xmlns="http://www.w3.org/2000/svg">
<g clip-path="url(#clip0_6188_230242)">
<path d="M40 80C62.0914 80 80 62.0914 80 40C80 17.9086 62.0914 0 40 0C17.9086 0 0 17.9086 0 40C0 62.0914 17.9086 80 40 80Z" fill="#EFFFED"/>
<g clip-path="url(#clip1_6188_230242)">
<path d="M51.7747 25.7915C44.5995 18.6159 32.9662 18.6159 25.791 25.7915C18.6158 32.967 18.6158 44.6009 25.791 51.7764C32.9662 58.952 44.5995 58.952 51.7747 51.7764C58.9499 44.6009 58.9499 32.967 51.7747 25.7915ZM56.3775 53.2609L63.3143 60.196C65.3933 62.2745 62.2757 65.3932 60.1967 63.3147L53.2595 56.3791C44.3096 63.7612 31.0443 63.2664 22.6729 54.8946C13.7757 45.9969 13.7757 31.5709 22.6729 22.6733C31.5702 13.7756 45.9955 13.7756 54.8927 22.6733C63.264 31.0449 63.7589 44.3105 56.3775 53.2609Z" fill="#EE4E4F"/>
<path d="M31.7607 35.2813C30.703 34.2237 30.7908 32.7305 31.7607 31.7607C32.7305 30.7908 34.2237 30.703 35.2813 31.7607L38.5 34.9793L41.7187 31.7607C42.7763 30.703 44.2695 30.7908 45.2393 31.7607C46.2092 32.7305 46.297 34.2237 45.2393 35.2813L42.0207 38.5L45.2393 41.7187C46.297 42.7763 46.2092 44.2695 45.2393 45.2393C44.2695 46.2092 42.7763 46.297 41.7187 45.2393L38.5 42.0207L35.2813 45.2393C34.2237 46.297 32.7305 46.2092 31.7607 45.2393C30.7908 44.2695 30.703 42.7763 31.7607 41.7187L34.9793 38.5L31.7607 35.2813Z" fill="#F59E0B"/>
</g>
</g>
<defs>
<clipPath id="clip0_6188_230242">
<rect width="80" height="80" fill="white"/>
</clipPath>
<clipPath id="clip1_6188_230242">
<rect width="48" height="48" fill="white" transform="translate(16 16)"/>
</clipPath>
</defs>
</svg>
