<svg width="18" height="18" viewBox="0 0 18 18" fill="none" xmlns="http://www.w3.org/2000/svg">
<mask id="mask0_2874_22440" style="mask-type:luminance" maskUnits="userSpaceOnUse" x="1" y="1" width="15" height="17">
<path fill-rule="evenodd" clip-rule="evenodd" d="M1.5 1.50049H15.9636V17.0412H1.5V1.50049Z" fill="white"/>
</mask>
<g mask="url(#mask0_2874_22440)">
<path fill-rule="evenodd" clip-rule="evenodd" d="M5.40123 13.0805C5.57298 13.0805 5.74473 13.1022 5.91273 13.1472C6.41973 13.2837 6.85998 13.6227 7.12098 14.078C7.29048 14.3637 7.38423 14.6975 7.38723 15.038C7.38723 15.5255 7.77873 15.9162 8.26023 15.9162H9.19998C9.67923 15.9162 10.0707 15.5277 10.073 15.0485C10.07 14.519 10.277 14.0157 10.6557 13.637C11.0292 13.2635 11.5512 13.0392 12.0732 13.0542C12.4152 13.0625 12.7445 13.1547 13.0347 13.3197C13.4525 13.559 13.9857 13.4165 14.2272 13.004L14.7252 12.1737C14.8362 11.9825 14.8685 11.7425 14.8092 11.5212C14.7507 11.3 14.6037 11.108 14.4057 10.9947C13.9422 10.7277 13.6115 10.2972 13.4742 9.78124C13.3385 9.27499 13.4127 8.72224 13.6775 8.26699C13.85 7.96699 14.1027 7.71424 14.4057 7.54024C14.8122 7.30249 14.9547 6.77074 14.7185 6.35674C14.7087 6.34024 14.6997 6.32299 14.6922 6.30499L14.2527 5.54299C14.0135 5.12674 13.481 4.98349 13.0632 5.22124C12.6117 5.48824 12.0747 5.56474 11.5587 5.42899C11.0435 5.29549 10.6115 4.96924 10.3422 4.50874C10.1697 4.22074 10.076 3.88549 10.073 3.54424C10.0797 3.28774 9.98973 3.05749 9.82623 2.88874C9.66348 2.72074 9.43473 2.62549 9.19998 2.62549H8.26023C8.02773 2.62549 7.81023 2.71624 7.64598 2.87974C7.48248 3.04399 7.39323 3.26224 7.39473 3.49474C7.37898 4.59124 6.48273 5.47399 5.39748 5.47399C5.04948 5.47024 4.71423 5.37649 4.42323 5.20249C4.01448 4.96999 3.48048 5.11324 3.24123 5.52949L2.73348 6.36424C2.50098 6.76774 2.64348 7.30099 3.05748 7.54174C3.67173 7.89724 4.05498 8.56024 4.05498 9.27124C4.05498 9.98224 3.67173 10.6445 3.05598 11.0007C2.64423 11.2392 2.50173 11.7695 2.74023 12.182L3.21348 12.998C3.33048 13.2087 3.52173 13.361 3.74298 13.4232C3.96348 13.4847 4.20648 13.4585 4.40898 13.346C4.70673 13.1712 5.05323 13.0805 5.40123 13.0805ZM9.20049 17.0412H8.26074C7.15899 17.0412 6.26274 16.1457 6.26274 15.044C6.26124 14.9082 6.22224 14.7672 6.14949 14.645C6.03174 14.4395 5.84124 14.2925 5.62149 14.234C5.40324 14.1755 5.16399 14.2077 4.96749 14.3217C4.49649 14.5842 3.94224 14.648 3.43524 14.5055C2.92899 14.3622 2.49174 14.0142 2.23524 13.553L1.76649 12.7452C1.21824 11.7942 1.54449 10.5755 2.49399 10.0265C2.76324 9.87124 2.93049 9.58174 2.93049 9.27124C2.93049 8.96074 2.76324 8.67049 2.49399 8.51524C1.54374 7.96324 1.21824 6.74149 1.76574 5.79049L2.27424 4.95574C2.81499 4.01524 4.03749 3.68374 4.99074 4.23124C5.12049 4.30849 5.26149 4.34749 5.40474 4.34899C5.87199 4.34899 6.26274 3.96349 6.27024 3.48949C6.26724 2.96674 6.47349 2.46499 6.84924 2.08624C7.22649 1.70824 7.72749 1.50049 8.26074 1.50049H9.20049C9.73749 1.50049 10.2595 1.72099 10.6337 2.10424C11.0072 2.48974 11.2135 3.01849 11.1977 3.55474C11.1992 3.67549 11.239 3.81499 11.311 3.93724C11.4302 4.13974 11.6185 4.28224 11.842 4.34074C12.0655 4.39624 12.2995 4.36624 12.4982 4.24849C13.4582 3.70024 14.68 4.02874 15.2282 4.98124L15.6955 5.79049C15.7075 5.81224 15.718 5.83324 15.727 5.85499C16.2235 6.79324 15.892 7.97449 14.9695 8.51374C14.8352 8.59099 14.7265 8.69899 14.6515 8.82949C14.5352 9.03124 14.503 9.27124 14.5615 9.49174C14.6215 9.71674 14.7647 9.90349 14.9665 10.019C15.4217 10.2807 15.7615 10.7217 15.8972 11.231C16.033 11.7395 15.9587 12.2915 15.694 12.7467L15.196 13.5762C14.6477 14.5182 13.426 14.8445 12.4757 14.2955C12.349 14.2227 12.2027 14.183 12.0572 14.1792H12.0527C11.836 14.1792 11.6132 14.2715 11.4512 14.4327C11.287 14.597 11.197 14.816 11.1985 15.0485C11.1932 16.1502 10.297 17.0412 9.20049 17.0412Z" fill="white"/>
</g>
<path fill-rule="evenodd" clip-rule="evenodd" d="M8.73481 7.85596C7.95481 7.85596 7.32031 8.49121 7.32031 9.27121C7.32031 10.0512 7.95481 10.685 8.73481 10.685C9.51481 10.685 10.1493 10.0512 10.1493 9.27121C10.1493 8.49121 9.51481 7.85596 8.73481 7.85596ZM8.73481 11.81C7.33456 11.81 6.19531 10.6715 6.19531 9.27121C6.19531 7.87096 7.33456 6.73096 8.73481 6.73096C10.1351 6.73096 11.2743 7.87096 11.2743 9.27121C11.2743 10.6715 10.1351 11.81 8.73481 11.81Z" fill="white"/>
</svg>
