<svg width="40" height="40" viewBox="0 0 40 40" fill="none" xmlns="http://www.w3.org/2000/svg">
<circle cx="20" cy="20" r="20" fill="#FBBF24"/>
<path d="M21.9987 13.332V19.9987C21.9987 20.732 21.3987 21.332 20.6654 21.332H13.332V15.9987C13.332 14.5254 14.5254 13.332 15.9987 13.332H21.9987Z" stroke="white" stroke-linecap="round" stroke-linejoin="round"/>
<path d="M26.6654 21.332V23.332C26.6654 24.4387 25.772 25.332 24.6654 25.332H23.9987C23.9987 24.5987 23.3987 23.9987 22.6654 23.9987C21.932 23.9987 21.332 24.5987 21.332 25.332H18.6654C18.6654 24.5987 18.0654 23.9987 17.332 23.9987C16.5987 23.9987 15.9987 24.5987 15.9987 25.332H15.332C14.2254 25.332 13.332 24.4387 13.332 23.332V21.332H20.6654C21.3987 21.332 21.9987 20.732 21.9987 19.9987V15.332H23.2254C23.7054 15.332 24.1454 15.592 24.3854 16.0054L25.5254 17.9987H24.6654C24.2987 17.9987 23.9987 18.2987 23.9987 18.6654V20.6654C23.9987 21.032 24.2987 21.332 24.6654 21.332H26.6654Z" stroke="white" stroke-linecap="round" stroke-linejoin="round"/>
<path d="M17.3333 26.6667C18.0697 26.6667 18.6667 26.0697 18.6667 25.3333C18.6667 24.597 18.0697 24 17.3333 24C16.597 24 16 24.597 16 25.3333C16 26.0697 16.597 26.6667 17.3333 26.6667Z" stroke="white" stroke-linecap="round" stroke-linejoin="round"/>
<path d="M22.6654 26.6667C23.4017 26.6667 23.9987 26.0697 23.9987 25.3333C23.9987 24.597 23.4017 24 22.6654 24C21.929 24 21.332 24.597 21.332 25.3333C21.332 26.0697 21.929 26.6667 22.6654 26.6667Z" stroke="white" stroke-linecap="round" stroke-linejoin="round"/>
<path d="M26.6667 20V21.3333H24.6667C24.3 21.3333 24 21.0333 24 20.6667V18.6667C24 18.3 24.3 18 24.6667 18H25.5267L26.6667 20Z" stroke="white" stroke-linecap="round" stroke-linejoin="round"/>
</svg>
