<svg width="56" height="44" viewBox="0 0 56 44" fill="none" xmlns="http://www.w3.org/2000/svg">
<path d="M29.7049 43.6069C42.6911 43.6069 53.2184 33.9333 53.2184 22C53.2184 10.0668 42.6911 0.393066 29.7049 0.393066C16.7188 0.393066 6.19141 10.0668 6.19141 22C6.19141 33.9333 16.7188 43.6069 29.7049 43.6069Z" fill="#FFB43B"/>
<path d="M53.3362 21.9999C53.3362 10.0211 42.7358 0.275737 29.7058 0.275737C24.2953 0.247167 19.0237 1.98813 14.6944 5.23337C14.6758 5.22646 14.6558 5.22438 14.6362 5.22732C14.6166 5.23029 14.598 5.23815 14.5823 5.25019C14.5666 5.26226 14.5542 5.2781 14.5462 5.29627C14.5383 5.31441 14.5351 5.33431 14.5369 5.35404C6.75684 11.356 4.09083 21.1108 7.58081 29.6319C7.58214 29.6581 7.59227 29.6828 7.60961 29.7024C10.9971 37.8874 19.6192 43.7214 29.6958 43.7234C42.936 43.7266 53.3362 33.7969 53.3362 21.9999ZM49.4448 33.5259C47.2327 34.8041 44.8924 35.8458 42.4625 36.6343C45.0496 33.0717 46.7076 28.4263 46.9504 23.3077C49.0807 22.3005 51.0956 21.0659 52.9604 19.6253C53.5433 24.534 52.2911 29.4847 49.4448 33.5259ZM25.3035 38.0731C28.1561 38.5705 31.0586 38.7209 33.9472 38.5207C31.3895 45.4125 27.7201 45.016 25.3035 38.0731ZM35.7003 11.3827C38.3458 11.0263 40.9188 10.2542 43.3236 9.09516C45.8206 13.2749 46.9291 18.2556 46.722 23.1562C43.4708 24.6737 40.0079 25.6877 36.4517 26.1635C36.7699 21.2241 36.5182 16.2645 35.7011 11.3827H35.7003ZM23.1573 25.5541C22.9111 20.7868 23.1507 15.4677 24.0544 10.7391C27.7844 11.7029 31.6663 11.9319 35.4837 11.4133C36.2892 16.2964 36.536 21.2553 36.2195 26.1943C31.8618 26.7565 27.4391 26.5396 23.1573 25.5541ZM36.2037 26.4325C35.8987 31.1243 35.1191 35.2577 34.0356 38.2799C31.0885 38.4922 28.1264 38.3372 25.2174 37.8191C24.1702 34.7027 23.4318 30.514 23.1708 25.7963C27.4439 26.7717 31.8555 26.9872 36.2031 26.4325H36.2037ZM35.4411 11.1826C31.6518 11.696 27.799 11.4671 24.0973 10.5087C26.7772 -3.14455 32.9309 -2.70622 35.4411 11.1826ZM30.8066 0.555385C35.8448 0.962617 40.2942 4.14271 43.203 8.89558C40.8226 10.0399 38.277 10.802 35.6594 11.1535C34.6453 5.61267 32.8799 1.6135 30.8066 0.554232V0.555385ZM23.8859 10.4539C21.5006 9.8291 19.2395 8.80152 17.2 7.41555C20.0823 3.48895 24.1091 0.918265 28.6048 0.554232C26.6202 1.56857 24.9184 5.27801 23.8859 10.4528V10.4539ZM33.4127 0.780601C38.2542 1.46924 42.7721 3.61334 46.3672 6.92854C45.4445 7.64321 44.4546 8.26693 43.4118 8.79103C40.9721 4.79647 37.4553 1.89516 33.4127 0.779449V0.780601ZM17.0111 7.28076C16.2351 6.72596 15.516 6.09561 14.8643 5.39897C18.1294 2.94915 21.9586 1.36052 25.999 0.779449C22.4848 1.74915 19.3684 4.06812 17.0111 7.28076ZM17.0635 7.60447C19.1306 9.00899 21.4228 10.0497 23.8407 10.6815C22.9312 15.3715 22.672 20.6707 22.9214 25.4988C19.2962 24.6446 15.8351 23.2034 12.6752 21.2318C12.8224 16.0011 14.4577 11.2402 17.0635 7.60447ZM22.9344 25.7439C23.1936 30.4449 23.9329 34.6313 24.9858 37.7797C21.9011 37.2057 18.9045 36.2314 16.0722 34.8812C13.8463 31.1436 12.5793 26.4958 12.6689 21.5057C15.8389 23.4643 19.3058 24.8957 22.9344 25.7439ZM25.0722 38.0337C26.0384 40.825 27.2567 42.7569 28.6048 43.4481C23.6152 43.0449 19.2028 39.9215 16.2928 35.2444C19.0886 36.5439 22.039 37.4807 25.0722 38.0323V38.0337ZM34.1704 38.506C36.7713 38.3084 39.3429 37.8289 41.8401 37.0755C38.9889 40.7253 35.1127 43.099 30.8066 43.4469C32.0775 42.7961 33.233 41.0416 34.1704 38.5046V38.506ZM34.2583 38.2644C35.3492 35.2116 36.132 31.0788 36.4375 26.4031C39.9923 25.9316 43.4555 24.9268 46.7105 23.422C46.4427 28.5683 44.7322 33.2258 42.0852 36.7564C39.5405 37.5487 36.9153 38.0539 34.2583 38.2629V38.2644ZM52.9261 19.3583C51.0772 20.7994 49.0773 22.0353 46.9616 23.0447C47.1592 17.8242 45.8747 12.9181 43.5344 8.99234C44.596 8.4577 45.6029 7.82111 46.5412 7.09155C50.0078 10.3309 52.2608 14.6593 52.9261 19.3569V19.3583ZM14.6774 5.54182C15.3437 6.25577 16.0794 6.90158 16.8737 7.46969C14.2641 11.1103 12.6182 15.8632 12.4454 21.0863C10.4794 19.8317 8.66366 18.3559 7.03361 16.688C8.31009 12.2442 10.9919 8.33354 14.6774 5.54182ZM6.96161 16.9504C8.61298 18.6237 10.4502 20.1028 12.4376 21.3588C12.292 26.0189 13.4187 30.6307 15.6967 34.6987C12.8704 33.3085 10.2211 31.5845 7.80545 29.5633C6.1585 25.563 5.8622 21.1344 6.96161 16.9504ZM8.0036 30.0293C10.4295 32.0154 13.0838 33.7048 15.9101 35.0618C18.3529 39.1313 21.9062 42.0908 25.9981 43.2203C17.8106 42.0179 11.0273 36.8998 8.0036 30.0293ZM33.4133 43.2197C36.8405 42.2736 39.8889 40.0448 42.2243 36.9554C44.6222 36.2032 46.9354 35.2032 49.1263 33.9717C45.5775 38.8133 39.9419 42.2615 33.4144 43.2203L33.4133 43.2197Z" fill="#673737"/>
<path d="M17.7972 27.9196C17.6919 27.7937 17.5525 27.7007 17.3957 27.6521C16.694 27.3289 15.9512 27.104 15.1882 26.9833C15.7236 26.9162 16.2587 27.1169 16.7938 27.0835C17.3289 27.0501 17.9187 26.6835 17.864 26.1467C17.8222 25.7461 17.4608 25.4843 17.0947 25.3115C16.5328 25.0433 16.356 25.0053 11.0485 23.2822L6.79297 28.7225C7.33712 29.6364 7.96372 30.4984 8.66497 31.2978C9.16666 31.8664 9.76801 32.3848 10.537 32.3681C10.6248 32.3695 10.712 32.3522 10.7928 32.3176C10.8735 32.2828 10.9459 32.2313 11.0053 32.1665C11.0733 32.0559 11.1081 31.9283 11.1055 31.7984C11.1099 31.1297 10.9368 30.4719 10.6038 29.8918C11.9174 30.7034 13.3879 31.2276 14.9186 31.4303C15.6542 31.5308 16.4905 31.4974 16.9254 30.9289C16.9787 30.871 17.0184 30.8019 17.0415 30.7267C17.0646 30.6513 17.0706 30.5718 17.059 30.494C17.0256 30.126 16.6578 29.9252 16.3566 29.7582L14.3832 28.855C15.0823 29.1476 15.8366 29.2847 16.5939 29.2571C16.9665 29.2605 17.3303 29.1433 17.6307 28.923C17.7756 28.8046 17.8725 28.6373 17.9031 28.4527C17.9338 28.2681 17.8961 28.0786 17.7972 27.9196Z" fill="white"/>
<path d="M17.8898 27.8494C17.7735 27.708 17.6192 27.6029 17.4451 27.5465C17.1658 27.4137 16.8784 27.2991 16.5845 27.2029C17.9554 27.2487 18.6331 25.9155 17.1461 25.2062C16.5848 24.9383 16.5293 24.9398 11.4322 23.2766C11.442 23.2645 11.4492 23.2504 11.4535 23.2354C11.4577 23.2204 11.459 23.2046 11.4571 23.189C11.4552 23.1735 11.4502 23.1585 11.4424 23.1449C11.4346 23.1314 11.4242 23.1196 11.4118 23.1101C9.29786 21.499 5.72608 19.6311 3.76048 17.8322C3.74591 17.8188 3.72814 17.8093 3.70887 17.8046C3.68961 17.7999 3.66948 17.8002 3.65035 17.8054C3.63123 17.8107 3.61375 17.8207 3.59955 17.8345C3.58538 17.8484 3.57495 17.8656 3.56925 17.8846L0.526532 27.9862C0.51754 28.0159 0.520648 28.0479 0.535169 28.0752C0.549687 28.1023 0.57444 28.1227 0.604004 28.132C3.20983 28.9366 5.39085 29.5218 7.46704 29.9734C7.8127 30.4599 8.18356 30.9279 8.57815 31.3754C9.12362 31.9935 9.72554 32.5021 10.5391 32.4854C10.6461 32.4868 10.7522 32.4649 10.8499 32.4214C10.9476 32.3776 11.0346 32.3131 11.1048 32.2325C11.1858 32.1032 11.2275 31.9531 11.2249 31.8005C11.2275 31.2498 11.1149 30.7049 10.8942 30.2004C12.1341 30.8988 13.4948 31.3561 14.9046 31.5485C15.925 31.6873 16.6367 31.5036 17.0212 31.0013C17.0835 30.9322 17.1299 30.8501 17.157 30.7611C17.1841 30.6718 17.1912 30.5779 17.1778 30.4858C17.124 29.8916 16.3225 29.6152 15.7243 29.3413C16.0126 29.3741 16.3029 29.3856 16.5929 29.3758C16.9916 29.3793 17.3807 29.2534 17.7017 29.0167C17.871 28.8793 17.9838 28.6843 18.0185 28.4689C18.0531 28.2538 18.0073 28.0332 17.8898 27.8494ZM17.5571 28.8309C17.2763 29.0369 16.9362 29.146 16.588 29.142C15.8493 29.1679 15.1137 29.0343 14.4315 28.7497C14.4033 28.7385 14.3718 28.7385 14.3436 28.75C14.3155 28.7615 14.2929 28.7834 14.2807 28.8111C14.2684 28.839 14.2674 28.8704 14.2778 28.8989C14.2883 28.9274 14.3094 28.9507 14.3367 28.964L16.3115 29.868C16.5955 30.0258 16.9163 30.2044 16.9451 30.5195C16.9537 30.5811 16.948 30.6439 16.9286 30.7029C16.9092 30.762 16.8765 30.8158 16.8331 30.8602C16.5042 31.2902 15.8657 31.4437 14.9343 31.3169C13.4216 31.1099 11.9682 30.5915 10.6659 29.7946C10.6436 29.7808 10.6174 29.775 10.5914 29.7779C10.5654 29.7808 10.5412 29.7923 10.5225 29.8104C10.5038 29.8289 10.4918 29.8528 10.4884 29.8787C10.485 29.9046 10.4904 29.9311 10.5037 29.9536C10.827 30.5152 10.9945 31.1528 10.989 31.8008C10.9918 31.905 10.9652 32.0081 10.9124 32.0983C10.8633 32.149 10.8041 32.189 10.7387 32.2155C10.6733 32.242 10.6031 32.2547 10.5325 32.2527C9.79149 32.2694 9.21808 31.7492 8.75268 31.2219C8.35627 30.7726 7.98423 30.3026 7.63812 29.8136C8.53682 27.5352 9.76235 25.3997 11.2761 23.4744C16.3429 25.1267 16.4863 25.1523 17.0448 25.4187C17.3454 25.5627 17.7072 25.7974 17.7463 26.1626C17.7956 26.6338 17.2472 26.9402 16.785 26.969C16.2459 27.0027 15.7436 26.7982 15.1722 26.8694C15.1449 26.8734 15.1199 26.8869 15.1016 26.9074C15.0833 26.9281 15.0729 26.9546 15.0722 26.9823C15.0715 27.0096 15.0806 27.0367 15.0979 27.0583C15.1151 27.0796 15.1394 27.0943 15.1664 27.0998C15.9216 27.2184 16.6565 27.4413 17.3503 27.7622C17.4839 27.8013 17.6036 27.8774 17.6959 27.9816C17.7802 28.1158 17.8127 28.276 17.7873 28.4323C17.7619 28.5887 17.6804 28.7304 17.558 28.8309H17.5571Z" fill="#673737"/>
<path d="M15.7565 11.1626L12.9805 26.8494L27.4631 33.1039L31.4767 16.4805L15.7565 11.1626Z" fill="white"/>
<path d="M31.4784 16.4805L41.4792 13.0688L36.6964 28.4213L27.4648 33.1039L31.4784 16.4805Z" fill="#FFE55D"/>
<path d="M15.7578 11.1628L27.2637 9.08887L41.4788 13.069L31.478 16.4807L15.7578 11.1628Z" fill="white"/>
<path d="M41.5927 13.0897C41.6215 12.9374 41.6195 12.995 27.2417 8.97363C15.6555 11.0737 15.6845 11.0492 15.654 11.1048L12.865 26.8279C12.8605 26.8538 12.8648 26.8806 12.8773 26.9036C12.8898 26.927 12.9097 26.9451 12.9339 26.9558C27.4761 33.2379 27.4306 33.2287 27.4865 33.2175L36.7477 28.5248C36.824 28.4874 41.5881 13.1188 41.5927 13.0897ZM27.2578 9.20893L41.0836 13.0802L31.4773 16.3571L16.2251 11.1973L27.2578 9.20893ZM15.849 11.3171L31.3399 16.5564L27.3828 32.9416L13.1127 26.7784L15.849 11.3171ZM36.5985 28.3393L27.6374 32.886L31.5764 16.5708L41.2984 13.2545L36.5985 28.3393Z" fill="#673737"/>
<path d="M19.3011 18.0697C19.2654 18.0697 19.2974 18.0783 15.7118 16.6228C15.6865 16.6125 15.6656 16.5938 15.6527 16.5698C15.6398 16.5459 15.6356 16.5181 15.6409 16.4914C15.6743 16.3241 16.4436 12.3442 16.4436 12.3442C16.4468 12.3278 16.4534 12.3123 16.4631 12.2986C16.4728 12.285 16.4853 12.2736 16.4998 12.2653C16.5142 12.2569 16.5303 12.2517 16.547 12.2501C16.5636 12.2484 16.5804 12.2504 16.5962 12.2558L20.242 13.4942C20.269 13.5034 20.2918 13.5221 20.3059 13.5469C20.3201 13.5716 20.3247 13.6008 20.3189 13.6287C19.3942 18.0884 19.4431 18.0697 19.3011 18.0697ZM15.8903 16.4413L19.2165 17.7906L20.0698 13.6811L16.6492 12.5208L15.8903 16.4413Z" fill="#673737"/>
<path d="M29.303 29.8429C29.2762 29.8429 29.2506 29.834 29.2295 29.8173C29.2088 29.8009 29.1941 29.7775 29.1883 29.7516C29.1826 29.7254 29.1858 29.6983 29.1976 29.6744C29.2094 29.6505 29.229 29.6312 29.2531 29.62L31.3267 28.6497C31.3547 28.6379 31.3861 28.6376 31.4143 28.6486C31.4425 28.6595 31.4653 28.6808 31.4782 28.7082C31.4909 28.7359 31.4926 28.767 31.4828 28.7958C31.473 28.8243 31.4526 28.8482 31.4258 28.862C29.2108 29.8974 29.341 29.8429 29.303 29.8429Z" fill="#673737"/>
<path d="M28.9021 31.2815C28.8759 31.2815 28.8503 31.2726 28.8298 31.2562C28.8091 31.24 28.7947 31.2173 28.7883 31.1916C28.7823 31.1663 28.7849 31.1392 28.7958 31.1153C28.8068 31.0914 28.8255 31.0721 28.8488 31.06L32.3944 29.254C32.422 29.2399 32.4543 29.2373 32.4837 29.2471C32.5133 29.2566 32.5378 29.2773 32.5519 29.305C32.5658 29.3329 32.5683 29.3649 32.5588 29.3945C32.5493 29.4239 32.5283 29.4484 32.5007 29.4625C28.9099 31.2936 28.9462 31.2815 28.9021 31.2815Z" fill="#673737"/>
<path d="M46.9648 18.5214C43.1707 15.5516 39.1197 15.9312 36.7302 18.3198C36.3972 18.6089 36.1634 18.9949 36.0611 19.4238C36.0171 19.6363 36.0459 19.8575 36.1429 20.0517C36.24 20.2458 36.3998 20.4017 36.5962 20.494C37.1993 20.6449 37.6437 20.1852 38.1016 19.8583C38.5935 19.5177 39.1756 19.3314 39.7737 19.3232C38.6479 19.6622 37.6399 20.3108 36.8649 21.1952C36.5715 21.4778 36.363 21.837 36.263 22.232C36.2141 22.4334 36.2299 22.6453 36.3079 22.8374C36.386 23.0292 36.5222 23.1919 36.6979 23.3022C37.5351 23.6827 38.1848 22.8846 38.7047 22.4996C39.2752 22.0898 39.9843 21.9216 40.6781 22.0313C39.7012 22.4754 38.5181 23.4713 38.2364 24.5064C38.1857 24.7034 38.1903 24.9104 38.2494 25.1051C38.3081 25.2998 38.4193 25.4743 38.5708 25.6103C38.9325 25.9187 39.5407 25.8444 39.9756 25.6771C40.4105 25.4429 40.8451 25.2422 41.3134 25.0415C42.5178 24.7071 43.7216 25.5769 44.9929 25.7439C45.4548 25.8096 45.9257 25.7779 46.3747 25.6515C46.824 25.5247 47.2419 25.3056 47.6016 25.0084L46.9648 18.5214Z" fill="white"/>
<path d="M55.4776 25.9717L54.8425 16.8073C54.8414 16.7918 54.8373 16.7767 54.8304 16.7629C54.8232 16.7491 54.8137 16.7367 54.8019 16.7267C54.5877 16.5415 48.1264 18.0362 46.7987 18.0362C46.7826 18.0362 46.767 18.0394 46.7523 18.0457C46.7373 18.052 46.7241 18.0613 46.7132 18.0729C46.7022 18.0845 46.6939 18.0983 46.6884 18.1133C46.6829 18.1284 46.6806 18.1444 46.6815 18.1603C42.9663 15.4669 39.0285 15.8563 36.6527 18.2335C36.302 18.5383 36.0554 18.9456 35.948 19.3979C35.8982 19.6401 35.9327 19.892 36.0456 20.112C36.1585 20.3319 36.3431 20.5067 36.5689 20.6075C36.8592 20.6698 37.1622 20.6251 37.4223 20.4816C37.1948 20.6776 36.9811 20.8887 36.7821 21.1135C36.071 21.8243 35.7997 22.8723 36.649 23.41C37.5818 23.8339 38.3514 22.9086 38.7718 22.5964C39.2004 22.2871 39.7153 22.1209 40.2438 22.1212C39.4432 22.5696 38.3946 23.4811 38.1224 24.4793C38.0665 24.6979 38.0717 24.9275 38.138 25.1432C38.2039 25.3589 38.328 25.5521 38.4968 25.7019C38.8888 26.0363 39.5468 25.9686 40.031 25.7814C40.4189 25.5726 40.8287 25.3782 41.3448 25.1556C42.9905 24.6985 44.5621 26.5734 46.8042 25.6276C49.6312 26.0509 51.1322 25.9548 53.3674 26.0475C53.8446 26.0674 54.9566 26.1178 55.3676 26.0962C55.3831 26.0953 55.3981 26.0913 55.4119 26.0846C55.4257 26.0777 55.4384 26.0685 55.4485 26.057C55.4588 26.0452 55.4666 26.0319 55.4715 26.0172C55.4764 26.0026 55.4787 25.987 55.4776 25.9717ZM41.2668 24.9349C40.7291 25.1653 40.3138 25.3626 39.9331 25.5685C39.5474 25.7172 38.9726 25.8004 38.6483 25.5236C38.5129 25.4027 38.4133 25.2466 38.3603 25.0729C38.3076 24.8989 38.3036 24.714 38.3488 24.5381C38.6218 23.5361 39.7888 22.565 40.7259 22.1388C40.749 22.1284 40.768 22.1105 40.7804 22.0884C40.7925 22.0662 40.7971 22.0405 40.7936 22.0155C40.7899 21.9905 40.7783 21.9673 40.7602 21.9494C40.7423 21.9315 40.719 21.9199 40.694 21.9164C39.9688 21.8014 39.2275 21.9782 38.6322 22.408C38.1693 22.751 37.5121 23.5425 36.7602 23.2044C36.0615 22.7597 36.3621 21.8646 36.9523 21.2748C37.7123 20.4052 38.7027 19.768 39.8089 19.4364C39.8366 19.429 39.8608 19.4117 39.8763 19.3878C39.8922 19.3638 39.8988 19.3349 39.8945 19.3066C39.8904 19.2782 39.876 19.2523 39.8541 19.2338C39.8323 19.2152 39.8046 19.2054 39.7758 19.206C37.9784 19.206 37.5645 20.6028 36.6507 20.3889C36.4776 20.3083 36.3368 20.1719 36.251 20.0014C36.1652 19.8311 36.1392 19.6367 36.1773 19.4497C36.2804 19.0447 36.5024 18.6798 36.8149 18.4022C39.6477 15.7143 43.5068 16.0812 46.6748 18.4443L46.4839 25.498C44.4218 26.1872 42.9873 24.4554 41.2668 24.9372V24.9349Z" fill="#673737"/>
</svg>
