<svg width="40" height="40" viewBox="0 0 40 40" fill="none" xmlns="http://www.w3.org/2000/svg">
<circle cx="20" cy="20" r="20" fill="#0885F9"/>
<path d="M14.1133 16.9609L19.9999 20.3676L25.8466 16.9809" stroke="white" stroke-width="1.5" stroke-linecap="round" stroke-linejoin="round"/>
<path d="M20 26.406V20.3594" stroke="white" stroke-width="1.5" stroke-linecap="round" stroke-linejoin="round"/>
<path d="M18.6204 13.6529L15.0604 15.6262C14.2537 16.0729 13.5938 17.1929 13.5938 18.1129V21.8795C13.5938 22.7995 14.2537 23.9195 15.0604 24.3662L18.6204 26.3462C19.3804 26.7662 20.6271 26.7662 21.3871 26.3462L24.9471 24.3662C25.7537 23.9195 26.4138 22.7995 26.4138 21.8795V18.1129C26.4138 17.1929 25.7537 16.0729 24.9471 15.6262L21.3871 13.6462C20.6204 13.2262 19.3804 13.2262 18.6204 13.6529Z" stroke="white" stroke-width="1.5" stroke-linecap="round" stroke-linejoin="round"/>
</svg>
