<svg width="78" height="78" viewBox="0 0 78 78" fill="none" xmlns="http://www.w3.org/2000/svg">
<rect x="6" y="6" width="66" height="66" rx="33" fill="#EFFFED"/>
<path d="M52.75 37.7351V39.0001C52.7483 41.9651 51.7882 44.8502 50.0128 47.2251C48.2375 49.5999 45.742 51.3372 42.8986 52.1779C40.0552 53.0186 37.0162 52.9177 34.2349 51.8901C31.4536 50.8626 29.0789 48.9634 27.4651 46.476C25.8512 43.9886 25.0847 41.0461 25.2798 38.0875C25.4749 35.1288 26.6212 32.3125 28.5476 30.0585C30.4741 27.8046 33.0776 26.2337 35.9698 25.5803C38.8619 24.9268 41.8879 25.2258 44.5963 26.4326M52.75 28.0001L39 41.7638L34.875 37.6388" stroke="#2922b3" stroke-width="2.75" stroke-linecap="round" stroke-linejoin="round"/>
<rect x="6" y="6" width="66" height="66" rx="33" stroke="#E8F9E6" stroke-width="11"/>
</svg>
