<svg width="56" height="56" viewBox="0 0 56 56" fill="none" xmlns="http://www.w3.org/2000/svg">
<rect width="56" height="56" rx="28" fill="#FFB43B" fill-opacity="0.08"/>
<rect x="8" y="8" width="40" height="40" rx="20" fill="#FFB43B"/>
<path d="M37.0602 27.8201L36.9002 27.6001C36.6202 27.2601 36.2902 26.9901 35.9102 26.7901C35.4002 26.5001 34.8202 26.3501 34.2202 26.3501H21.7702C21.1702 26.3501 20.6002 26.5001 20.0802 26.7901C19.6902 27.0001 19.3402 27.2901 19.0502 27.6501C18.4802 28.3801 18.2102 29.2801 18.3002 30.1801L18.6702 34.8501C18.8002 36.2601 18.9702 38.0001 22.1402 38.0001H33.8602C37.0302 38.0001 37.1902 36.2601 37.3302 34.8401L37.7002 30.1901C37.7902 29.3501 37.5702 28.5101 37.0602 27.8201ZM30.3902 33.3401H25.6002C25.2102 33.3401 24.9002 33.0201 24.9002 32.6401C24.9002 32.2601 25.2102 31.9401 25.6002 31.9401H30.3902C30.7802 31.9401 31.0902 32.2601 31.0902 32.6401C31.0902 33.0301 30.7802 33.3401 30.3902 33.3401Z" fill="white"/>
<path d="M36.562 24.5964C36.5995 24.9793 36.1842 25.2356 35.8194 25.1135C35.3147 24.9445 34.7833 24.86 34.2309 24.86H21.7709C21.214 24.86 20.6658 24.9501 20.1542 25.1219C19.7938 25.243 19.3809 24.9951 19.3809 24.6149V22.66C19.3809 19.09 20.4709 18 24.0409 18H25.2209C26.6509 18 27.1009 18.46 27.6809 19.21L28.8809 20.81C29.1309 21.15 29.1409 21.17 29.5809 21.17H31.9609C35.0865 21.17 36.3079 22.0072 36.562 24.5964Z" fill="white"/>
</svg>
