<svg width="56" height="56" viewBox="0 0 56 56" fill="none" xmlns="http://www.w3.org/2000/svg">
<rect width="56" height="56" rx="28" fill="#4F81E5" fill-opacity="0.08"/>
<rect x="8" y="8" width="40" height="40" rx="20" fill="#4F81E5"/>
<path fill-rule="evenodd" clip-rule="evenodd" d="M32.9303 23C32.9621 22.9291 32.977 22.8519 32.9739 22.7743H33C32.8882 20.1059 30.6849 18 28.0049 18C25.325 18 23.1217 20.1059 23.0099 22.7743C22.9967 22.849 22.9967 22.9253 23.0099 23H22.9317C21.6502 23 20.2803 23.846 19.8826 26.1201L19.1049 32.3147C18.4686 36.8629 20.8106 38 23.8685 38H32.1585C35.2075 38 37.4789 36.3535 36.9133 32.3147L36.1444 26.1201C35.676 23.9096 34.3503 23 33.0865 23H32.9303ZM31.4932 23C31.4654 22.9279 31.4506 22.8515 31.4497 22.7743C31.4497 20.8568 29.8899 19.3024 27.9657 19.3024C26.0416 19.3024 24.4818 20.8568 24.4818 22.7743C24.495 22.849 24.495 22.9253 24.4818 23H31.4932ZM25.0967 28.1484C24.6086 28.1484 24.2129 27.7411 24.2129 27.2387C24.2129 26.7364 24.6086 26.3291 25.0967 26.3291C25.5848 26.3291 25.9805 26.7364 25.9805 27.2387C25.9805 27.7411 25.5848 28.1484 25.0967 28.1484ZM30.002 27.2389C30.002 27.7413 30.3977 28.1486 30.8858 28.1486C31.3739 28.1486 31.7696 27.7413 31.7696 27.2389C31.7696 26.7366 31.3739 26.3293 30.8858 26.3293C30.3977 26.3293 30.002 26.7366 30.002 27.2389Z" fill="white"/>
</svg>
