<svg width="56" height="56" viewBox="0 0 56 56" fill="none" xmlns="http://www.w3.org/2000/svg">
<rect width="56" height="56" rx="28" fill="#EF2A2A" fill-opacity="0.08"/>
<rect x="8" y="8" width="40" height="40" rx="20" fill="#EF2A2A"/>
<path d="M36.2102 23.8199L28.5102 28.2799C28.2002 28.4599 27.8102 28.4599 27.4902 28.2799L19.7902 23.8199C19.2402 23.4999 19.1002 22.7499 19.5202 22.2799C19.8102 21.9499 20.1402 21.6799 20.4902 21.4899L25.9102 18.4899C27.0702 17.8399 28.9502 17.8399 30.1102 18.4899L35.5302 21.4899C35.8802 21.6799 36.2102 21.9599 36.5002 22.2799C36.9002 22.7499 36.7602 23.4999 36.2102 23.8199Z" fill="white"/>
<path d="M27.4305 30.1399V36.9599C27.4305 37.7199 26.6605 38.2199 25.9805 37.8899C23.9205 36.8799 20.4505 34.9899 20.4505 34.9899C19.2305 34.2999 18.2305 32.5599 18.2305 31.1299V25.9699C18.2305 25.1799 19.0605 24.6799 19.7405 25.0699L26.9305 29.2399C27.2305 29.4299 27.4305 29.7699 27.4305 30.1399Z" fill="white"/>
<path d="M28.5703 30.1399V36.9599C28.5703 37.7199 29.3403 38.2199 30.0203 37.8899C32.0803 36.8799 35.5503 34.9899 35.5503 34.9899C36.7703 34.2999 37.7703 32.5599 37.7703 31.1299V25.9699C37.7703 25.1799 36.9403 24.6799 36.2603 25.0699L29.0703 29.2399C28.7703 29.4299 28.5703 29.7699 28.5703 30.1399Z" fill="white"/>
</svg>
