<svg width="86" height="24" viewBox="0 0 86 24" fill="none" xmlns="http://www.w3.org/2000/svg">
<rect x="0.5" y="0.5" width="85" height="23" rx="11.5" fill="#F4FFEB"/>
<path fill-rule="evenodd" clip-rule="evenodd" d="M9.875 12C9.875 7.51269 13.5127 3.875 18 3.875C22.4873 3.875 26.125 7.51269 26.125 12C26.125 16.4873 22.4873 20.125 18 20.125C13.5127 20.125 9.875 16.4873 9.875 12ZM21.0086 10.4883C21.2092 10.2074 21.1442 9.81705 20.8633 9.61642C20.5824 9.41579 20.192 9.48084 19.9914 9.76173L17.2952 13.5364L15.9419 12.1831C15.6979 11.939 15.3021 11.939 15.0581 12.1831C14.814 12.4271 14.814 12.8229 15.0581 13.0669L16.9331 14.9419C17.063 15.0719 17.2435 15.138 17.4266 15.1229C17.6096 15.1077 17.7768 15.0128 17.8836 14.8633L21.0086 10.4883Z" fill="#469F00"/>
<path d="M40.356 15H39.096L36.096 6.6H37.296L39.732 13.608L42.156 6.6H43.368L40.356 15ZM49.2903 12.48H44.2623C44.3663 13.008 44.6103 13.424 44.9943 13.728C45.3783 14.024 45.8583 14.172 46.4343 14.172C47.2263 14.172 47.8023 13.88 48.1623 13.296L49.0503 13.8C48.4583 14.704 47.5783 15.156 46.4103 15.156C45.4663 15.156 44.6903 14.86 44.0823 14.268C43.4903 13.66 43.1943 12.904 43.1943 12C43.1943 11.088 43.4863 10.336 44.0703 9.744C44.6543 9.144 45.4103 8.844 46.3383 8.844C47.2183 8.844 47.9343 9.156 48.4863 9.78C49.0463 10.388 49.3263 11.132 49.3263 12.012C49.3263 12.164 49.3143 12.32 49.2903 12.48ZM46.3383 9.828C45.7863 9.828 45.3223 9.984 44.9463 10.296C44.5783 10.608 44.3503 11.032 44.2623 11.568H48.2703C48.1823 11.016 47.9623 10.588 47.6103 10.284C47.2583 9.98 46.8343 9.828 46.3383 9.828ZM51.5704 9V10.008C51.9144 9.264 52.5384 8.892 53.4424 8.892V9.984C52.9304 9.96 52.4904 10.096 52.1224 10.392C51.7544 10.688 51.5704 11.164 51.5704 11.82V15H50.5264V9H51.5704ZM54.9919 7.908C54.7919 7.908 54.6239 7.84 54.4879 7.704C54.3519 7.568 54.2839 7.404 54.2839 7.212C54.2839 7.02 54.3519 6.856 54.4879 6.72C54.6239 6.576 54.7919 6.504 54.9919 6.504C55.1839 6.504 55.3479 6.576 55.4839 6.72C55.6199 6.856 55.6879 7.02 55.6879 7.212C55.6879 7.404 55.6199 7.568 55.4839 7.704C55.3479 7.84 55.1839 7.908 54.9919 7.908ZM55.5079 15H54.4639V9H55.5079V15ZM58.6006 9H61.8646V15H60.8206V10.008H58.6006V15H57.5566V10.008H56.5966V9H57.5566V8.82C57.5566 7.236 58.4326 6.444 60.1846 6.444C60.5366 6.444 60.9486 6.496 61.4206 6.6V7.548C60.8926 7.484 60.4806 7.452 60.1846 7.452C59.6326 7.452 59.2286 7.556 58.9726 7.764C58.7246 7.972 58.6006 8.324 58.6006 8.82V9ZM69.2239 12.48H64.1959C64.2999 13.008 64.5439 13.424 64.9279 13.728C65.3119 14.024 65.7919 14.172 66.3679 14.172C67.1599 14.172 67.7359 13.88 68.0959 13.296L68.9839 13.8C68.3919 14.704 67.5119 15.156 66.3439 15.156C65.3999 15.156 64.6239 14.86 64.0159 14.268C63.4239 13.66 63.1279 12.904 63.1279 12C63.1279 11.088 63.4199 10.336 64.0039 9.744C64.5879 9.144 65.3439 8.844 66.2719 8.844C67.1519 8.844 67.8679 9.156 68.4199 9.78C68.9799 10.388 69.2599 11.132 69.2599 12.012C69.2599 12.164 69.2479 12.32 69.2239 12.48ZM66.2719 9.828C65.7199 9.828 65.2559 9.984 64.8799 10.296C64.5119 10.608 64.2839 11.032 64.1959 11.568H68.2039C68.1159 11.016 67.8959 10.588 67.5439 10.284C67.1919 9.98 66.7679 9.828 66.2719 9.828ZM75.4163 10.032V6.6H76.4603V15H75.4163V13.968C74.9043 14.76 74.1483 15.156 73.1483 15.156C72.3003 15.156 71.5843 14.852 71.0003 14.244C70.4083 13.628 70.1123 12.88 70.1123 12C70.1123 11.128 70.4083 10.384 71.0003 9.768C71.5923 9.152 72.3083 8.844 73.1483 8.844C74.1483 8.844 74.9043 9.24 75.4163 10.032ZM73.2803 14.148C73.8883 14.148 74.3963 13.944 74.8043 13.536C75.2123 13.112 75.4163 12.6 75.4163 12C75.4163 11.392 75.2123 10.884 74.8043 10.476C74.3963 10.06 73.8883 9.852 73.2803 9.852C72.6803 9.852 72.1763 10.06 71.7683 10.476C71.3603 10.884 71.1562 11.392 71.1562 12C71.1562 12.6 71.3603 13.112 71.7683 13.536C72.1763 13.944 72.6803 14.148 73.2803 14.148Z" fill="#469F00"/>
<rect x="0.5" y="0.5" width="85" height="23" rx="11.5" stroke="#469F00"/>
</svg>
