<svg width="19" height="18" viewBox="0 0 19 18" fill="none" xmlns="http://www.w3.org/2000/svg">
<path fill-rule="evenodd" clip-rule="evenodd" d="M16.9163 11.9218H13.8803C12.4576 11.9218 11.2996 10.7645 11.2988 9.3425C11.2988 7.919 12.4568 6.761 13.8803 6.76025H16.9163C17.2268 6.76025 17.4788 7.01225 17.4788 7.32275C17.4788 7.63325 17.2268 7.88525 16.9163 7.88525H13.8803C13.0771 7.886 12.4238 8.53925 12.4238 9.34175C12.4238 10.1435 13.0778 10.7968 13.8803 10.7968H16.9163C17.2268 10.7968 17.4788 11.0488 17.4788 11.3593C17.4788 11.6698 17.2268 11.9218 16.9163 11.9218" fill="#2922b3"/>
<path fill-rule="evenodd" clip-rule="evenodd" d="M14.2242 9.8577H13.9902C13.6797 9.8577 13.4277 9.6057 13.4277 9.2952C13.4277 8.9847 13.6797 8.7327 13.9902 8.7327H14.2242C14.5347 8.7327 14.7867 8.9847 14.7867 9.2952C14.7867 9.6057 14.5347 9.8577 14.2242 9.8577" fill="#2922b3"/>
<mask id="mask0_2377_57498" style="mask-type:luminance" maskUnits="userSpaceOnUse" x="2" y="2" width="16" height="15">
<path fill-rule="evenodd" clip-rule="evenodd" d="M2 2.25H17.479V16.6297H2V2.25Z" fill="white"/>
</mask>
<g mask="url(#mask0_2377_57498)">
<path fill-rule="evenodd" clip-rule="evenodd" d="M6.4985 3.375C4.6385 3.375 3.125 4.8885 3.125 6.7485V12.1313C3.125 13.9913 4.6385 15.5048 6.4985 15.5048H12.9815C14.8415 15.5048 16.3542 13.9913 16.3542 12.1313V6.7485C16.3542 4.8885 14.8415 3.375 12.9815 3.375H6.4985ZM12.9815 16.6297H6.4985C4.01825 16.6297 2 14.6115 2 12.1312V6.7485C2 4.2675 4.01825 2.25 6.4985 2.25H12.9815C15.4618 2.25 17.4792 4.2675 17.4792 6.7485V12.1312C17.4792 14.6115 15.4618 16.6297 12.9815 16.6297V16.6297Z" fill="#2922b3"/>
</g>
<path fill-rule="evenodd" clip-rule="evenodd" d="M10.0141 6.77856H5.96484C5.65434 6.77856 5.40234 6.52656 5.40234 6.21606C5.40234 5.90556 5.65434 5.65356 5.96484 5.65356H10.0141C10.3246 5.65356 10.5766 5.90556 10.5766 6.21606C10.5766 6.52656 10.3246 6.77856 10.0141 6.77856" fill="#2922b3"/>
</svg>
