<svg width="18" height="18" viewBox="0 0 18 18" fill="none" xmlns="http://www.w3.org/2000/svg">
<path fill-rule="evenodd" clip-rule="evenodd" d="M4.74609 6.26074L5.19834 11.6397C5.23134 12.0537 5.56959 12.3642 5.98284 12.3642H5.98584H14.1691H14.1706C14.5613 12.3642 14.8951 12.0732 14.9506 11.687L15.6631 6.76774C15.6796 6.65074 15.6503 6.53374 15.5791 6.43924C15.5086 6.34399 15.4051 6.28249 15.2881 6.26599C15.1313 6.27199 8.62659 6.26299 4.74609 6.26074V6.26074ZM5.98168 13.4891C4.99393 13.4891 4.15768 12.7181 4.07743 11.7319L3.39043 3.56137L2.26018 3.36637C1.95343 3.31237 1.74868 3.02212 1.80118 2.71537C1.85518 2.40862 2.15143 2.20912 2.45143 2.25712L4.01143 2.52712C4.26268 2.57137 4.45393 2.77987 4.47568 3.03487L4.65193 5.13562C15.3589 5.14012 15.3934 5.14537 15.4452 5.15137C15.8629 5.21212 16.2304 5.43037 16.4809 5.76637C16.7314 6.10161 16.8364 6.51487 16.7764 6.92887L16.0647 11.8474C15.9304 12.7834 15.1174 13.4891 14.1724 13.4891H14.1687H5.98768H5.98168Z" fill="white"/>
<path fill-rule="evenodd" clip-rule="evenodd" d="M12.9657 9.03296H10.8867C10.5755 9.03296 10.3242 8.78096 10.3242 8.47046C10.3242 8.15996 10.5755 7.90796 10.8867 7.90796H12.9657C13.2762 7.90796 13.5282 8.15996 13.5282 8.47046C13.5282 8.78096 13.2762 9.03296 12.9657 9.03296" fill="white"/>
<path fill-rule="evenodd" clip-rule="evenodd" d="M5.65875 15.5266C5.8845 15.5266 6.06675 15.7089 6.06675 15.9346C6.06675 16.1604 5.8845 16.3434 5.65875 16.3434C5.43225 16.3434 5.25 16.1604 5.25 15.9346C5.25 15.7089 5.43225 15.5266 5.65875 15.5266" fill="white"/>
<mask id="mask0_2377_57511" style="mask-type:luminance" maskUnits="userSpaceOnUse" x="5" y="15" width="2" height="2">
<path fill-rule="evenodd" clip-rule="evenodd" d="M5.25 15.9342C5.25 16.1607 5.43225 16.3437 5.6595 16.3437V16.3437C5.88525 16.3437 6.0675 16.1607 6.0675 15.9342V15.9342C6.0675 15.7084 5.88525 15.5262 5.6595 15.5262V15.5262C5.43225 15.5262 5.25 15.7084 5.25 15.9342V15.9342Z" fill="white"/>
</mask>
<g mask="url(#mask0_2377_57511)">
<path fill-rule="evenodd" clip-rule="evenodd" d="M1.50195 20.0929H9.8187V11.7762H1.50195V20.0929Z" fill="white"/>
</g>
<path fill-rule="evenodd" clip-rule="evenodd" d="M5.65832 15.7807C5.57357 15.7807 5.50457 15.8497 5.50457 15.9344C5.50457 16.1047 5.81282 16.1047 5.81282 15.9344C5.81282 15.8497 5.74307 15.7807 5.65832 15.7807M5.658 16.9055C5.1225 16.9055 4.6875 16.4697 4.6875 15.9342C4.6875 15.3987 5.1225 14.9637 5.658 14.9637C6.1935 14.9637 6.62925 15.3987 6.62925 15.9342C6.62925 16.4697 6.1935 16.9055 5.658 16.9055" fill="white"/>
<path fill-rule="evenodd" clip-rule="evenodd" d="M14.1197 15.5262C14.3454 15.5262 14.5284 15.7085 14.5284 15.9342C14.5284 16.16 14.3454 16.343 14.1197 16.343C13.8932 16.343 13.7109 16.16 13.7109 15.9342C13.7109 15.7085 13.8932 15.5262 14.1197 15.5262" fill="white"/>
<mask id="mask1_2377_57511" style="mask-type:luminance" maskUnits="userSpaceOnUse" x="13" y="15" width="2" height="2">
<path fill-rule="evenodd" clip-rule="evenodd" d="M13.7109 15.9342C13.7109 16.1607 13.8932 16.3437 14.1197 16.3437V16.3437C14.3447 16.3437 14.5284 16.1607 14.5284 15.9342V15.9342C14.5284 15.7085 14.3447 15.5262 14.1197 15.5262V15.5262C13.8932 15.5262 13.7109 15.7085 13.7109 15.9342V15.9342Z" fill="white"/>
</mask>
<g mask="url(#mask1_2377_57511)">
<path fill-rule="evenodd" clip-rule="evenodd" d="M9.96094 20.093H18.2784V11.7762H9.96094V20.093Z" fill="white"/>
</g>
<path fill-rule="evenodd" clip-rule="evenodd" d="M14.1189 15.7805C14.0349 15.7805 13.9659 15.8495 13.9659 15.9342C13.9667 16.106 14.2742 16.1045 14.2734 15.9342C14.2734 15.8495 14.2037 15.7805 14.1189 15.7805M14.1189 16.9055C13.5834 16.9055 13.1484 16.4697 13.1484 15.9342C13.1484 15.3987 13.5834 14.9637 14.1189 14.9637C14.6552 14.9637 15.0909 15.3987 15.0909 15.9342C15.0909 16.4697 14.6552 16.9055 14.1189 16.9055" fill="white"/>
</svg>
